<svg viewBox="0 0 1796 1023" fill="none" xmlns="http://www.w3.org/2000/svg">
<path d="M415.072 263.017C415.072 267.794 411.19 271.674 406.41 271.674C401.63 271.674 397.748 267.794 397.748 263.017C397.748 258.24 401.63 254.36 406.41 254.36C411.19 254.36 415.072 258.24 415.072 263.017Z" fill="white"/>
<path d="M1796 454.323C1796 457.233 1793.65 459.585 1790.74 459.585C1787.82 459.585 1785.47 457.233 1785.47 454.323C1785.47 451.413 1787.82 449.061 1790.74 449.061C1793.65 449.061 1796 451.413 1796 454.323Z" fill="white"/>
<path d="M1231.63 516.553C1231.63 520.176 1228.7 523.094 1225.09 523.094C1221.48 523.094 1218.55 520.16 1218.55 516.553C1218.55 512.946 1221.48 510.013 1225.09 510.013C1228.7 510.013 1231.63 512.946 1231.63 516.553Z" fill="white"/>
<path d="M1210.32 552.61C1210.32 558.091 1205.88 562.504 1200.42 562.504C1194.96 562.504 1190.52 558.066 1190.52 552.61C1190.52 547.154 1194.96 542.716 1200.42 542.716C1205.88 542.716 1210.32 547.154 1210.32 552.61Z" fill="white"/>
<path d="M1198.93 514.685C1198.93 517.273 1196.83 519.357 1194.25 519.357C1191.68 519.357 1189.58 517.261 1189.58 514.685C1189.58 512.108 1191.68 510.013 1194.25 510.013C1196.83 510.013 1198.93 512.108 1198.93 514.685Z" fill="white"/>
<path d="M258.092 978.02C258.092 984.858 252.535 990.387 245.718 990.387C238.9 990.387 233.344 984.834 233.344 978.02C233.344 971.206 238.9 965.652 245.718 965.652C252.535 965.652 258.092 971.206 258.092 978.02Z" fill="white"/>
<path d="M949.212 1017.11C949.212 1019.85 947.004 1022.06 944.262 1022.06C941.52 1022.06 939.312 1019.85 939.312 1017.11C939.312 1014.37 941.52 1012.16 944.262 1012.16C947.004 1012.16 949.212 1014.37 949.212 1017.11Z" fill="white"/>
<path d="M19.3235 322.235C19.3235 327.012 15.4415 330.892 10.6617 330.892C5.88201 330.892 2 327.012 2 322.235C2 317.457 5.88201 313.577 10.6617 313.577C15.4415 313.577 19.3235 317.457 19.3235 322.235Z" fill="white"/>
<path d="M1522.73 74.9359C1522.73 80.4163 1518.29 84.8298 1512.83 84.8298C1507.37 84.8298 1502.93 80.3921 1502.93 74.9359C1502.93 69.4797 1507.37 65.042 1512.83 65.042C1518.29 65.042 1522.73 69.4797 1522.73 74.9359Z" fill="white"/>
<path d="M872.542 985.222L854.199 975.182L844.713 993.782L848.595 973.267L827.947 969.993L848.668 967.326L845.416 946.713L854.345 965.58L872.979 956.122L857.766 970.429L872.542 985.222Z" fill="white"/>
<path d="M1614.37 522.198L1636.52 514.802L1628.47 492.88L1642.37 511.649L1660.74 497.221L1647.17 516.232L1666.56 529.23L1644.29 522.222L1637.91 544.677L1637.71 521.325L1614.37 522.198Z" fill="white"/>
<path d="M339.783 64.6298L348.057 48.6735L331.85 40.8893L349.586 43.7993L352.012 26L354.705 43.7508L372.392 40.5498L356.306 48.6007L364.847 64.4116L352.206 51.632L339.783 64.6298Z" fill="white"/>
<path d="M1200.34 59.1208L1164.87 47.3355L1154.1 83.1038L1154.36 45.7592L1117 46.5595L1152.62 35.2591L1140.29 0L1162.06 30.3849L1191.8 7.75991L1169.63 37.8296L1200.34 59.1208Z" fill="white"/>
<path d="M635.545 954.376L657.988 949.041L652.019 926.756L664.029 946.447L683.366 933.885L668.348 951.394L686.278 965.895L664.975 957.019L656.726 978.553L658.594 955.564L635.545 954.376Z" fill="white"/>
<path d="M1088.82 573.704L1071.08 567.811L1065.7 585.708L1065.82 567.035L1047.13 567.448L1064.94 561.798L1058.78 544.168L1069.67 559.348L1084.55 548.024L1073.46 563.059L1088.82 573.704Z" fill="white"/>
<path d="M608.445 123.912L624.701 104.706L605 89.0406L628.316 98.5465L637.124 75L635.304 100.074L660.44 101.19L636.008 107.179L642.704 131.429L629.432 110.065L608.445 123.912Z" fill="white"/>
<path d="M2 1019.48C45.95 976.316 136.94 876.656 186.94 823.626C188.68 821.786 191.42 818.526 189.01 816.456C184.4 812.506 176.4 813.546 161.62 810.646C172.4 808.546 178.73 808.636 182.99 801.546C187.25 794.456 184.4 785.546 180.4 776.546C193.4 790.546 217.03 786.976 232.4 779.546C215.4 797.546 223.4 817.546 235.65 823.626C218.4 823.546 215.84 824.386 210.12 832.296C204.4 840.206 202.68 850.246 201.13 859.886C196.99 844.616 185.4 823.546 120.4 811.546C148.4 808.546 162.99 804.516 168.4 786.546C173.7 768.956 163.4 759.546 154.06 740.046C171.4 755.546 185.56 766.856 205.96 766.166C226.37 765.476 245.64 756.986 263.89 747.826C250.21 760.686 241.18 779.076 241.94 797.836C242.7 816.596 264.89 833.786 282.4 840.546C238.4 839.546 224.4 818.546 205.4 903.546C197.4 862.546 182.69 853.846 169.4 844.546C149.4 830.546 106.57 853.556 117.4 879.546C127.4 903.546 151.19 900.276 159.4 888.546C166.4 878.546 156.4 856.546 140.4 873.546" stroke="white" stroke-width="3" stroke-miterlimit="10"/>
<path d="M204.76 751.386C206.98 743.656 200.46 737.916 197.97 731.096C196.97 728.226 195.34 721.226 199.04 719.676C200.51 719.126 202.09 719.616 203.16 720.666C204.8 722.356 204.79 724.816 204.94 726.826C205.25 733.146 203.34 739.746 199.52 744.676C201.96 738.976 202.96 733.026 202.32 727.026C202.09 725.466 202.06 723.796 201.11 722.716C200.9 722.486 200.24 722.236 200.04 722.496C197.62 732.406 210.31 741.566 204.75 751.386H204.76Z" fill="white"/>
<path d="M261.73 797.946C269.46 800.166 275.201 793.646 282.021 791.156C284.891 790.156 291.89 788.526 293.44 792.226C293.99 793.696 293.501 795.276 292.451 796.346C290.761 797.986 288.3 797.976 286.29 798.126C279.97 798.436 273.37 796.526 268.44 792.706C274.14 795.146 280.09 796.146 286.09 795.506C287.65 795.276 289.32 795.246 290.4 794.296C290.63 794.086 290.88 793.426 290.62 793.226C280.71 790.806 271.55 803.496 261.73 797.936V797.946Z" fill="white"/>
<path d="M216.94 739.076C220.7 729.606 227.73 721.936 230.37 712.226C231.27 708.646 232.13 703.726 229.16 701.076C228.92 700.926 228.7 700.916 228.76 700.926C228.83 700.946 228.88 700.796 228.78 701.016C228.69 701.206 228.59 701.756 228.51 702.226C225.23 717.916 233 735.026 225.91 750.146C229.47 738.226 225.59 726.156 224.88 714.096C224.64 709.986 224.73 705.776 225.57 701.626C225.72 700.766 225.94 699.516 226.78 698.746C227.76 697.686 229.77 697.876 230.68 698.566C233.29 700.256 234.08 703.876 234.02 706.626C233.35 719.496 222.98 728.696 216.93 739.086L216.94 739.076Z" fill="white"/>
<path d="M268.449 784.256C278.839 778.206 288.039 767.836 300.909 767.166C303.659 767.106 307.279 767.896 308.969 770.506C309.649 771.416 309.849 773.426 308.779 774.406C308.009 775.246 306.759 775.466 305.899 775.616C301.749 776.456 297.539 776.546 293.429 776.306C281.369 775.596 269.289 771.726 257.379 775.276C272.499 768.196 289.609 775.966 305.299 772.676C305.769 772.596 306.319 772.496 306.509 772.406C306.729 772.306 306.579 772.356 306.599 772.426C306.599 772.486 306.599 772.266 306.449 772.026C303.799 769.066 298.889 769.916 295.299 770.816C285.579 773.456 277.909 780.486 268.449 784.246V784.256Z" fill="white"/>
</svg>
