<svg width="1920" height="1226" viewBox="0 0 1920 1226" fill="none" xmlns="http://www.w3.org/2000/svg">
<defs>
    <pattern  x="0" y="0" width="100" height="100" patternUnits="userSpaceOnUse">
        <path d="M480.071 415.017C480.071 419.794 476.189 423.674 471.409 423.674C466.629 423.674 462.747 419.794 462.747 415.017C462.747 410.24 466.629 406.36 471.409 406.36C476.189 406.36 480.071 410.24 480.071 415.017Z" fill="white"/>
        <path d="M1861 606.323C1861 609.233 1858.65 611.585 1855.74 611.585C1852.82 611.585 1850.47 609.233 1850.47 606.323C1850.47 603.413 1852.82 601.061 1855.74 601.061C1858.65 601.061 1861 603.413 1861 606.323Z" fill="white"/>
        <path d="M1296.63 668.554C1296.63 672.177 1293.7 675.094 1290.09 675.094C1286.48 675.094 1283.55 672.161 1283.55 668.554C1283.55 664.947 1286.48 662.013 1290.09 662.013C1293.7 662.013 1296.63 664.947 1296.63 668.554Z" fill="white"/>
        <path d="M1275.31 704.61C1275.31 710.091 1270.87 714.504 1265.42 714.504C1259.96 714.504 1255.52 710.066 1255.52 704.61C1255.52 699.154 1259.96 694.716 1265.42 694.716C1270.87 694.716 1275.31 699.154 1275.31 704.61Z" fill="white"/>
        <path d="M1263.93 666.685C1263.93 669.273 1261.83 671.357 1259.25 671.357C1256.68 671.357 1254.58 669.261 1254.58 666.685C1254.58 664.108 1256.68 662.013 1259.25 662.013C1261.83 662.013 1263.93 664.108 1263.93 666.685Z" fill="white"/>
        <path d="M323.092 1130.02C323.092 1136.86 317.535 1142.39 310.718 1142.39C303.9 1142.39 298.344 1136.83 298.344 1130.02C298.344 1123.21 303.9 1117.65 310.718 1117.65C317.535 1117.65 323.092 1123.21 323.092 1130.02Z" fill="white"/>
        <path d="M1014.21 1169.11C1014.21 1171.85 1012 1174.06 1009.26 1174.06C1006.52 1174.06 1004.31 1171.85 1004.31 1169.11C1004.31 1166.37 1006.52 1164.16 1009.26 1164.16C1012 1164.16 1014.21 1166.37 1014.21 1169.11Z" fill="white"/>
        <path d="M84.3235 474.235C84.3235 479.012 80.4415 482.892 75.6617 482.892C70.882 482.892 67 479.012 67 474.235C67 469.457 70.882 465.577 75.6617 465.577C80.4415 465.577 84.3235 469.457 84.3235 474.235Z" fill="white"/>
        <path d="M1587.73 226.936C1587.73 232.416 1583.29 236.83 1577.83 236.83C1572.37 236.83 1567.93 232.392 1567.93 226.936C1567.93 221.48 1572.37 217.042 1577.83 217.042C1583.29 217.042 1587.73 221.48 1587.73 226.936Z" fill="white"/>
        <path d="M937.542 1137.22L919.199 1127.18L909.713 1145.78L913.595 1125.27L892.947 1121.99L913.668 1119.33L910.416 1098.71L919.345 1117.58L937.979 1108.12L922.766 1122.43L937.542 1137.22Z" fill="white"/>
        <path d="M1727 734.318L1749.15 726.922L1741.1 705L1755 723.769L1773.37 709.341L1759.8 728.352L1779.19 741.35L1756.92 734.342L1750.53 756.797L1750.34 733.445L1727 734.318Z" fill="white"/>
        <path d="M404.783 216.63L413.057 200.673L396.85 192.889L414.586 195.799L417.012 178L419.705 195.751L437.392 192.55L421.306 200.601L429.847 216.412L417.206 203.632L404.783 216.63Z" fill="white"/>
        <path d="M1302.94 263.868L1267.46 252.083L1256.69 287.851L1256.96 250.507L1219.59 251.307L1255.21 240.007L1242.89 204.747L1264.65 235.132L1294.4 212.507L1272.22 242.577L1302.94 263.868Z" fill="white"/>
        <path d="M700.545 1106.38L722.988 1101.04L717.019 1078.76L729.029 1098.45L748.366 1085.89L733.348 1103.39L751.278 1117.89L729.975 1109.02L721.726 1130.55L723.594 1107.56L700.545 1106.38Z" fill="white"/>
        <path d="M1153.82 725.704L1136.08 719.811L1130.7 737.708L1130.82 719.035L1112.13 719.448L1129.94 713.797L1123.78 696.168L1134.67 711.348L1149.55 700.024L1138.46 715.058L1153.82 725.704Z" fill="white"/>
        <path d="M673.445 275.912L689.701 256.706L670 241.041L693.316 250.546L702.124 227L700.304 252.074L725.44 253.19L701.008 259.179L707.704 283.429L694.432 262.065L673.445 275.912Z" fill="white"/>

    </pattern>
</defs>
</svg>
