<svg width="46" height="46" viewBox="0 0 46 46" fill="none" xmlns="http://www.w3.org/2000/svg">
<path d="M22.87 45.74C35.5007 45.74 45.74 35.5007 45.74 22.87C45.74 10.2392 35.5007 0 22.87 0C10.2392 0 0 10.2392 0 22.87C0 35.5007 10.2392 45.74 22.87 45.74Z" fill="#247DA5"/>
<path d="M22.8697 40.52C32.6175 40.52 40.5197 32.6178 40.5197 22.87C40.5197 13.1221 32.6175 5.21997 22.8697 5.21997C13.1219 5.21997 5.21973 13.1221 5.21973 22.87C5.21973 32.6178 13.1219 40.52 22.8697 40.52Z" stroke="white" stroke-width="4.89" stroke-miterlimit="10"/>
<path d="M22.8702 35C29.5695 35 35.0002 29.5692 35.0002 22.87C35.0002 16.1708 29.5695 10.74 22.8702 10.74C16.171 10.74 10.7402 16.1708 10.7402 22.87C10.7402 29.5692 16.171 35 22.8702 35Z" fill="#DD2E4F"/>
<path d="M22.8698 29.23C26.3823 29.23 29.2297 26.3825 29.2297 22.87C29.2297 19.3575 26.3823 16.51 22.8698 16.51C19.3572 16.51 16.5098 19.3575 16.5098 22.87C16.5098 26.3825 19.3572 29.23 22.8698 29.23Z" stroke="white" stroke-width="4.89" stroke-miterlimit="10"/>
</svg>
