<svg width="407" height="1006" viewBox="0 0 407 1006" fill="none" xmlns="http://www.w3.org/2000/svg">
<path d="M314.952 153.148C311.808 141.231 315.558 123.717 325.066 115.988C334.613 108.259 348.742 106.774 359.652 112.371C378.706 122.156 382.987 147.284 383.858 168.796C388.707 286.329 302.982 354.747 311.202 472.052C312.528 490.898 336.848 600.55 239 605.918" stroke="white" stroke-width="3" stroke-miterlimit="10" stroke-linecap="round"/>
<path d="M268.156 36.119C267.224 41.3759 265.103 43.6758 262.446 47.1022C261.654 48.1113 260.045 47.5715 260.022 46.3042C259.859 40.8361 258.95 38.3016 259.23 31.1437C255.71 30.7683 251.375 28.9143 247.576 28.0459C246.924 27.9051 246.83 27.0368 247.413 26.7082C250.35 25.0655 253.053 22.6013 256.13 21.4748C253.007 16.8281 253.17 9.17745 253.1 3.12263C253.1 2.37165 254.032 1.99615 254.522 2.55939C258.064 6.64287 262.819 12.9089 266.758 15.1619C268.016 10.8672 271.885 7.65201 274.892 2.51246C275.358 1.71454 276.547 1.87881 276.733 2.79408C277.549 7.01836 278.085 12.9558 277.898 16.2883C280.695 16.6638 283.562 16.4995 286.312 15.8659C287.268 15.6312 288.13 16.57 287.757 17.5087C286.802 19.9963 285.263 22.2493 283.282 24.0329C303.816 29.6183 311.134 34.265 325.351 42.0096C334.371 46.9144 345.535 58.5312 351.129 67.191C356.722 75.8508 360.755 89.2747 353.832 103.59C349.334 112.884 326.726 120.042 317.287 115.982C312.346 113.095 312.719 102.91 316.984 99.0844C321.249 95.2591 328.032 95.4233 333.066 98.1691C334.721 99.0844 336.282 100.258 337.378 101.807C340.78 106.594 338.893 113.635 334.767 117.789C330.642 121.942 324.862 123.89 319.315 125.697C308.78 129.147 298.106 132.621 287.058 133.066C292.745 111.124 292.349 87.6084 285.939 65.8533C283.632 57.968 278.434 37.3628 263.518 24.1502C280.439 26.7552 295.961 35.5323 308.943 46.7736C321.925 58.0149 332.576 71.6735 342.738 85.5197C350.966 96.7376 359.309 109.434 358.167 123.327C357.212 134.756 349.707 144.848 340.338 151.372C330.968 157.896 320.597 164.232 309.573 167.142C298.478 170.076 285.124 170.944 275.311 171.93C268.459 172.634 262.05 167.964 261.001 161.111C259.766 153.038 263.821 149.776 267.247 147.382C272.258 143.885 277.782 142.102 281.861 140.788C302.301 134.287 324.419 138.37 343.461 128.443C351.968 124.008 359.263 117.484 367.514 112.579C375.764 107.674 385.786 104.388 394.946 107.251C398.535 108.378 401.984 110.584 403.732 113.94C405.76 117.859 405.178 122.67 403.546 126.777C398.325 139.778 384.085 146.983 371.849 152.193C360.195 157.145 348.029 160.853 335.56 163.059C330.922 163.88 326.027 164.373 321.739 162.472C317.217 160.477 314.956 157.427 314.956 152.78" stroke="white" stroke-width="3" stroke-miterlimit="10"/>
<path d="M116.206 980.181C276.987 1028.93 341.665 1010.61 366.178 908.074C392.637 797.39 223.433 747.253 259.229 629.18L229.79 610.15C189.346 755.914 44.5756 734.301 15.4149 801.76C-9.69351 859.883 -20.4997 938.784 116.206 980.221V980.181Z" fill="white"/>
<path d="M119.066 968.262C262.287 1011.69 320.093 994.801 342.42 901.757C366.535 801.363 215.805 756.708 248.303 649.56L230.783 635.06C194.034 767.316 56.2953 745.783 29.9553 807.044C7.27036 859.804 -2.70151 931.355 119.066 968.262Z" fill="#123845"/>
<path d="M119.067 968.263C-2.70105 931.355 7.27081 859.804 29.9558 807.044C34.5246 796.437 40.1265 789.921 50.2572 783.048C82.1195 804.82 270.909 855.632 341.983 857.221C347.188 871.246 345.559 888.607 342.42 901.757C320.093 994.761 262.288 1011.69 119.067 968.263Z" fill="#C13355"/>
<path d="M217.196 669.862L243.735 676.02L277.663 565.972L233.088 556L217.196 669.862Z" fill="#519ACF"/>
<path d="M221.843 605.456L264.922 615.07C274.023 617.101 279.755 626.125 277.724 635.226L276.685 639.879C274.654 648.981 265.63 654.712 256.529 652.681L213.45 643.068C204.349 641.037 198.617 632.012 200.648 622.911L201.687 618.258C203.718 609.157 212.742 603.425 221.843 605.456Z" fill="white"/>
<path d="M257.282 865.286C251.797 865.286 247.35 860.839 247.35 855.354C247.35 849.869 251.797 845.422 257.282 845.422C262.767 845.422 267.214 849.869 267.214 855.354C267.214 860.839 262.767 865.286 257.282 865.286Z" fill="#E99392"/>
<path d="M196.616 790.676C191.131 790.676 186.684 786.229 186.684 780.744C186.684 775.259 191.131 770.812 196.616 770.812C202.102 770.812 206.549 775.259 206.549 780.744C206.549 786.229 202.102 790.676 196.616 790.676Z" fill="#E99392"/>
<path d="M230.227 781.976C226.935 781.976 224.267 779.308 224.267 776.016C224.267 772.725 226.935 770.057 230.227 770.057C233.518 770.057 236.186 772.725 236.186 776.016C236.186 779.308 233.518 781.976 230.227 781.976Z" fill="#E99392"/>
<path d="M219.064 722.502C215.772 722.502 213.104 719.834 213.104 716.543C213.104 713.252 215.772 710.583 219.064 710.583C222.355 710.583 225.023 713.252 225.023 716.543C225.023 719.834 222.355 722.502 219.064 722.502Z" fill="#E99392"/>
<path d="M141.393 855.672C135.908 855.672 131.461 851.225 131.461 845.74C131.461 840.254 135.908 835.808 141.393 835.808C146.878 835.808 151.325 840.254 151.325 845.74C151.325 851.225 146.878 855.672 141.393 855.672Z" fill="#E99392"/>
<path d="M216.719 937.632C211.234 937.632 206.787 933.185 206.787 927.7C206.787 922.214 211.234 917.768 216.719 917.768C222.205 917.768 226.651 922.214 226.651 927.7C226.651 933.185 222.205 937.632 216.719 937.632Z" fill="#E99392"/>
<path d="M181.877 905.134C169.81 905.134 160.027 895.351 160.027 883.283C160.027 871.215 169.81 861.433 181.877 861.433C193.945 861.433 203.728 871.215 203.728 883.283C203.728 895.351 193.945 905.134 181.877 905.134Z" fill="#E99392"/>
<path d="M91.7734 925.713C79.7056 925.713 69.9227 915.93 69.9227 903.863C69.9227 891.795 79.7056 882.012 91.7734 882.012C103.841 882.012 113.624 891.795 113.624 903.863C113.624 915.93 103.841 925.713 91.7734 925.713Z" fill="#E99392"/>
</svg>
