<svg width="23" height="22" viewBox="0 0 23 22"  xmlns="http://www.w3.org/2000/svg">
<path d="M9.09478 0.610341L9.13392 0.623655H9.17375L9.21302 0.660957L9.26736 0.678415C9.50946 0.756195 9.72924 0.840975 9.93601 0.954697L9.94501 0.95965L9.9544 0.963848L10.3758 1.15239C10.4428 1.18892 10.5214 1.24295 10.6047 1.30295C10.6208 1.31452 10.6375 1.32668 10.6546 1.33905C10.7197 1.38639 10.7892 1.43685 10.8426 1.46943L10.8426 1.46945L10.8457 1.47132C10.8666 1.48363 10.887 1.49554 10.9068 1.50715C11.0037 1.56378 11.0885 1.61333 11.16 1.6682L11.3119 1.78463L11.4639 1.66844C12.6776 0.740957 14.1499 0.239439 15.6655 0.250175H15.6673C16.3578 0.250175 17.0432 0.347759 17.6918 0.565429L17.6941 0.566157C21.7 1.86855 23.1837 6.27903 21.957 10.1932C21.2567 12.2024 20.1126 14.0358 18.6152 15.5336C16.4443 17.6357 14.0621 19.5019 11.4978 21.1096L11.3477 21.2003L11.1837 21.0988C8.6103 19.5023 6.21432 17.6361 4.02276 15.5224C2.53495 14.024 1.38967 12.2014 0.678174 10.192C-0.568778 6.27996 0.913073 1.86852 4.96574 0.542252L4.96575 0.542281L4.96948 0.540995C5.27644 0.435148 5.59274 0.360553 5.91002 0.318228H6.02938H6.04752L6.06547 0.315609C6.37084 0.271053 6.67437 0.250175 6.97959 0.250175H7.10019C7.78694 0.271424 8.45114 0.391441 9.09478 0.610341ZM17.2718 3.34125L17.2719 3.34114L17.2644 3.33857C16.6665 3.13296 16.0192 3.45708 15.8052 4.05651L15.8051 4.05649L15.8034 4.06153C15.6028 4.66348 15.9167 5.32391 16.5204 5.53941C17.1437 5.77368 17.5666 6.3914 17.5666 7.08061V7.10589C17.5429 7.42447 17.6401 7.73493 17.8385 7.97595C18.0449 8.22652 18.3472 8.36479 18.6526 8.39395L18.6678 8.3954L18.683 8.39499C19.2753 8.3791 19.7763 7.90663 19.8193 7.302L19.82 7.29312V7.28423V7.15225C19.855 5.46448 18.832 3.9334 17.2718 3.34125Z" stroke="white" stroke-width="0.5"/>
</svg>
