<svg width="158" height="158" viewBox="0 0 158 158" fill="none" xmlns="http://www.w3.org/2000/svg">
<rect width="158" height="158" fill="#6DAFC6"/>
<path d="M28.0193 54.9053H33.5633V25.5053H28.3553C27.0953 27.9413 25.2473 29.2013 21.8453 29.2013V34.3253C24.5333 34.3253 26.3813 33.9473 28.0193 32.3513V54.9053Z" fill="white"/>
<path d="M142.552 106.346C140.561 106.346 138.89 107.574 138.214 109.294H82.1494C81.4739 107.574 79.8029 106.346 77.812 106.346C75.2167 106.346 73.1191 108.417 73.1191 110.979C73.1191 113.542 75.2167 115.613 77.812 115.613C79.8029 115.613 81.4739 114.385 82.1494 112.664H138.214C138.89 114.385 140.561 115.613 142.552 115.613C145.147 115.613 147.245 113.542 147.245 110.979C147.245 108.417 145.147 106.346 142.552 106.346Z" fill="white"/>
<path d="M105.507 78.999C105.507 80.9649 106.751 82.6148 108.493 83.2818V138.642C106.751 139.309 105.507 140.959 105.507 142.924C105.507 145.487 107.604 147.558 110.2 147.558C112.795 147.558 114.893 145.487 114.893 142.924C114.893 140.959 113.648 139.309 111.906 138.642V83.2818C113.648 82.6148 114.893 80.9649 114.893 78.999C114.893 76.4364 112.795 74.3652 110.2 74.3652C107.604 74.3652 105.507 76.4364 105.507 78.999Z" fill="white"/>
<path d="M129.753 85.1074C128.366 86.4765 128.046 88.5125 128.793 90.1975L89.1526 129.339C87.4461 128.602 85.3841 128.918 83.9975 130.287C82.1844 132.077 82.1844 135.026 83.9975 136.816C85.8107 138.607 88.797 138.607 90.6101 136.816C91.9966 135.447 92.3167 133.411 91.5701 131.726L131.21 92.5847C132.917 93.3219 134.979 93.0059 136.365 91.6368C138.179 89.8465 138.179 86.8977 136.365 85.1074C134.552 83.3171 131.566 83.3171 129.753 85.1074Z" fill="white"/>
<path d="M83.9624 91.6368C85.3489 93.0059 87.411 93.3219 89.1174 92.5847L128.758 131.726C128.011 133.411 128.331 135.447 129.717 136.816C131.531 138.607 134.517 138.607 136.33 136.816C138.143 135.026 138.143 132.077 136.33 130.287C134.944 128.918 132.882 128.602 131.175 129.339L91.5349 90.1975C92.2815 88.5125 91.9617 86.4765 90.5752 85.1074C88.762 83.3171 85.7755 83.3171 83.9624 85.1074C82.1493 86.8977 82.1493 89.8465 83.9624 91.6368Z" fill="white"/>
</svg>
