<svg viewBox="0 0 158 158" fill="none" xmlns="http://www.w3.org/2000/svg">
<path d="M0 0H158V158H0V0Z" fill="#247DA5"/>
<path d="M69.5578 103H59.6789V65.7695C56.0695 69.1445 51.8156 71.6406 46.9172 73.2578V64.293C49.4953 63.4492 52.2961 61.8555 55.3195 59.5117C58.343 57.1445 60.4172 54.3906 61.5422 51.25H69.5578V103ZM97.4578 51.25C102.45 51.25 106.352 53.0312 109.165 56.5938C112.516 60.8125 114.192 67.8086 114.192 77.582C114.192 87.332 112.505 94.3398 109.13 98.6055C106.341 102.121 102.45 103.879 97.4578 103.879C92.4422 103.879 88.3992 101.957 85.3289 98.1133C82.2586 94.2461 80.7234 87.3672 80.7234 77.4766C80.7234 67.7734 82.4109 60.7891 85.7859 56.5234C88.575 53.0078 92.4656 51.25 97.4578 51.25ZM97.4578 59.4414C96.2625 59.4414 95.1961 59.8281 94.2586 60.6016C93.3211 61.3516 92.5945 62.7109 92.0789 64.6797C91.3992 67.2344 91.0594 71.5352 91.0594 77.582C91.0594 83.6289 91.3641 87.7891 91.9734 90.0625C92.5828 92.3125 93.3445 93.8125 94.2586 94.5625C95.1961 95.3125 96.2625 95.6875 97.4578 95.6875C98.6531 95.6875 99.7195 95.3125 100.657 94.5625C101.595 93.7891 102.321 92.418 102.837 90.4492C103.516 87.918 103.856 83.6289 103.856 77.582C103.856 71.5352 103.552 67.3867 102.942 65.1367C102.333 62.8633 101.559 61.3516 100.622 60.6016C99.7078 59.8281 98.6531 59.4414 97.4578 59.4414Z" fill="white"/>
</svg>
