<svg viewBox="0 0 328 158" fill="none" xmlns="http://www.w3.org/2000/svg">
<rect width="328" height="158"/>
<path d="M61.5617 104H51.6828V66.7695C48.0734 70.1445 43.8195 72.6406 38.9211 74.2578V65.293C41.4992 64.4492 44.3 62.8555 47.3234 60.5117C50.3469 58.1445 52.4211 55.3906 53.5461 52.25H61.5617V104ZM94.032 104H84.1531V66.7695C80.5438 70.1445 76.2898 72.6406 71.3914 74.2578V65.293C73.9695 64.4492 76.7703 62.8555 79.7938 60.5117C82.8172 58.1445 84.8914 55.3906 86.0164 52.25H94.032V104Z" fill="#247DA5"/>
<g clip-path="url(#clip0_216_199)">
<path d="M269.348 93.5109C270.874 80.9199 272.411 68.3621 273.948 55.8043L276.73 48.2539C280.958 41.9037 285.108 35.7082 289.224 29.5238C290.425 27.7458 291.693 26.0012 292.718 24.1341C293.041 23.5486 293.011 22.4527 292.67 21.9202C292.318 21.4099 291.344 21.2516 290.603 21.072C290.338 20.9936 289.972 21.1694 289.662 21.2348C280.734 23.1083 271.828 25.0482 262.889 26.8884C254.97 28.5218 248.15 32.1513 242.331 37.7544C232.658 47.0968 222.997 56.417 213.302 65.7482C214.307 66.5596 240.922 87.4371 269.326 93.5551L269.348 93.5109Z" fill="#DF2D4F"/>
<path d="M268.893 97.2725C264.923 96.4067 236.875 89.6922 210.682 68.2516C208.039 70.7995 205.396 73.3474 202.764 75.8732C211.394 83.4957 232.47 99.2517 267.515 108.58C267.982 104.796 268.438 101.034 268.904 97.2504L268.893 97.2725Z" fill="#DF2D4F"/>
<path d="M281.034 124.211C278.975 121.094 276.471 118.417 273.79 115.874C255.674 111.783 240.872 106.01 229.16 100.104C207.391 89.1272 196.262 77.6664 194.244 75.4569C188.934 74.498 183.635 73.8491 178.24 74.9819C172.536 76.18 169.964 80.6763 172.048 86.107C172.531 87.3484 173.147 88.5459 173.851 89.6773C176.526 94.0475 180.111 97.6016 183.941 100.946C191.202 107.324 199.187 112.709 207.549 117.563C209.438 118.654 211.305 119.79 213.183 120.903L225.338 127.032C227.349 127.88 229.372 128.706 231.373 129.576C240.226 133.403 249.302 136.622 258.77 138.679C263.637 139.747 268.56 140.484 273.564 140.124C277.018 139.87 280.286 139.107 282.764 136.392L283.856 134.227C284.511 130.454 283.038 127.273 281.045 124.244L281.034 124.211Z" fill="#C13355"/>
<path d="M250.653 81.2268L235.647 73.6602L229.162 86.5221L244.167 94.0888L250.653 81.2268Z" fill="white"/>
<path d="M296.423 15.6344L295.525 22.8038L302.752 22.9834L297.025 27.4135L302.022 32.6218L294.852 31.723L294.695 38.9613L290.254 33.2569L285.023 38.2422L285.922 31.0727L278.695 30.8932L284.399 26.4519L279.414 21.2216L286.572 22.1425L286.752 14.9152L291.193 20.6196L296.423 15.6344Z" fill="white"/>
</g>
<defs>
<clipPath id="clip0_216_199">
<rect width="137" height="133" fill="white" transform="translate(171 10)"/>
</clipPath>
</defs>
</svg>
