<svg width="158" height="158" viewBox="0 0 158 158" fill="none" xmlns="http://www.w3.org/2000/svg">
<rect width="158" height="158" fill="#F9DB7A"/>
<path d="M69.0578 91H59.1789V53.7695C55.5695 57.1445 51.3156 59.6406 46.4172 61.2578V52.293C48.9953 51.4492 51.7961 49.8555 54.8195 47.5117C57.843 45.1445 59.9172 42.3906 61.0422 39.25H69.0578V91ZM113.622 81.8242V91H78.993C79.368 87.5312 80.493 84.25 82.368 81.1562C84.243 78.0391 87.9461 73.9141 93.4773 68.7812C97.9305 64.6328 100.661 61.8203 101.669 60.3438C103.028 58.3047 103.708 56.2891 103.708 54.2969C103.708 52.0938 103.11 50.4062 101.915 49.2344C100.743 48.0391 99.1141 47.4414 97.0281 47.4414C94.9656 47.4414 93.325 48.0625 92.1063 49.3047C90.8875 50.5469 90.1844 52.6094 89.9969 55.4922L80.1531 54.5078C80.7391 49.0703 82.5789 45.168 85.6727 42.8008C88.7664 40.4336 92.6336 39.25 97.2742 39.25C102.36 39.25 106.356 40.6211 109.263 43.3633C112.169 46.1055 113.622 49.5156 113.622 53.5938C113.622 55.9141 113.2 58.1289 112.356 60.2383C111.536 62.3242 110.223 64.5156 108.419 66.8125C107.223 68.3359 105.067 70.5273 101.95 73.3867C98.8328 76.2461 96.8523 78.1445 96.0086 79.082C95.1883 80.0195 94.5203 80.9336 94.0047 81.8242H113.622Z" fill="#247DA5"/>
</svg>
