<svg width="158" height="158" viewBox="0 0 158 158" fill="none" xmlns="http://www.w3.org/2000/svg">
<rect width="158" height="158" fill="#6DAFC6"/>
<path d="M69.0578 91H59.1789V53.7695C55.5695 57.1445 51.3156 59.6406 46.4172 61.2578V52.293C48.9953 51.4492 51.7961 49.8555 54.8195 47.5117C57.843 45.1445 59.9172 42.3906 61.0422 39.25H69.0578V91ZM79.907 77.3242L89.4695 76.1641C89.7742 78.6016 90.5945 80.4648 91.9305 81.7539C93.2664 83.043 94.8836 83.6875 96.782 83.6875C98.8211 83.6875 100.532 82.9141 101.915 81.3672C103.321 79.8203 104.024 77.7344 104.024 75.1094C104.024 72.625 103.356 70.6562 102.02 69.2031C100.684 67.75 99.0555 67.0234 97.1336 67.0234C95.868 67.0234 94.3563 67.2695 92.5984 67.7617L93.6883 59.7109C96.3602 59.7812 98.3992 59.207 99.8055 57.9883C101.212 56.7461 101.915 55.1055 101.915 53.0664C101.915 51.332 101.399 49.9492 100.368 48.918C99.3367 47.8867 97.9656 47.3711 96.2547 47.3711C94.5672 47.3711 93.1258 47.957 91.9305 49.1289C90.7352 50.3008 90.0086 52.0117 89.7508 54.2617L80.6453 52.7148C81.2781 49.5977 82.2273 47.1133 83.493 45.2617C84.782 43.3867 86.5633 41.9219 88.8367 40.8672C91.1336 39.7891 93.7 39.25 96.5359 39.25C101.388 39.25 105.278 40.7969 108.208 43.8906C110.622 46.4219 111.829 49.2812 111.829 52.4688C111.829 56.9922 109.356 60.6016 104.411 63.2969C107.364 63.9297 109.72 65.3477 111.477 67.5508C113.259 69.7539 114.149 72.4141 114.149 75.5312C114.149 80.0547 112.497 83.9102 109.192 87.0977C105.888 90.2852 101.774 91.8789 96.8523 91.8789C92.1883 91.8789 88.3211 90.543 85.2508 87.8711C82.1805 85.1758 80.3992 81.6602 79.907 77.3242Z" fill="white"/>
</svg>
