<svg  viewBox="0 0 158 158" fill="none" xmlns="http://www.w3.org/2000/svg">
<rect width="158" height="158" rx="20" fill="#F9DB7A"/>
<path d="M129.341 45H134.885V15.6H129.677C128.417 18.036 126.569 19.296 123.167 19.296V24.42C125.855 24.42 127.703 24.042 129.341 22.446V45ZM132.645 101H138.189V96.128H141.171V91.004H138.189V71.6H132.645L118.323 91.004V96.128H132.645V101ZM124.203 91.004L132.645 79.412V91.004H124.203Z" fill="#247DA5"/>
<path d="M87.448 57.1139C84.7413 60.0064 82.2493 62.8474 79.5598 65.4995C76.2257 68.7868 72.4191 71.4905 68.3632 73.8509C67.6243 74.28 66.9282 74.5118 66.3783 73.6449C65.8284 72.7694 66.3439 72.2115 67.0829 71.7995C75.1602 67.302 81.3471 60.7445 86.9754 53.5948C87.2676 53.2257 87.4136 52.6592 87.4222 52.1872C87.4566 48.6939 87.448 45.2005 87.4394 41.7072C87.4394 40.806 87.4824 39.8704 88.6252 39.8533C89.7595 39.8361 89.8712 40.7459 89.8626 41.6643C89.8454 44.9173 89.9056 48.1703 89.8368 51.4233C89.811 52.582 90.129 53.4489 90.8766 54.3415C94.7777 59.0021 98.6359 63.6971 103.585 67.3363C105.785 68.9499 108.114 70.3919 110.382 71.9197C111.018 72.3488 111.388 72.8981 110.941 73.6449C110.503 74.3658 109.858 74.4002 109.162 73.9968C108.99 73.8938 108.818 73.7908 108.647 73.6878C102.503 70.0915 97.1751 65.5596 92.6037 60.1179C91.7788 59.1309 90.9281 58.1696 90.0946 57.1911C90.0774 57.1739 90.0259 57.1911 89.8712 57.2083C89.8712 59.3025 89.8626 61.414 89.8884 63.5254C89.8884 63.7743 90.0688 64.049 90.2407 64.255C94.7863 69.8511 99.4265 75.3529 105.45 79.4814C106.971 80.5285 108.552 81.4984 110.116 82.4854C110.855 82.9489 111.517 83.4811 110.932 84.408C110.357 85.3264 109.575 84.9659 108.827 84.5368C101.824 80.5027 95.9807 75.1641 90.9539 68.8898C90.6789 68.5465 90.3868 68.2289 89.8884 67.6453C89.8884 70.1001 89.8884 72.2802 89.9056 74.4603C89.9056 74.6319 90.0774 74.8122 90.1977 74.9667C94.8121 80.6057 99.4952 86.1847 105.596 90.3389C107.091 91.3518 108.629 92.3131 110.159 93.2744C110.864 93.7121 111.482 94.2185 110.967 95.1026C110.425 96.0295 109.669 95.7806 108.887 95.3257C102.15 91.4376 96.4275 86.3736 91.5468 80.3482C91.0742 79.7646 90.5758 79.1981 89.8798 78.3741C89.8798 80.8203 89.8712 82.9575 89.897 85.1033C89.897 85.3178 90.0602 85.5496 90.2063 85.7298C94.7262 91.2402 99.2804 96.7162 105.218 100.81C106.739 101.857 108.303 102.853 109.858 103.849C110.614 104.329 111.577 104.767 110.941 105.866C110.314 106.964 109.454 106.406 108.664 105.943C102.15 102.158 96.5994 97.2569 91.839 91.4547C91.2632 90.7509 90.6789 90.0643 89.8712 89.103C89.8712 91.7552 89.8368 94.064 89.9056 96.3728C89.9142 96.7333 90.318 97.1196 90.6188 97.42C95.4823 102.287 100.354 107.145 105.227 111.994C112.737 119.461 113.141 130.422 106.189 138.387C100.793 144.567 95.4222 150.764 90.0344 156.952C88.883 158.274 88.4276 158.274 87.2675 156.935C81.8025 150.661 76.3116 144.404 70.8895 138.087C64.2473 130.353 64.6769 119.478 71.8691 112.234C76.7155 107.351 81.5877 102.501 86.4942 97.6775C87.2246 96.9651 87.5082 96.2527 87.4738 95.257C87.405 93.3344 87.4566 91.4118 87.4566 89.1974C87.0098 89.6952 86.7176 89.987 86.4598 90.3132C81.4588 96.5445 75.6672 101.892 68.7155 105.917C68.5093 106.037 68.3031 106.175 68.0969 106.286C67.3837 106.698 66.765 106.595 66.3439 105.866C65.9486 105.179 66.2236 104.63 66.8423 104.226C68.5007 103.162 70.1935 102.149 71.8176 101.033C77.317 97.2569 81.6908 92.3302 85.9271 87.249C87.0184 85.9358 87.6628 84.6741 87.491 82.9403C87.3535 81.5499 87.4652 80.1337 87.4652 78.3999C86.8895 79.0694 86.477 79.5157 86.0989 79.9963C81.2182 86.0732 75.5125 91.2144 68.7499 95.154C68.6812 95.197 68.6124 95.2313 68.5437 95.2742C67.7789 95.7635 66.9712 96.1669 66.3783 95.1369C65.7682 94.0897 66.6275 93.6434 67.3493 93.1714C69.1968 91.9611 71.0786 90.7938 72.8831 89.515C78.5372 85.5153 82.8594 80.2023 87.1988 74.9152C87.3793 74.692 87.4566 74.3315 87.4652 74.0397C87.491 72.0312 87.4738 70.0314 87.4738 67.6968C87.027 68.1946 86.7434 68.4864 86.4942 68.804C81.7509 74.7092 76.3116 79.8504 69.7897 83.7986C69.5147 83.9617 69.2225 84.2707 68.9562 84.2535C68.4578 84.2192 67.7446 84.1505 67.5297 83.8244C67.3149 83.4982 67.5727 82.8373 67.6758 82.3309C67.7016 82.2108 67.9078 82.1164 68.0453 82.0391C74.9798 77.9536 80.5307 72.366 85.5919 66.1948C86.9152 64.5811 87.7573 63.0448 87.4996 60.9247C87.3535 59.7145 87.4738 58.4614 87.4738 57.1482L87.448 57.1139Z" fill="#DD2E4F"/>
<path d="M71.0953 125.659C71.1554 122.02 72.3069 118.767 74.8503 116.149C79.0351 111.857 83.3143 107.669 87.5506 103.429C88.2896 102.691 88.9942 102.682 89.7418 103.429C93.9523 107.634 98.2487 111.763 102.348 116.072C107.34 121.316 107.555 129.084 102.906 134.62C98.6096 139.727 94.1757 144.713 89.7933 149.752C88.9684 150.696 88.3154 150.704 87.4905 149.752C83.0823 144.688 78.657 139.641 74.2918 134.542C72.1178 132.01 71.1296 128.989 71.0867 125.667L71.0953 125.659Z" fill="#519ACF"/>
<path d="M77.2225 125.213C77.2741 120.157 80.5652 115.805 85.4201 114.372C90.1806 112.956 95.3707 114.827 98.1548 118.955C100.965 123.127 100.758 128.646 97.5275 132.517C95.0012 135.538 92.3803 138.473 89.7767 141.435C89.0119 142.31 88.3073 142.319 87.5512 141.46C84.8702 138.413 82.1634 135.383 79.577 132.259C77.91 130.251 77.171 127.839 77.2225 125.213V125.213Z" fill="#F9DB7A"/>
<path d="M36.415 140.739C39.1217 137.847 41.6137 135.006 44.3032 132.354C47.6373 129.066 51.4439 126.363 55.4997 124.002C56.2387 123.573 56.9347 123.341 57.4847 124.208C58.0346 125.084 57.5191 125.642 56.7801 126.054C48.7028 130.551 42.5159 137.109 36.8876 144.258C36.5954 144.627 36.4493 145.194 36.4408 145.666C36.4064 149.159 36.415 152.653 36.4236 156.146C36.4236 157.047 36.3806 157.983 35.2377 158C34.1035 158.017 33.9918 157.107 34.0004 156.189C34.0176 152.936 33.9574 149.683 34.0262 146.43C34.0519 145.271 33.734 144.404 32.9864 143.512C29.0853 138.851 25.2271 134.156 20.2776 130.517C18.0778 128.903 15.7491 127.461 13.4806 125.933C12.8447 125.504 12.4752 124.955 12.9221 124.208C13.3603 123.487 14.0048 123.453 14.7008 123.856C14.8727 123.959 15.0445 124.062 15.2164 124.165C21.3603 127.762 26.6878 132.293 31.2593 137.735C32.0842 138.722 32.9349 139.683 33.7684 140.662C33.7856 140.679 33.8371 140.662 33.9918 140.645C33.9918 138.551 34.0004 136.439 33.9746 134.328C33.9746 134.079 33.7941 133.804 33.6223 133.598C29.0767 128.002 24.4365 122.5 18.4129 118.372C16.892 117.325 15.3109 116.355 13.747 115.368C13.008 114.904 12.3464 114.372 12.9307 113.445C13.5064 112.527 14.2883 112.887 15.0359 113.316C22.0391 117.35 27.8823 122.689 32.9091 128.963C33.1841 129.307 33.4762 129.624 33.9746 130.208C33.9746 127.753 33.9746 125.573 33.9574 123.393C33.9574 123.221 33.7856 123.041 33.6653 122.886C29.0509 117.247 24.3678 111.668 18.2668 107.514C16.7717 106.501 15.2336 105.54 13.704 104.579C12.9994 104.141 12.3807 103.635 12.8963 102.75C13.4376 101.824 14.1938 102.072 14.9758 102.527C21.7126 106.415 27.4354 111.479 32.3162 117.505C32.7888 118.088 33.2872 118.655 33.9832 119.479C33.9832 117.033 33.9918 114.896 33.966 112.75C33.966 112.535 33.8027 112.303 33.6567 112.123C29.1368 106.613 24.5826 101.137 18.6449 97.0428C17.124 95.9956 15.5601 95 14.0048 94.0043C13.2486 93.5237 12.2862 93.086 12.9221 91.9873C13.5494 90.8887 14.4086 91.4466 15.1992 91.9101C21.7126 95.6952 27.2636 100.596 32.024 106.398C32.5997 107.102 33.1841 107.789 33.9918 108.75C33.9918 106.098 34.0262 103.789 33.9574 101.48C33.9488 101.12 33.545 100.733 33.2442 100.433C28.3806 95.5665 23.5085 90.7084 18.6363 85.859C11.1262 78.3917 10.7223 67.4311 17.6739 59.466C23.0703 53.2862 28.4408 47.0892 33.8285 40.9008C34.98 39.5791 35.4354 39.5791 36.5954 40.918C42.0605 47.1922 47.5513 53.4493 52.9734 59.7665C59.6157 67.4998 59.1861 78.3746 51.9938 85.6187C47.1475 90.5025 42.2753 95.3519 37.3688 100.176C36.6384 100.888 36.3548 101.6 36.3892 102.596C36.4579 104.519 36.4064 106.441 36.4064 108.656C36.8532 108.158 37.1454 107.866 37.4032 107.54C42.4042 101.309 48.1958 95.9613 55.1474 91.9358C55.3537 91.8157 55.5599 91.6783 55.7661 91.5667C56.4793 91.1548 57.098 91.2578 57.5191 91.9873C57.9143 92.674 57.6394 93.2233 57.0207 93.6267C55.3622 94.691 53.6694 95.7038 52.0454 96.8196C46.546 100.596 42.1722 105.523 37.9359 110.604C36.8446 111.917 36.2002 113.179 36.372 114.913C36.5095 116.303 36.3978 117.719 36.3978 119.453C36.9735 118.784 37.386 118.337 37.7641 117.857C42.6448 111.78 48.3505 106.639 55.113 102.699C55.1818 102.656 55.2505 102.622 55.3193 102.579C56.084 102.09 56.8918 101.686 57.4847 102.716C58.0948 103.763 57.2355 104.21 56.5137 104.682C54.6662 105.892 52.7844 107.059 50.9799 108.338C45.3258 112.338 41.0036 117.651 36.6642 122.938C36.4837 123.161 36.4064 123.522 36.3978 123.813C36.372 125.822 36.3892 127.822 36.3892 130.156C36.836 129.658 37.1196 129.367 37.3688 129.049C42.112 123.144 47.5513 118.003 54.0733 114.054C54.3483 113.891 54.6404 113.582 54.9068 113.6C55.4052 113.634 56.1184 113.703 56.3332 114.029C56.5481 114.355 56.2903 115.016 56.1872 115.522C56.1614 115.642 55.9551 115.737 55.8177 115.814C48.8832 119.899 43.3322 125.487 38.271 131.658C36.9477 133.272 36.1056 134.808 36.3634 136.928C36.5095 138.139 36.3892 139.392 36.3892 140.705L36.415 140.739Z" fill="#519ACF"/>
<path d="M52.759 72.1954C52.6988 75.8346 51.5474 79.0876 49.0039 81.7055C44.8192 85.997 40.5399 90.1855 36.3036 94.4256C35.5647 95.1637 34.86 95.1723 34.1125 94.4256C29.902 90.2199 25.6055 86.0914 21.5067 81.7827C16.5143 76.5385 16.2995 68.7708 20.9482 63.2347C25.2446 58.1278 29.6785 53.141 34.0609 48.1027C34.8858 47.1586 35.5389 47.15 36.3638 48.1027C40.7719 53.1667 45.1973 58.2136 49.5624 63.3119C51.7364 65.8439 52.7246 68.8652 52.7676 72.1868L52.759 72.1954Z" fill="#DD2E4F"/>
<path d="M46.641 72.6404C46.5895 77.6958 43.2984 82.0474 38.4434 83.4808C33.683 84.897 28.4929 83.0259 25.7088 78.8974C22.8989 74.726 23.1052 69.2071 26.3361 65.3362C28.8624 62.3149 31.4832 59.3795 34.0869 56.4183C34.8516 55.5429 35.5562 55.5343 36.3124 56.3926C38.9934 59.4396 41.7001 62.4694 44.2866 65.5937C45.9536 67.6021 46.6926 70.0139 46.641 72.6404V72.6404Z" fill="#F9DB7A"/>
</svg>
