<svg width="328" height="158" viewBox="0 0 328 158" fill="none" xmlns="http://www.w3.org/2000/svg">
<rect width="328" height="158" fill="#DF2D4F"/>
<path d="M45.7548 63.5868C50.4594 63.5868 54.2733 59.7729 54.2733 55.0683C54.2733 50.3637 50.4594 46.5498 45.7548 46.5498C41.0502 46.5498 37.2363 50.3637 37.2363 55.0683C37.2363 59.7729 41.0502 63.5868 45.7548 63.5868Z" fill="white"/>
<path d="M109.838 111.64C112.468 111.64 114.6 109.507 114.6 106.877C114.6 104.247 112.468 102.115 109.838 102.115C107.208 102.115 105.076 104.247 105.076 106.877C105.076 109.507 107.208 111.64 109.838 111.64Z" fill="white"/>
<path d="M99.5752 59.379L93.2325 78.0992L105.056 93.9457L85.2888 93.6788L73.876 109.833L68.0055 90.9488L49.1416 85.0782L65.2754 73.6655L65.0291 53.8984L80.8756 65.7217L99.5752 59.379Z" fill="#E99392"/>
<path d="M87.3414 71.6133L84.8372 79.0233L89.5172 85.2839L81.6966 85.1813L77.1808 91.565L74.8613 84.0933L67.4102 81.7739L73.7939 77.2581L73.6913 69.458L79.9518 74.1175L87.3414 71.6133Z" fill="#123845"/>
<path d="M8.15039 152.959L77.961 83.1484L75.8057 81.0137L8.15039 148.69V152.959Z" fill="#123845"/>
<path d="M240.558 94H230.679V56.7695C227.07 60.1445 222.816 62.6406 217.917 64.2578V55.293C220.495 54.4492 223.296 52.8555 226.32 50.5117C229.343 48.1445 231.417 45.3906 232.542 42.25H240.558V94ZM251.899 80.7461L261.743 79.7266C262.024 81.9531 262.856 83.7227 264.239 85.0352C265.622 86.3242 267.216 86.9688 269.02 86.9688C271.083 86.9688 272.829 86.1367 274.259 84.4727C275.688 82.7852 276.403 80.2539 276.403 76.8789C276.403 73.7148 275.688 71.3477 274.259 69.7773C272.852 68.1836 271.013 67.3867 268.739 67.3867C265.903 67.3867 263.36 68.6406 261.11 71.1484L253.095 69.9883L258.157 43.1641H284.278V52.4102H265.645L264.098 61.1641C266.302 60.0625 268.552 59.5117 270.848 59.5117C275.231 59.5117 278.946 61.1055 281.993 64.293C285.04 67.4805 286.563 71.6172 286.563 76.7031C286.563 80.9453 285.333 84.7305 282.872 88.0586C279.52 92.6055 274.868 94.8789 268.915 94.8789C264.157 94.8789 260.278 93.6016 257.278 91.0469C254.278 88.4922 252.485 85.0586 251.899 80.7461Z" fill="white"/>
</svg>
