<svg width="158" height="328" viewBox="0 0 158 328" fill="none" xmlns="http://www.w3.org/2000/svg">
<rect width="158" height="328" fill="#6DAFC6"/>
<path d="M69.0578 180H59.1789V142.77C55.5695 146.145 51.3156 148.641 46.4172 150.258V141.293C48.9953 140.449 51.7961 138.855 54.8195 136.512C57.843 134.145 59.9172 131.391 61.0422 128.25H69.0578V180ZM113.727 141.082L104.165 142.137C103.93 140.168 103.321 138.715 102.337 137.777C101.352 136.84 100.075 136.371 98.5047 136.371C96.4188 136.371 94.6492 137.309 93.1961 139.184C91.7664 141.059 90.8641 144.961 90.4891 150.891C92.95 147.984 96.0086 146.531 99.6648 146.531C103.79 146.531 107.317 148.102 110.247 151.242C113.2 154.383 114.677 158.438 114.677 163.406C114.677 168.68 113.13 172.91 110.036 176.098C106.942 179.285 102.97 180.879 98.118 180.879C92.9148 180.879 88.6375 178.863 85.2859 174.832C81.9344 170.777 80.2586 164.145 80.2586 154.934C80.2586 145.488 82.0047 138.68 85.4969 134.508C88.9891 130.336 93.5242 128.25 99.1023 128.25C103.016 128.25 106.251 129.352 108.805 131.555C111.384 133.734 113.024 136.91 113.727 141.082ZM91.3328 162.633C91.3328 165.844 92.0711 168.328 93.5477 170.086C95.0242 171.82 96.7117 172.688 98.6102 172.688C100.438 172.688 101.962 171.973 103.18 170.543C104.399 169.113 105.009 166.77 105.009 163.512C105.009 160.16 104.352 157.711 103.04 156.164C101.727 154.594 100.087 153.809 98.118 153.809C96.2195 153.809 94.6141 154.559 93.3016 156.059C91.9891 157.535 91.3328 159.727 91.3328 162.633Z" fill="white"/>
</svg>
