<svg viewBox="0 0 328 158" fill="none" xmlns="http://www.w3.org/2000/svg">
<rect width="328" height="158" fill="#E99392"/>
<path d="M145.058 93H135.179V55.7695C131.57 59.1445 127.316 61.6406 122.417 63.2578V54.293C124.995 53.4492 127.796 51.8555 130.82 49.5117C133.843 47.1445 135.917 44.3906 137.042 41.25H145.058V93ZM164.731 65.1914C162.177 64.1133 160.313 62.6367 159.141 60.7617C157.993 58.8633 157.419 56.7891 157.419 54.5391C157.419 50.6953 158.755 47.5195 161.427 45.0117C164.122 42.5039 167.942 41.25 172.888 41.25C177.786 41.25 181.583 42.5039 184.278 45.0117C186.997 47.5195 188.356 50.6953 188.356 54.5391C188.356 56.9297 187.735 59.0625 186.493 60.9375C185.251 62.7891 183.505 64.207 181.255 65.1914C184.114 66.3398 186.282 68.0156 187.759 70.2188C189.259 72.4219 190.009 74.9648 190.009 77.8477C190.009 82.6055 188.485 86.4727 185.438 89.4492C182.415 92.4258 178.384 93.9141 173.345 93.9141C168.657 93.9141 164.755 92.6836 161.638 90.2227C157.958 87.3164 156.118 83.332 156.118 78.2695C156.118 75.4805 156.809 72.9258 158.192 70.6055C159.575 68.2617 161.755 66.457 164.731 65.1914ZM166.77 55.2422C166.77 57.2109 167.321 58.7461 168.423 59.8477C169.548 60.9492 171.036 61.5 172.888 61.5C174.763 61.5 176.263 60.9492 177.388 59.8477C178.513 58.7227 179.075 57.1758 179.075 55.207C179.075 53.3555 178.513 51.8789 177.388 50.7773C176.286 49.6523 174.821 49.0898 172.993 49.0898C171.095 49.0898 169.583 49.6523 168.458 50.7773C167.333 51.9023 166.77 53.3906 166.77 55.2422ZM165.856 77.3203C165.856 80.0391 166.548 82.1602 167.93 83.6836C169.337 85.207 171.083 85.9688 173.169 85.9688C175.208 85.9688 176.895 85.2422 178.231 83.7891C179.567 82.3125 180.235 80.1914 180.235 77.4258C180.235 75.0117 179.555 73.0781 178.196 71.625C176.837 70.1484 175.114 69.4102 173.028 69.4102C170.614 69.4102 168.809 70.2422 167.614 71.9062C166.442 73.5703 165.856 75.375 165.856 77.3203Z" fill="white"/>
</svg>
