<svg viewBox="0 0 158 158" fill="none" xmlns="http://www.w3.org/2000/svg">
<rect width="158" height="158"/>
<path d="M103.134 56H108.678V26.6H103.47C102.21 29.036 100.362 30.296 96.9603 30.296V35.42C99.6483 35.42 101.496 35.042 103.134 33.446V56ZM123.99 56.588C128.778 56.588 132.474 54.026 134.28 49.448C135.288 46.886 136.044 43.694 136.044 39.578C136.044 30.968 132.012 26.012 124.578 26.012C118.152 26.012 113.658 30.338 113.658 36.05C113.658 41.762 117.9 45.836 124.032 45.836C127.392 45.836 129.576 44.366 130.794 42.77C130.5 49.196 127.854 52.304 124.158 52.304C121.806 52.304 119.748 51.128 119.748 49.07C119.748 48.818 119.748 48.692 119.79 48.482L114.498 48.02C114.456 48.314 114.414 48.776 114.414 49.238C114.414 53.228 117.732 56.588 123.99 56.588ZM124.704 41.3C121.764 41.3 119.034 39.326 119.034 35.924C119.034 32.522 121.764 30.548 124.704 30.548C127.644 30.548 130.248 32.522 130.248 35.924C130.248 39.326 127.644 41.3 124.704 41.3Z" fill="white"/>
<path d="M31.2114 144.681C43.1661 144.681 52.8573 134.989 52.8573 123.035C52.8573 111.08 43.1661 101.389 31.2114 101.389C19.2567 101.389 9.56543 111.08 9.56543 123.035C9.56543 134.989 19.2567 144.681 31.2114 144.681Z" fill="#F9DB7A"/>
<path d="M31.2113 134.515C37.5519 134.515 42.692 129.375 42.692 123.034C42.692 116.694 37.5519 111.554 31.2113 111.554C24.8706 111.554 19.7305 116.694 19.7305 123.034C19.7305 129.375 24.8706 134.515 31.2113 134.515Z" fill="#DD2E4F"/>
<path d="M78.3296 144.681C90.2843 144.681 99.9755 134.989 99.9755 123.035C99.9755 111.08 90.2843 101.389 78.3296 101.389C66.3748 101.389 56.6836 111.08 56.6836 123.035C56.6836 134.989 66.3748 144.681 78.3296 144.681Z" fill="#F9DB7A"/>
<path d="M78.3294 134.515C84.6701 134.515 89.8102 129.375 89.8102 123.034C89.8102 116.694 84.6701 111.554 78.3294 111.554C71.9888 111.554 66.8486 116.694 66.8486 123.034C66.8486 129.375 71.9888 134.515 78.3294 134.515Z" fill="#DD2E4F"/>
<path d="M125.448 144.681C137.402 144.681 147.094 134.989 147.094 123.035C147.094 111.08 137.402 101.389 125.448 101.389C113.493 101.389 103.802 111.08 103.802 123.035C103.802 134.989 113.493 144.681 125.448 144.681Z" fill="#F9DB7A"/>
<path d="M125.448 134.515C131.788 134.515 136.928 129.375 136.928 123.034C136.928 116.694 131.788 111.554 125.448 111.554C119.107 111.554 113.967 116.694 113.967 123.034C113.967 129.375 119.107 134.515 125.448 134.515Z" fill="#DD2E4F"/>
</svg>
