<svg viewBox="0 0 158 158" fill="none" xmlns="http://www.w3.org/2000/svg">
<rect width="158" height="158"/>
<path d="M100.344 103.766V116H54.1719C54.6719 111.375 56.1719 107 58.6719 102.875C61.1719 98.7188 66.1094 93.2188 73.4844 86.375C79.4219 80.8438 83.0625 77.0938 84.4062 75.125C86.2188 72.4062 87.125 69.7188 87.125 67.0625C87.125 64.125 86.3281 61.875 84.7344 60.3125C83.1719 58.7188 81 57.9219 78.2188 57.9219C75.4688 57.9219 73.2812 58.75 71.6562 60.4062C70.0312 62.0625 69.0938 64.8125 68.8438 68.6562L55.7188 67.3438C56.5 60.0938 58.9531 54.8906 63.0781 51.7344C67.2031 48.5781 72.3594 47 78.5469 47C85.3281 47 90.6562 48.8281 94.5312 52.4844C98.4062 56.1406 100.344 60.6875 100.344 66.125C100.344 69.2188 99.7812 72.1719 98.6562 74.9844C97.5625 77.7656 95.8125 80.6875 93.4062 83.75C91.8125 85.7812 88.9375 88.7031 84.7812 92.5156C80.625 96.3281 77.9844 98.8594 76.8594 100.109C75.7656 101.359 74.875 102.578 74.1875 103.766H100.344Z" fill="white"/>
</svg>
