<svg width="328" height="158" viewBox="0 0 328 158" fill="none" xmlns="http://www.w3.org/2000/svg">
<rect width="328" height="158" fill="#F9DB7A"/>
<path d="M141.114 158L119.242 120.054H134.078L112.02 81.785H123.278L96.0654 34.5264L68.8363 81.785H80.0942L58.0362 120.054H72.8715L51 158H141.114Z" fill="#E99392"/>
<mask id="mask0_216_211" style="mask-type:alpha" maskUnits="userSpaceOnUse" x="51" y="34" width="91" height="124">
<path d="M141.114 157.999L119.242 120.053H134.078L112.02 81.7841H123.278L96.0654 34.5254L68.8363 81.7841H80.0942L58.0362 120.053H72.8715L51 157.999H141.114Z" fill="#E99392"/>
</mask>
<g mask="url(#mask0_216_211)">
<path d="M115.988 68.1043C113.173 68.1043 110.63 66.8128 108.985 64.7226C107.341 66.7958 104.815 68.1043 101.983 68.1043C99.1518 68.1043 96.6256 66.8128 94.981 64.7226C93.3364 66.7958 90.8101 68.1043 87.9787 68.1043C85.1473 68.1043 82.621 66.8128 80.9764 64.7226C79.3318 66.7958 76.8056 68.1043 73.9742 68.1043C69.0404 68.1043 65.0391 64.0938 65.0391 59.1488C65.0391 58.1292 65.8698 57.3135 66.8702 57.3135C67.8705 57.3135 68.7013 58.1462 68.7013 59.1488C68.7013 62.0546 71.058 64.4167 73.9572 64.4167C76.5513 64.4167 78.7384 62.5474 79.1453 59.9814C79.281 59.0808 80.0609 58.435 80.9595 58.435C81.8581 58.435 82.638 59.0978 82.7736 59.9814C83.1805 62.5474 85.3677 64.4167 87.9617 64.4167C90.5558 64.4167 92.7429 62.5474 93.1499 59.9814C93.2855 59.0808 94.0654 58.435 94.964 58.435C95.8626 58.435 96.6425 59.0978 96.7782 59.9814C97.1851 62.5474 99.3722 64.4167 101.966 64.4167C104.56 64.4167 106.747 62.5474 107.154 59.9814C107.29 59.0808 108.07 58.435 108.969 58.435C109.867 58.435 110.647 59.0978 110.783 59.9814C111.19 62.5474 113.377 64.4167 115.971 64.4167C118.87 64.4167 121.227 62.0546 121.227 59.1488C121.227 58.1292 122.058 57.3135 123.058 57.3135C124.058 57.3135 124.889 58.1462 124.889 59.1488C124.889 64.0938 120.888 68.1043 115.954 68.1043H115.988Z" fill="#247DA5"/>
<path d="M121.057 107.835C117.683 107.835 114.649 106.289 112.682 103.791C110.715 106.289 107.68 107.835 104.306 107.835C100.932 107.835 97.8974 106.272 95.9306 103.791C93.9639 106.289 90.929 107.835 87.555 107.835C84.1811 107.835 81.1462 106.272 79.1794 103.791C77.2127 106.289 74.1778 107.835 70.8038 107.835C64.9036 107.835 60.1055 103.026 60.1055 97.1125C60.1055 95.8889 61.0888 94.9033 62.3096 94.9033C63.5303 94.9033 64.5137 95.8889 64.5137 97.1125C64.5137 100.596 67.3451 103.417 70.8038 103.417C73.9065 103.417 76.5176 101.191 77.0092 98.1151C77.1788 97.0445 78.0943 96.2628 79.1794 96.2628C80.2645 96.2628 81.1801 97.0445 81.3496 98.1151C81.8413 101.191 84.4523 103.417 87.555 103.417C90.6577 103.417 93.2687 101.191 93.7604 98.1151C93.93 97.0445 94.8455 96.2628 95.9306 96.2628C97.0157 96.2628 97.9313 97.0445 98.1008 98.1151C98.5925 101.191 101.204 103.417 104.306 103.417C107.409 103.417 110.02 101.191 110.512 98.1151C110.681 97.0445 111.597 96.2628 112.682 96.2628C113.767 96.2628 114.682 97.0445 114.852 98.1151C115.344 101.191 117.955 103.417 121.057 103.417C124.533 103.417 127.348 100.579 127.348 97.1125C127.348 95.8889 128.331 94.9033 129.552 94.9033C130.772 94.9033 131.756 95.8889 131.756 97.1125C131.756 103.026 126.958 107.835 121.057 107.835V107.835Z" fill="#DF2D4F"/>
<path d="M125.414 144.761C121.566 144.761 118.124 142.994 115.886 140.173C113.648 142.994 110.206 144.761 106.357 144.761C102.509 144.761 99.0669 142.994 96.8289 140.156C94.5909 142.994 91.1491 144.761 87.3004 144.761C83.4517 144.761 80.0099 142.994 77.7719 140.173C75.5339 142.994 72.0921 144.761 68.2434 144.761C61.5463 144.761 56.0869 139.29 56.0869 132.577C56.0869 131.201 57.2059 130.079 58.5792 130.079C59.9526 130.079 61.0716 131.201 61.0716 132.577C61.0716 136.537 64.276 139.748 68.2264 139.748C71.753 139.748 74.7201 137.216 75.2796 133.716C75.4661 132.492 76.5173 131.609 77.7549 131.609C78.9926 131.609 80.0269 132.509 80.2303 133.716C80.7898 137.216 83.7569 139.748 87.2835 139.748C90.81 139.748 93.7771 137.216 94.3366 133.716C94.5231 132.492 95.5743 131.609 96.812 131.609C98.0497 131.609 99.0839 132.509 99.2873 133.716C99.8468 137.216 102.814 139.748 106.34 139.748C109.867 139.748 112.834 137.216 113.394 133.716C113.58 132.492 114.631 131.609 115.869 131.609C117.107 131.609 118.141 132.509 118.344 133.716C118.904 137.216 121.871 139.748 125.397 139.748C129.348 139.748 132.552 136.537 132.552 132.577C132.552 131.201 133.671 130.079 135.045 130.079C136.418 130.079 137.537 131.201 137.537 132.577C137.537 139.29 132.078 144.761 125.381 144.761H125.414Z" fill="#247DA5"/>
</g>
<path d="M96.0991 35.2561C101.68 35.2561 106.204 30.7216 106.204 25.1281C106.204 19.5345 101.68 15 96.0991 15C90.5183 15 85.9941 19.5345 85.9941 25.1281C85.9941 30.7216 90.5183 35.2561 96.0991 35.2561Z" fill="white"/>
<path d="M225.644 85.8242V95H191.015C191.39 91.5312 192.515 88.25 194.39 85.1562C196.265 82.0391 199.968 77.9141 205.499 72.7812C209.952 68.6328 212.683 65.8203 213.691 64.3438C215.05 62.3047 215.73 60.2891 215.73 58.2969C215.73 56.0938 215.132 54.4062 213.937 53.2344C212.765 52.0391 211.136 51.4414 209.05 51.4414C206.987 51.4414 205.347 52.0625 204.128 53.3047C202.909 54.5469 202.206 56.6094 202.019 59.4922L192.175 58.5078C192.761 53.0703 194.601 49.168 197.695 46.8008C200.788 44.4336 204.655 43.25 209.296 43.25C214.382 43.25 218.378 44.6211 221.284 47.3633C224.191 50.1055 225.644 53.5156 225.644 57.5938C225.644 59.9141 225.222 62.1289 224.378 64.2383C223.558 66.3242 222.245 68.5156 220.441 70.8125C219.245 72.3359 217.089 74.5273 213.972 77.3867C210.855 80.2461 208.874 82.1445 208.03 83.082C207.21 84.0195 206.542 84.9336 206.027 85.8242H225.644ZM245.458 43.25C250.45 43.25 254.352 45.0312 257.165 48.5938C260.516 52.8125 262.192 59.8086 262.192 69.582C262.192 79.332 260.505 86.3398 257.13 90.6055C254.341 94.1211 250.45 95.8789 245.458 95.8789C240.442 95.8789 236.399 93.957 233.329 90.1133C230.259 86.2461 228.723 79.3672 228.723 69.4766C228.723 59.7734 230.411 52.7891 233.786 48.5234C236.575 45.0078 240.466 43.25 245.458 43.25ZM245.458 51.4414C244.263 51.4414 243.196 51.8281 242.259 52.6016C241.321 53.3516 240.595 54.7109 240.079 56.6797C239.399 59.2344 239.059 63.5352 239.059 69.582C239.059 75.6289 239.364 79.7891 239.973 82.0625C240.583 84.3125 241.345 85.8125 242.259 86.5625C243.196 87.3125 244.263 87.6875 245.458 87.6875C246.653 87.6875 247.72 87.3125 248.657 86.5625C249.595 85.7891 250.321 84.418 250.837 82.4492C251.516 79.918 251.856 75.6289 251.856 69.582C251.856 63.5352 251.552 59.3867 250.942 57.1367C250.333 54.8633 249.559 53.3516 248.622 52.6016C247.708 51.8281 246.653 51.4414 245.458 51.4414Z" fill="white"/>
</svg>
