<svg width="158" height="158" viewBox="0 0 158 158" fill="none" xmlns="http://www.w3.org/2000/svg">
<rect width="158" height="158" fill="#247DA5"/>
<path d="M79.6437 94.8242V104H45.0148C45.3898 100.531 46.5148 97.25 48.3898 94.1562C50.2648 91.0391 53.968 86.9141 59.4992 81.7812C63.9523 77.6328 66.6828 74.8203 67.6906 73.3438C69.05 71.3047 69.7297 69.2891 69.7297 67.2969C69.7297 65.0938 69.132 63.4062 67.9367 62.2344C66.7648 61.0391 65.1359 60.4414 63.05 60.4414C60.9875 60.4414 59.3469 61.0625 58.1281 62.3047C56.9094 63.5469 56.2062 65.6094 56.0187 68.4922L46.175 67.5078C46.7609 62.0703 48.6008 58.168 51.6945 55.8008C54.7883 53.4336 58.6555 52.25 63.2961 52.25C68.382 52.25 72.3781 53.6211 75.2844 56.3633C78.1906 59.1055 79.6437 62.5156 79.6437 66.5938C79.6437 68.9141 79.2219 71.1289 78.3781 73.2383C77.5578 75.3242 76.2453 77.5156 74.4406 79.8125C73.2453 81.3359 71.0891 83.5273 67.9719 86.3867C64.8547 89.2461 62.8742 91.1445 62.0305 92.082C61.2102 93.0195 60.5422 93.9336 60.0266 94.8242H79.6437ZM108.036 104H98.157V66.7695C94.5477 70.1445 90.2938 72.6406 85.3953 74.2578V65.293C87.9734 64.4492 90.7742 62.8555 93.7977 60.5117C96.8211 58.1445 98.8953 55.3906 100.02 52.25H108.036V104Z" fill="white"/>
</svg>
