<svg viewBox="0 0 328 158" fill="none" xmlns="http://www.w3.org/2000/svg">
<rect width="328" height="158" fill="#C13355"/>
<path d="M78.3438 81.8242V91H43.7148C44.0898 87.5312 45.2148 84.25 47.0898 81.1562C48.9648 78.0391 52.668 73.9141 58.1992 68.7812C62.6523 64.6328 65.3828 61.8203 66.3906 60.3438C67.75 58.3047 68.4297 56.2891 68.4297 54.2969C68.4297 52.0938 67.832 50.4062 66.6367 49.2344C65.4648 48.0391 63.8359 47.4414 61.75 47.4414C59.6875 47.4414 58.0469 48.0625 56.8281 49.3047C55.6094 50.5469 54.9062 52.6094 54.7188 55.4922L44.875 54.5078C45.4609 49.0703 47.3008 45.168 50.3945 42.8008C53.4883 40.4336 57.3555 39.25 61.9961 39.25C67.082 39.25 71.0781 40.6211 73.9844 43.3633C76.8906 46.1055 78.3438 49.5156 78.3438 53.5938C78.3438 55.9141 77.9219 58.1289 77.0781 60.2383C76.2578 62.3242 74.9453 64.5156 73.1406 66.8125C71.9453 68.3359 69.7891 70.5273 66.6719 73.3867C63.5547 76.2461 61.5742 78.1445 60.7305 79.082C59.9102 80.0195 59.2422 80.9336 58.7266 81.8242H78.3438ZM118.422 81.8242V91H83.793C84.168 87.5312 85.293 84.25 87.168 81.1562C89.043 78.0391 92.7461 73.9141 98.2773 68.7812C102.73 64.6328 105.461 61.8203 106.469 60.3438C107.828 58.3047 108.508 56.2891 108.508 54.2969C108.508 52.0938 107.91 50.4062 106.715 49.2344C105.543 48.0391 103.914 47.4414 101.828 47.4414C99.7656 47.4414 98.125 48.0625 96.9062 49.3047C95.6875 50.5469 94.9844 52.6094 94.7969 55.4922L84.9531 54.5078C85.5391 49.0703 87.3789 45.168 90.4727 42.8008C93.5664 40.4336 97.4336 39.25 102.074 39.25C107.16 39.25 111.156 40.6211 114.062 43.3633C116.969 46.1055 118.422 49.5156 118.422 53.5938C118.422 55.9141 118 58.1289 117.156 60.2383C116.336 62.3242 115.023 64.5156 113.219 66.8125C112.023 68.3359 109.867 70.5273 106.75 73.3867C103.633 76.2461 101.652 78.1445 100.809 79.082C99.9883 80.0195 99.3203 80.9336 98.8047 81.8242H118.422Z" fill="white"/>
<path d="M298.344 83.9828C303.356 57.9916 286.319 32.8641 260.289 27.859C234.26 22.8539 209.096 39.8665 204.084 65.8577C199.071 91.8489 216.109 116.976 242.138 121.982C268.167 126.987 293.331 109.974 298.344 83.9828Z" fill="#F9DB7A"/>
<path d="M251.22 112.208C271.841 112.208 288.557 95.516 288.557 74.9256C288.557 54.3353 271.841 37.6436 251.22 37.6436C230.6 37.6436 213.884 54.3353 213.884 74.9256C213.884 95.516 230.6 112.208 251.22 112.208Z" fill="white"/>
<path d="M298.125 139.047H201.875C197.526 139.047 194 142.567 194 146.91V149.137C194 153.479 197.526 157 201.875 157H298.125C302.474 157 306 153.479 306 149.137V146.91C306 142.567 302.474 139.047 298.125 139.047Z" fill="#247DA5"/>
<path d="M283.763 121.094H216.237C211.888 121.094 208.362 124.614 208.362 128.957V131.183C208.362 135.526 211.888 139.047 216.237 139.047H283.763C288.112 139.047 291.637 135.526 291.637 131.183V128.957C291.637 124.614 288.112 121.094 283.763 121.094Z" fill="#6DAFC6"/>
<path d="M262.855 45.3828L265.563 50.8576L271.601 51.7366L267.228 55.9884L268.261 61.9983L262.855 59.1606L257.449 61.9983L258.482 55.9884L254.109 51.7366L260.157 50.8576L262.855 45.3828Z" fill="#DF2D4F"/>
<path d="M282.232 49.6826L284.93 55.1574L290.978 56.0364L286.605 60.2882L287.638 66.2981L282.232 63.4604L276.826 66.2981L277.859 60.2882L273.486 56.0364L279.524 55.1574L282.232 49.6826Z" fill="#DF2D4F"/>
<path d="M213.214 64.311C213.214 64.311 228.256 56.3329 237.939 70.7985C247.623 85.2642 273.553 88.207 284.883 75.7001L286.547 73.77C286.547 73.77 288.356 107.88 252.914 113.345C217.482 118.82 208.258 73.7509 213.214 64.311Z" fill="#92BED2"/>
</svg>
