<svg viewBox="0 0 158 158" fill="none" xmlns="http://www.w3.org/2000/svg">
<rect width="158" height="158" fill="#F9DB7A"/>
<path d="M75.3438 81.8242V91H40.7148C41.0898 87.5312 42.2148 84.25 44.0898 81.1562C45.9648 78.0391 49.668 73.9141 55.1992 68.7812C59.6523 64.6328 62.3828 61.8203 63.3906 60.3438C64.75 58.3047 65.4297 56.2891 65.4297 54.2969C65.4297 52.0938 64.832 50.4062 63.6367 49.2344C62.4648 48.0391 60.8359 47.4414 58.75 47.4414C56.6875 47.4414 55.0469 48.0625 53.8281 49.3047C52.6094 50.5469 51.9062 52.6094 51.7188 55.4922L41.875 54.5078C42.4609 49.0703 44.3008 45.168 47.3945 42.8008C50.4883 40.4336 54.3555 39.25 58.9961 39.25C64.082 39.25 68.0781 40.6211 70.9844 43.3633C73.8906 46.1055 75.3438 49.5156 75.3438 53.5938C75.3438 55.9141 74.9219 58.1289 74.0781 60.2383C73.2578 62.3242 71.9453 64.5156 70.1406 66.8125C68.9453 68.3359 66.7891 70.5273 63.6719 73.3867C60.5547 76.2461 58.5742 78.1445 57.7305 79.082C56.9102 80.0195 56.2422 80.9336 55.7266 81.8242H75.3438ZM81.707 77.3242L91.2695 76.1641C91.5742 78.6016 92.3945 80.4648 93.7305 81.7539C95.0664 83.043 96.6836 83.6875 98.582 83.6875C100.621 83.6875 102.332 82.9141 103.715 81.3672C105.121 79.8203 105.824 77.7344 105.824 75.1094C105.824 72.625 105.156 70.6562 103.82 69.2031C102.484 67.75 100.855 67.0234 98.9336 67.0234C97.668 67.0234 96.1562 67.2695 94.3984 67.7617L95.4883 59.7109C98.1602 59.7812 100.199 59.207 101.605 57.9883C103.012 56.7461 103.715 55.1055 103.715 53.0664C103.715 51.332 103.199 49.9492 102.168 48.918C101.137 47.8867 99.7656 47.3711 98.0547 47.3711C96.3672 47.3711 94.9258 47.957 93.7305 49.1289C92.5352 50.3008 91.8086 52.0117 91.5508 54.2617L82.4453 52.7148C83.0781 49.5977 84.0273 47.1133 85.293 45.2617C86.582 43.3867 88.3633 41.9219 90.6367 40.8672C92.9336 39.7891 95.5 39.25 98.3359 39.25C103.188 39.25 107.078 40.7969 110.008 43.8906C112.422 46.4219 113.629 49.2812 113.629 52.4688C113.629 56.9922 111.156 60.6016 106.211 63.2969C109.164 63.9297 111.52 65.3477 113.277 67.5508C115.059 69.7539 115.949 72.4141 115.949 75.5312C115.949 80.0547 114.297 83.9102 110.992 87.0977C107.688 90.2852 103.574 91.8789 98.6523 91.8789C93.9883 91.8789 90.1211 90.543 87.0508 87.8711C83.9805 85.1758 82.1992 81.6602 81.707 77.3242Z" fill="white"/>
</svg>
