<svg viewBox="0 0 158 328" fill="none" xmlns="http://www.w3.org/2000/svg">
<rect width="158" height="328" />
<path d="M94.2338 57H114.226V51.876H102.508L109.102 45.45C112.924 41.754 114.226 39.318 114.226 35.454C114.226 30.666 110.824 27.012 104.356 27.012C98.0558 27.012 94.2338 31.17 94.2338 35.748C94.2338 36.63 94.3178 37.47 94.5278 38.436L99.9878 38.058C99.8618 37.428 99.7778 36.882 99.7778 36.042C99.7778 33.438 101.668 31.884 104.356 31.884C107.128 31.884 108.85 33.606 108.85 36.084C108.85 38.226 107.8 39.738 105.406 42.09L94.2338 53.052V57ZM130.985 57H136.529V52.128H139.511V47.004H136.529V27.6H130.985L116.663 47.004V52.128H130.985V57ZM122.543 47.004L130.985 35.412V47.004H122.543Z" fill="white"/>
<path d="M73.9213 223.53L79.0193 218.432C84.7248 212.726 84.7248 203.483 79.0193 197.786L70.5309 189.297C64.8254 183.592 64.8254 174.348 70.5309 168.651C76.2364 162.945 76.2364 153.702 70.5309 148.004L52.2981 129.771L34.0652 148.004C28.3597 153.71 28.3597 162.953 34.0652 168.651C39.7707 174.356 39.7707 183.6 34.0652 189.297L25.5768 197.786C19.8713 203.491 19.8713 212.735 25.5768 218.432L30.6748 223.53C36.3802 229.235 36.3802 238.479 30.6748 244.176L15.9227 258.928C10.2172 264.634 10.2172 273.878 15.9227 279.575L52.2981 315.95L88.6735 279.575C94.3789 273.869 94.3789 264.626 88.6735 258.928L73.9213 244.176C68.2159 238.471 68.2159 229.227 73.9213 223.53V223.53Z" fill="#123845"/>
<mask id="mask0_216_207" style="mask-type:alpha" maskUnits="userSpaceOnUse" x="11" y="129" width="82" height="187">
<path d="M73.9213 223.53L79.0193 218.432C84.7248 212.726 84.7248 203.483 79.0193 197.786L70.5309 189.297C64.8254 183.592 64.8254 174.348 70.5309 168.651C76.2364 162.945 76.2364 153.702 70.5309 148.004L52.2981 129.771L34.0652 148.004C28.3597 153.71 28.3597 162.953 34.0652 168.651C39.7707 174.356 39.7707 183.6 34.0652 189.297L25.5768 197.786C19.8713 203.491 19.8713 212.735 25.5768 218.432L30.6748 223.53C36.3802 229.235 36.3802 238.479 30.6748 244.176L15.9227 258.928C10.2172 264.634 10.2172 273.878 15.9227 279.575L52.2981 315.95L88.6735 279.575C94.3789 273.869 94.3789 264.626 88.6735 258.928L73.9213 244.176C68.2159 238.471 68.2159 229.227 73.9213 223.53V223.53Z" fill="#123845"/>
</mask>
<g mask="url(#mask0_216_207)">
<path d="M0.276308 272.064L-12.3332 255.046L-25.0986 272.261L-12.3332 289.476L0.276308 272.458L12.894 289.476L25.6595 272.261L12.894 255.046L0.276308 272.064Z" fill="white"/>
<path d="M38.4246 255.046L25.6592 272.261L38.4246 289.476L51.1901 272.261L38.4246 255.046Z" fill="#DF2D4F"/>
<path d="M51.2061 272.261L63.9715 289.476L76.7288 272.261L63.9715 255.046L51.2061 272.261Z" fill="#DF2D4F"/>
<path d="M102.112 272.302L89.494 255.284L76.7285 272.499L89.494 289.714L102.112 272.696L114.729 289.714L127.495 272.499L114.729 255.284L102.112 272.302Z" fill="white"/>
<path d="M92.253 181.729H13.4766V233.841H92.253V181.729Z" fill="white"/>
<path d="M92.253 125.339H13.4766V183.239H92.253V125.339Z" fill="#247DA5"/>
<path d="M13.5422 205.954L4.20827 193.369L-5.23242 206.102L4.20827 218.834L13.5422 206.25L22.868 218.834L32.3087 206.102L22.868 193.369L13.5422 205.954Z" fill="#247DA5"/>
<path d="M41.7493 193.369L32.3086 206.102L41.7493 218.834L51.19 206.102L41.7493 193.369Z" fill="#FFC300"/>
<path d="M51.2061 206.102L60.6385 218.834L70.0792 206.102L60.6385 193.369L51.2061 206.102Z" fill="#FFC300"/>
<path d="M88.8538 205.954L79.5198 193.369L70.0791 206.102L79.5198 218.834L88.8538 206.25L98.1795 218.834L107.62 206.102L98.1795 193.369L88.8538 205.954Z" fill="#247DA5"/>
<path d="M100.684 153.414H0.530273V163.561H100.684V153.414Z" fill="#F9DB7A"/>
</g>
</svg>
