<svg width="158" height="328" viewBox="0 0 158 328" fill="none" xmlns="http://www.w3.org/2000/svg">
<rect width="158" height="328" fill="#F9DB7A"/>
<path d="M54.8906 124.766L67.6406 123.219C68.0469 126.469 69.1406 128.953 70.9219 130.672C72.7031 132.391 74.8594 133.25 77.3906 133.25C80.1094 133.25 82.3906 132.219 84.2344 130.156C86.1094 128.094 87.0469 125.312 87.0469 121.812C87.0469 118.5 86.1562 115.875 84.375 113.938C82.5938 112 80.4219 111.031 77.8594 111.031C76.1719 111.031 74.1562 111.359 71.8125 112.016L73.2656 101.281C76.8281 101.375 79.5469 100.609 81.4219 98.9844C83.2969 97.3281 84.2344 95.1406 84.2344 92.4219C84.2344 90.1094 83.5469 88.2656 82.1719 86.8906C80.7969 85.5156 78.9688 84.8281 76.6875 84.8281C74.4375 84.8281 72.5156 85.6094 70.9219 87.1719C69.3281 88.7344 68.3594 91.0156 68.0156 94.0156L55.875 91.9531C56.7188 87.7969 57.9844 84.4844 59.6719 82.0156C61.3906 79.5156 63.7656 77.5625 66.7969 76.1562C69.8594 74.7188 73.2812 74 77.0625 74C83.5312 74 88.7188 76.0625 92.625 80.1875C95.8438 83.5625 97.4531 87.375 97.4531 91.625C97.4531 97.6562 94.1562 102.469 87.5625 106.062C91.5 106.906 94.6406 108.797 96.9844 111.734C99.3594 114.672 100.547 118.219 100.547 122.375C100.547 128.406 98.3438 133.547 93.9375 137.797C89.5312 142.047 84.0469 144.172 77.4844 144.172C71.2656 144.172 66.1094 142.391 62.0156 138.828C57.9219 135.234 55.5469 130.547 54.8906 124.766Z" fill="#247DA5"/>
<path d="M77.0235 312.067C108.722 312.067 134.418 286.371 134.418 254.673C134.418 222.975 108.722 197.278 77.0235 197.278C45.3253 197.278 19.6289 222.975 19.6289 254.673C19.6289 286.371 45.3253 312.067 77.0235 312.067Z" fill="#247DA5"/>
<path d="M77.023 298.967C101.486 298.967 121.317 279.136 121.317 254.672C121.317 230.209 101.486 210.378 77.023 210.378C52.5598 210.378 32.7285 230.209 32.7285 254.672C32.7285 279.136 52.5598 298.967 77.023 298.967Z" stroke="white" stroke-width="4.89" stroke-miterlimit="10"/>
<path d="M77.0235 285.114C93.8359 285.114 107.465 271.485 107.465 254.673C107.465 237.861 93.8359 224.231 77.0235 224.231C60.2112 224.231 46.582 237.861 46.582 254.673C46.582 271.485 60.2112 285.114 77.0235 285.114Z" fill="#DD2E4F"/>
<path d="M77.0236 270.634C85.8386 270.634 92.9846 263.488 92.9846 254.673C92.9846 245.858 85.8386 238.712 77.0236 238.712C68.2085 238.712 61.0625 245.858 61.0625 254.673C61.0625 263.488 68.2085 270.634 77.0236 270.634Z" stroke="white" stroke-width="4.89" stroke-miterlimit="10"/>
</svg>
