<svg width="158" height="158" viewBox="0 0 158 158" fill="none" xmlns="http://www.w3.org/2000/svg">
<rect width="158" height="158" fill="#6DAFC6"/>
<path d="M130.219 144.588C136.981 144.588 141.475 139.926 141.475 133.92C141.475 127.914 137.821 123.924 131.101 123.924C128.917 123.924 126.271 124.554 124.591 125.982L125.263 119.724H139.627V114.6H121.399L120.223 129.678L124.549 130.812C126.061 129.174 128.203 128.208 130.261 128.208C133.663 128.208 135.931 130.392 135.931 133.92C135.931 137.784 133.579 139.884 130.261 139.884C127.363 139.884 125.431 138.414 125.431 136.146C125.431 135.852 125.473 135.432 125.515 135.18L119.971 134.886C119.929 135.096 119.887 135.852 119.887 136.104C119.887 140.472 122.953 144.588 130.219 144.588Z" fill="white"/>
<path d="M76.813 123.681C35.4567 136.22 18.8202 131.509 12.515 105.133C5.70917 76.6632 49.2319 63.7668 40.0246 33.3959L47.5969 28.501C57.9999 65.9945 95.2379 60.4354 102.739 77.7873C109.197 92.7377 111.977 113.033 76.813 123.691V123.681Z" fill="white"/>
<path d="M76.0771 120.615C39.2376 131.784 24.3689 127.441 18.6258 103.508C12.4229 77.685 51.1938 66.1988 42.8346 38.6381L47.3413 34.9082C56.7938 68.9273 92.2231 63.3886 98.9984 79.1463C104.833 92.7172 107.398 111.122 76.0771 120.615Z" fill="#123845"/>
<path d="M76.077 120.615C107.398 111.121 104.833 92.7168 98.9982 79.1459C97.823 76.4174 96.3821 74.7415 93.7762 72.9736C85.5806 78.5737 37.0199 91.6438 18.738 92.0525C17.3993 95.6599 17.8183 100.126 18.6256 103.508C24.3687 127.431 39.2374 131.784 76.077 120.615Z" fill="#C13355"/>
<path d="M50.8356 43.86L44.0093 45.4439L35.2822 17.1372L46.748 14.5723L50.8356 43.86Z" fill="#519ACF"/>
<path d="M49.6409 27.2932L38.5601 29.766C36.2191 30.2884 34.7448 32.6097 35.2672 34.9507L35.5343 36.1476C36.0567 38.4886 38.378 39.9629 40.7191 39.4405L51.7998 36.9677C54.1408 36.4453 55.6151 34.124 55.0927 31.7829L54.8256 30.5861C54.3032 28.245 51.9819 26.7708 49.6409 27.2932Z" fill="white"/>
<path d="M40.5255 94.1281C41.9364 94.1281 43.0802 92.9843 43.0802 91.5733C43.0802 90.1624 41.9364 89.0186 40.5255 89.0186C39.1145 89.0186 37.9707 90.1624 37.9707 91.5733C37.9707 92.9843 39.1145 94.1281 40.5255 94.1281Z" fill="#E99392"/>
<path d="M56.1299 74.9367C57.5409 74.9367 58.6847 73.7929 58.6847 72.3819C58.6847 70.971 57.5409 69.8271 56.1299 69.8271C54.719 69.8271 53.5752 70.971 53.5752 72.3819C53.5752 73.7929 54.719 74.9367 56.1299 74.9367Z" fill="#E99392"/>
<path d="M47.485 72.6985C48.3316 72.6985 49.0179 72.0122 49.0179 71.1657C49.0179 70.3191 48.3316 69.6328 47.485 69.6328C46.6384 69.6328 45.9521 70.3191 45.9521 71.1657C45.9521 72.0122 46.6384 72.6985 47.485 72.6985Z" fill="#E99392"/>
<path d="M50.3561 57.4007C51.2027 57.4007 51.8889 56.7144 51.8889 55.8678C51.8889 55.0212 51.2027 54.335 50.3561 54.335C49.5095 54.335 48.8232 55.0212 48.8232 55.8678C48.8232 56.7144 49.5095 57.4007 50.3561 57.4007Z" fill="#E99392"/>
<path d="M70.335 91.6544C71.746 91.6544 72.8898 90.5106 72.8898 89.0997C72.8898 87.6887 71.746 86.5449 70.335 86.5449C68.9241 86.5449 67.7803 87.6887 67.7803 89.0997C67.7803 90.5106 68.9241 91.6544 70.335 91.6544Z" fill="#E99392"/>
<path d="M50.9591 112.736C52.37 112.736 53.5138 111.593 53.5138 110.182C53.5138 108.771 52.37 107.627 50.9591 107.627C49.5481 107.627 48.4043 108.771 48.4043 110.182C48.4043 111.593 49.5481 112.736 50.9591 112.736Z" fill="#E99392"/>
<path d="M59.9212 104.378C63.0253 104.378 65.5417 101.861 65.5417 98.7572C65.5417 95.6531 63.0253 93.1367 59.9212 93.1367C56.8171 93.1367 54.3008 95.6531 54.3008 98.7572C54.3008 101.861 56.8171 104.378 59.9212 104.378Z" fill="#E99392"/>
<path d="M83.098 109.671C86.2021 109.671 88.7185 107.154 88.7185 104.05C88.7185 100.946 86.2021 98.4297 83.098 98.4297C79.9939 98.4297 77.4775 100.946 77.4775 104.05C77.4775 107.154 79.9939 109.671 83.098 109.671Z" fill="#E99392"/>
</svg>
