<svg viewBox="0 0 158 328" fill="none" xmlns="http://www.w3.org/2000/svg">
<rect width="158" height="328"/>
<path d="M46.1264 207L50.7424 219.995L63.1815 214.069L57.2712 226.531L70.2529 231.152L57.2712 235.773L63.1815 248.225L50.7424 242.308L46.1264 255.304L41.5105 242.308L29.0619 248.225L34.9816 235.773L22 231.152L34.9816 226.531L29.0619 214.069L41.5105 219.995L46.1264 207Z" fill="#247DA5"/>
<path d="M109.874 207L114.489 219.995L126.938 214.069L121.018 226.531L134 231.152L121.018 235.773L126.938 248.225L114.489 242.308L109.874 255.304L105.258 242.308L92.8185 248.225L98.7287 235.773L85.7471 231.152L98.7287 226.531L92.8185 214.069L105.258 219.995L109.874 207Z" fill="white"/>
<path d="M46.1264 261.696L50.7424 274.692L63.1815 268.775L57.2712 281.227L70.2529 285.848L57.2712 290.469L63.1815 302.931L50.7424 297.005L46.1264 310L41.5105 297.005L29.0619 302.931L34.9816 290.469L22 285.848L34.9816 281.227L29.0619 268.775L41.5105 274.692L46.1264 261.696Z" fill="#247DA5"/>
<path d="M109.874 261.696L114.489 274.692L126.938 268.775L121.018 281.227L134 285.848L121.018 290.469L126.938 302.931L114.489 297.005L109.874 310L105.258 297.005L92.8185 302.931L98.7287 290.469L85.7471 285.848L98.7287 281.227L92.8185 268.775L105.258 274.692L109.874 261.696Z" fill="white"/>
<path d="M96.9844 67.1094L84.2344 68.5156C83.9219 65.8906 83.1094 63.9531 81.7969 62.7031C80.4844 61.4531 78.7812 60.8281 76.6875 60.8281C73.9062 60.8281 71.5469 62.0781 69.6094 64.5781C67.7031 67.0781 66.5 72.2812 66 80.1875C69.2812 76.3125 73.3594 74.375 78.2344 74.375C83.7344 74.375 88.4375 76.4688 92.3438 80.6562C96.2812 84.8438 98.25 90.25 98.25 96.875C98.25 103.906 96.1875 109.547 92.0625 113.797C87.9375 118.047 82.6406 120.172 76.1719 120.172C69.2344 120.172 63.5312 117.484 59.0625 112.109C54.5938 106.703 52.3594 97.8594 52.3594 85.5781C52.3594 72.9844 54.6875 63.9062 59.3438 58.3438C64 52.7812 70.0469 50 77.4844 50C82.7031 50 87.0156 51.4688 90.4219 54.4062C93.8594 57.3125 96.0469 61.5469 96.9844 67.1094ZM67.125 95.8438C67.125 100.125 68.1094 103.438 70.0781 105.781C72.0469 108.094 74.2969 109.25 76.8281 109.25C79.2656 109.25 81.2969 108.297 82.9219 106.391C84.5469 104.484 85.3594 101.359 85.3594 97.0156C85.3594 92.5469 84.4844 89.2812 82.7344 87.2188C80.9844 85.125 78.7969 84.0781 76.1719 84.0781C73.6406 84.0781 71.5 85.0781 69.75 87.0781C68 89.0469 67.125 91.9688 67.125 95.8438Z" fill="white"/>
</svg>
