<svg viewBox="0 0 158 328" fill="none" xmlns="http://www.w3.org/2000/svg">
<rect width="158" height="328"/>
<path d="M67.1562 163.922C63.75 162.484 61.2656 160.516 59.7031 158.016C58.1719 155.484 57.4062 152.719 57.4062 149.719C57.4062 144.594 59.1875 140.359 62.75 137.016C66.3438 133.672 71.4375 132 78.0312 132C84.5625 132 89.625 133.672 93.2188 137.016C96.8438 140.359 98.6562 144.594 98.6562 149.719C98.6562 152.906 97.8281 155.75 96.1719 158.25C94.5156 160.719 92.1875 162.609 89.1875 163.922C93 165.453 95.8906 167.688 97.8594 170.625C99.8594 173.562 100.859 176.953 100.859 180.797C100.859 187.141 98.8281 192.297 94.7656 196.266C90.7344 200.234 85.3594 202.219 78.6406 202.219C72.3906 202.219 67.1875 200.578 63.0312 197.297C58.125 193.422 55.6719 188.109 55.6719 181.359C55.6719 177.641 56.5938 174.234 58.4375 171.141C60.2812 168.016 63.1875 165.609 67.1562 163.922ZM69.875 150.656C69.875 153.281 70.6094 155.328 72.0781 156.797C73.5781 158.266 75.5625 159 78.0312 159C80.5312 159 82.5312 158.266 84.0312 156.797C85.5312 155.297 86.2812 153.234 86.2812 150.609C86.2812 148.141 85.5312 146.172 84.0312 144.703C82.5625 143.203 80.6094 142.453 78.1719 142.453C75.6406 142.453 73.625 143.203 72.125 144.703C70.625 146.203 69.875 148.188 69.875 150.656ZM68.6562 180.094C68.6562 183.719 69.5781 186.547 71.4219 188.578C73.2969 190.609 75.625 191.625 78.4062 191.625C81.125 191.625 83.375 190.656 85.1562 188.719C86.9375 186.75 87.8281 183.922 87.8281 180.234C87.8281 177.016 86.9219 174.438 85.1094 172.5C83.2969 170.531 81 169.547 78.2188 169.547C75 169.547 72.5938 170.656 71 172.875C69.4375 175.094 68.6562 177.5 68.6562 180.094Z" fill="white"/>
</svg>
