<svg width="158" height="158" viewBox="0 0 158 158" fill="none" xmlns="http://www.w3.org/2000/svg">
<rect width="158" height="158" fill="#247DA5"/>
<path d="M56.1406 99.1094L68.8906 97.7031C69.2031 100.297 70.0156 102.219 71.3281 103.469C72.6406 104.719 74.375 105.344 76.5312 105.344C79.25 105.344 81.5625 104.094 83.4688 101.594C85.375 99.0938 86.5938 93.9062 87.125 86.0312C83.8125 89.875 79.6719 91.7969 74.7031 91.7969C69.2969 91.7969 64.625 89.7188 60.6875 85.5625C56.7812 81.375 54.8281 75.9375 54.8281 69.25C54.8281 62.2812 56.8906 56.6719 61.0156 52.4219C65.1719 48.1406 70.4531 46 76.8594 46C83.8281 46 89.5469 48.7031 94.0156 54.1094C98.4844 59.4844 100.719 68.3438 100.719 80.6875C100.719 93.25 98.3906 102.312 93.7344 107.875C89.0781 113.438 83.0156 116.219 75.5469 116.219C70.1719 116.219 65.8281 114.797 62.5156 111.953C59.2031 109.078 57.0781 104.797 56.1406 99.1094ZM85.9531 70.3281C85.9531 66.0781 84.9688 62.7812 83 60.4375C81.0625 58.0938 78.8125 56.9219 76.25 56.9219C73.8125 56.9219 71.7812 57.8906 70.1562 59.8281C68.5625 61.7344 67.7656 64.875 67.7656 69.25C67.7656 73.6875 68.6406 76.9531 70.3906 79.0469C72.1406 81.1094 74.3281 82.1406 76.9531 82.1406C79.4844 82.1406 81.6094 81.1406 83.3281 79.1406C85.0781 77.1406 85.9531 74.2031 85.9531 70.3281Z" fill="white"/>
</svg>
