<svg width="118" height="118" viewBox="0 0 118 118" fill="none" xmlns="http://www.w3.org/2000/svg">
<g clip-path="url(#clip0_1_120)">
<path d="M102.241 51.7227C106.725 28.1307 91.4854 5.32265 68.2033 0.779545C44.9213 -3.76356 22.4129 11.6786 17.9295 35.2707C13.4461 58.8627 28.6854 81.6707 51.9674 86.2138C75.2495 90.7569 97.7579 75.3147 102.241 51.7227Z" fill="#F9DB7A"/>
<path d="M60.0913 77.3427C78.5355 77.3427 93.4874 62.1917 93.4874 43.502C93.4874 24.8123 78.5355 9.66133 60.0913 9.66133C41.6472 9.66133 26.6953 24.8123 26.6953 43.502C26.6953 62.1917 41.6472 77.3427 60.0913 77.3427Z" fill="white"/>
<path d="M102.046 101.704H15.954C12.0638 101.704 8.91016 104.9 8.91016 108.842V110.862C8.91016 114.804 12.0638 118 15.954 118H102.046C105.936 118 109.09 114.804 109.09 110.862V108.842C109.09 104.9 105.936 101.704 102.046 101.704Z" fill="#247DA5"/>
<path d="M89.1994 85.4082H28.8006C24.9105 85.4082 21.7568 88.6038 21.7568 92.5458V94.5665C21.7568 98.5085 24.9105 101.704 28.8006 101.704H89.1994C93.0896 101.704 96.2432 98.5085 96.2432 94.5665V92.5458C96.2432 88.6038 93.0896 85.4082 89.1994 85.4082Z" fill="#6DAFC6"/>
<path d="M70.4994 16.6862L72.9215 21.6556L78.3221 22.4535L74.4107 26.3128L75.3351 31.7679L70.4994 29.1921L65.6637 31.7679L66.5881 26.3128L62.6768 22.4535L68.0859 21.6556L70.4994 16.6862Z" fill="#DF2D4F"/>
<path d="M87.8305 20.5889L90.244 25.5583L95.6531 26.3562L91.7418 30.2155L92.6661 35.6706L87.8305 33.0948L82.9948 35.6706L83.9191 30.2155L80.0078 26.3562L85.4083 25.5583L87.8305 20.5889Z" fill="#DF2D4F"/>
<path d="M26.9105 33.2777C26.9105 33.2777 40.7119 25.9613 49.5968 39.2272C58.4816 52.4932 82.2742 55.1919 92.6691 43.7222L94.1967 41.9523C94.1967 41.9523 95.8561 73.2333 63.3367 78.2453C30.8262 83.266 22.3627 41.9347 26.9105 33.2777Z" fill="#92BED2"/>
</g>
<defs>
<clipPath id="clip0_1_120">
<rect width="118" height="118" fill="white"/>
</clipPath>
</defs>
</svg>
