<svg width="119" height="118" viewBox="0 0 119 118" fill="none" xmlns="http://www.w3.org/2000/svg">
<path d="M59.5 118C92.0848 118 118.5 91.5848 118.5 59C118.5 26.4152 92.0848 0 59.5 0C26.9152 0 0.5 26.4152 0.5 59C0.5 91.5848 26.9152 118 59.5 118Z" fill="#247DA5"/>
<path d="M59.5002 104.533C84.6477 104.533 105.034 84.1474 105.034 59C105.034 33.8526 84.6477 13.4666 59.5002 13.4666C34.3528 13.4666 13.9668 33.8526 13.9668 59C13.9668 84.1474 34.3528 104.533 59.5002 104.533Z" stroke="white" stroke-width="4.89" stroke-miterlimit="10"/>
<path d="M59.499 90.2928C76.7816 90.2928 90.792 76.2825 90.792 58.9998C90.792 41.7172 76.7816 27.7069 59.499 27.7069C42.2164 27.7069 28.2061 41.7172 28.2061 58.9998C28.2061 76.2825 42.2164 90.2928 59.499 90.2928Z" fill="#DD2E4F"/>
<path d="M59.5003 75.4073C68.5619 75.4073 75.9078 68.0614 75.9078 58.9998C75.9078 49.9382 68.5619 42.5923 59.5003 42.5923C50.4387 42.5923 43.0928 49.9382 43.0928 58.9998C43.0928 68.0614 50.4387 75.4073 59.5003 75.4073Z" stroke="white" stroke-width="4.89" stroke-miterlimit="10"/>
</svg>
