<svg width="118" height="118" viewBox="0 0 118 118" fill="none" xmlns="http://www.w3.org/2000/svg">
<g clip-path="url(#clip0_246_3)">
<path d="M118 118L107.806 100.069H114.721L104.44 81.9854H109.687L97.004 59.6539L84.3131 81.9854H89.5601L79.2794 100.069H86.1938L76 118H118Z" fill="#C13355"/>
<mask id="mask0_246_3" style="mask-type:alpha" maskUnits="userSpaceOnUse" x="76" y="59" width="42" height="59">
<path d="M118 118L107.806 100.069H114.721L104.44 81.9854H109.687L97.004 59.6539L84.3131 81.9854H89.5601L79.2794 100.069H86.1938L76 118H118Z" fill="#E99392"/>
</mask>
<g mask="url(#mask0_246_3)">
<path d="M106.289 75.5211C104.977 75.5211 103.792 74.9108 103.025 73.9231C102.259 74.9028 101.081 75.5211 99.7618 75.5211C98.4421 75.5211 97.2647 74.9108 96.4982 73.9231C95.7317 74.9028 94.5543 75.5211 93.2346 75.5211C91.9149 75.5211 90.7375 74.9108 89.971 73.9231C89.2045 74.9028 88.0271 75.5211 86.7074 75.5211C84.4079 75.5211 82.543 73.626 82.543 71.2893C82.543 70.8075 82.9302 70.422 83.3964 70.422C83.8626 70.422 84.2498 70.8155 84.2498 71.2893C84.2498 72.6624 85.3482 73.7786 86.6995 73.7786C87.9085 73.7786 88.9279 72.8953 89.1176 71.6827C89.1808 71.2571 89.5443 70.952 89.9631 70.952C90.3819 70.952 90.7454 71.2652 90.8086 71.6827C90.9983 72.8953 92.0177 73.7786 93.2267 73.7786C94.4357 73.7786 95.4551 72.8953 95.6448 71.6827C95.708 71.2571 96.0715 70.952 96.4903 70.952C96.9091 70.952 97.2726 71.2652 97.3358 71.6827C97.5255 72.8953 98.5449 73.7786 99.7539 73.7786C100.963 73.7786 101.982 72.8953 102.172 71.6827C102.235 71.2571 102.599 70.952 103.017 70.952C103.436 70.952 103.8 71.2652 103.863 71.6827C104.053 72.8953 105.072 73.7786 106.281 73.7786C107.632 73.7786 108.731 72.6624 108.731 71.2893C108.731 70.8075 109.118 70.422 109.584 70.422C110.05 70.422 110.438 70.8155 110.438 71.2893C110.438 73.626 108.573 75.5211 106.273 75.5211H106.289Z" fill="#F9DB7A"/>
<path d="M108.65 94.2954C107.078 94.2954 105.663 93.5647 104.747 92.3843C103.83 93.5647 102.416 94.2954 100.843 94.2954C99.2706 94.2954 97.8561 93.5567 96.9395 92.3843C96.0228 93.5647 94.6083 94.2954 93.0358 94.2954C91.4633 94.2954 90.0488 93.5567 89.1321 92.3843C88.2155 93.5647 86.801 94.2954 85.2285 94.2954C82.4785 94.2954 80.2422 92.0229 80.2422 89.2285C80.2422 88.6503 80.7005 88.1846 81.2695 88.1846C81.8384 88.1846 82.2968 88.6503 82.2968 89.2285C82.2968 90.8746 83.6164 92.2076 85.2285 92.2076C86.6745 92.2076 87.8915 91.1557 88.1206 89.7023C88.1997 89.1964 88.6264 88.827 89.1321 88.827C89.6379 88.827 90.0646 89.1964 90.1436 89.7023C90.3728 91.1557 91.5897 92.2076 93.0358 92.2076C94.4819 92.2076 95.6988 91.1557 95.928 89.7023C96.007 89.1964 96.4337 88.827 96.9395 88.827C97.4452 88.827 97.8719 89.1964 97.9509 89.7023C98.1801 91.1557 99.397 92.2076 100.843 92.2076C102.289 92.2076 103.506 91.1557 103.735 89.7023C103.814 89.1964 104.241 88.827 104.747 88.827C105.253 88.827 105.679 89.1964 105.758 89.7023C105.987 91.1557 107.204 92.2076 108.65 92.2076C110.27 92.2076 111.582 90.8666 111.582 89.2285C111.582 88.6503 112.04 88.1846 112.609 88.1846C113.178 88.1846 113.637 88.6503 113.637 89.2285C113.637 92.0229 111.4 94.2954 108.65 94.2954V94.2954Z" fill="#6DAFC6"/>
<path d="M110.682 111.745C108.888 111.745 107.284 110.909 106.241 109.576C105.198 110.909 103.594 111.745 101.8 111.745C100.006 111.745 98.4021 110.909 97.359 109.568C96.3159 110.909 94.7118 111.745 92.918 111.745C91.1242 111.745 89.5201 110.909 88.477 109.576C87.4339 110.909 85.8298 111.745 84.036 111.745C80.9146 111.745 78.3701 109.159 78.3701 105.987C78.3701 105.337 78.8917 104.807 79.5317 104.807C80.1718 104.807 80.6934 105.337 80.6934 105.987C80.6934 107.858 82.1869 109.376 84.0281 109.376C85.6717 109.376 87.0546 108.179 87.3154 106.525C87.4023 105.947 87.8922 105.529 88.4691 105.529C89.0459 105.529 89.528 105.955 89.6228 106.525C89.8836 108.179 91.2664 109.376 92.9101 109.376C94.5537 109.376 95.9366 108.179 96.1974 106.525C96.2843 105.947 96.7743 105.529 97.3511 105.529C97.928 105.529 98.41 105.955 98.5048 106.525C98.7656 108.179 100.148 109.376 101.792 109.376C103.436 109.376 104.819 108.179 105.079 106.525C105.166 105.947 105.656 105.529 106.233 105.529C106.81 105.529 107.292 105.955 107.387 106.525C107.648 108.179 109.031 109.376 110.674 109.376C112.515 109.376 114.009 107.858 114.009 105.987C114.009 105.337 114.53 104.807 115.17 104.807C115.811 104.807 116.332 105.337 116.332 105.987C116.332 109.159 113.788 111.745 110.666 111.745H110.682Z" fill="#F9DB7A"/>
</g>
<path d="M97.0202 59.9991C99.6213 59.9991 101.73 57.8564 101.73 55.2132C101.73 52.5701 99.6213 50.4273 97.0202 50.4273C94.4191 50.4273 92.3105 52.5701 92.3105 55.2132C92.3105 57.8564 94.4191 59.9991 97.0202 59.9991Z" fill="#F9DB7A"/>
<path d="M96.5243 118L78.5885 86.6878H90.7542L72.6655 55.109H81.8976L59.5821 16.1123L37.2527 55.109H46.4848L28.396 86.6878H40.5618L22.626 118H96.5243Z" fill="#6DAFC6"/>
<mask id="mask1_246_3" style="mask-type:alpha" maskUnits="userSpaceOnUse" x="22" y="16" width="75" height="103">
<path d="M96.5243 118L78.5885 86.6878H90.7542L72.6655 55.109H81.8976L59.5821 16.1123L37.2527 55.109H46.4848L28.396 86.6878H40.5618L22.626 118H96.5243Z" fill="#E99392"/>
</mask>
<g mask="url(#mask1_246_3)">
<path d="M75.9184 43.8209C73.6104 43.8209 71.5248 42.7552 70.1762 41.0304C68.8275 42.7412 66.7558 43.8209 64.4339 43.8209C62.112 43.8209 60.0403 42.7552 58.6917 41.0304C57.343 42.7412 55.2714 43.8209 52.9494 43.8209C50.6275 43.8209 48.5559 42.7552 47.2072 41.0304C45.8585 42.7412 43.7869 43.8209 41.465 43.8209C37.419 43.8209 34.1377 40.5116 34.1377 36.431C34.1377 35.5897 34.819 34.9166 35.6393 34.9166C36.4596 34.9166 37.1409 35.6037 37.1409 36.431C37.1409 38.8289 39.0735 40.778 41.4511 40.778C43.5783 40.778 45.3719 39.2356 45.7056 37.1182C45.8168 36.375 46.4564 35.8421 47.1933 35.8421C47.9302 35.8421 48.5698 36.389 48.681 37.1182C49.0147 39.2356 50.8083 40.778 52.9355 40.778C55.0628 40.778 56.8564 39.2356 57.1901 37.1182C57.3013 36.375 57.9409 35.8421 58.6778 35.8421C59.4147 35.8421 60.0542 36.389 60.1655 37.1182C60.4992 39.2356 62.2927 40.778 64.42 40.778C66.5473 40.778 68.3409 39.2356 68.6745 37.1182C68.7858 36.375 69.4253 35.8421 70.1622 35.8421C70.8991 35.8421 71.5387 36.389 71.6499 37.1182C71.9836 39.2356 73.7772 40.778 75.9045 40.778C78.282 40.778 80.2146 38.8289 80.2146 36.431C80.2146 35.5897 80.8959 34.9166 81.7162 34.9166C82.5366 34.9166 83.2178 35.6037 83.2178 36.431C83.2178 40.5116 79.9366 43.8209 75.8906 43.8209H75.9184Z" fill="#F9DB7A"/>
<path d="M80.0757 76.6058C77.3088 76.6058 74.8201 75.3298 73.2072 73.2685C71.5944 75.3298 69.1056 76.6058 66.3388 76.6058C63.572 76.6058 61.0832 75.3158 59.4704 73.2685C57.8575 75.3298 55.3688 76.6058 52.6019 76.6058C49.8351 76.6058 47.3463 75.3158 45.7335 73.2685C44.1207 75.3298 41.6319 76.6058 38.865 76.6058C34.0266 76.6058 30.0918 72.6375 30.0918 67.7576C30.0918 66.748 30.8982 65.9347 31.8993 65.9347C32.9003 65.9347 33.7068 66.748 33.7068 67.7576C33.7068 70.6322 36.0287 72.96 38.865 72.96C41.4094 72.96 43.5506 71.123 43.9538 68.585C44.0928 67.7015 44.8436 67.0565 45.7335 67.0565C46.6233 67.0565 47.3741 67.7015 47.5132 68.585C47.9164 71.123 50.0575 72.96 52.6019 72.96C55.1463 72.96 57.2875 71.123 57.6907 68.585C57.8297 67.7015 58.5805 67.0565 59.4704 67.0565C60.3602 67.0565 61.111 67.7015 61.25 68.585C61.6533 71.123 63.7944 72.96 66.3388 72.96C68.8832 72.96 71.0244 71.123 71.4276 68.585C71.5666 67.7015 72.3174 67.0565 73.2072 67.0565C74.0971 67.0565 74.8479 67.7015 74.9869 68.585C75.3901 71.123 77.5313 72.96 80.0757 72.96C82.9259 72.96 85.234 70.6182 85.234 67.7576C85.234 66.748 86.0404 65.9347 87.0415 65.9347C88.0425 65.9347 88.8489 66.748 88.8489 67.7576C88.8489 72.6375 84.9142 76.6058 80.0757 76.6058V76.6058Z" fill="#DF2D4F"/>
<path d="M83.6492 107.077C80.4931 107.077 77.6706 105.618 75.8353 103.291C74 105.618 71.1776 107.077 68.0214 107.077C64.8653 107.077 62.0428 105.618 60.2075 103.277C58.3722 105.618 55.5498 107.077 52.3936 107.077C49.2375 107.077 46.415 105.618 44.5797 103.291C42.7444 105.618 39.922 107.077 36.7658 107.077C31.2739 107.077 26.7969 102.562 26.7969 97.0226C26.7969 95.8868 27.7145 94.9613 28.8407 94.9613C29.9669 94.9613 30.8846 95.8868 30.8846 97.0226C30.8846 100.29 33.5124 102.94 36.7519 102.94C39.6439 102.94 42.0771 100.851 42.5359 97.9621C42.6888 96.9525 43.5509 96.2233 44.5658 96.2233C45.5808 96.2233 46.4289 96.9665 46.5958 97.9621C47.0546 100.851 49.4878 102.94 52.3797 102.94C55.2717 102.94 57.7049 100.851 58.1637 97.9621C58.3166 96.9525 59.1787 96.2233 60.1936 96.2233C61.2086 96.2233 62.0567 96.9665 62.2236 97.9621C62.6824 100.851 65.1155 102.94 68.0075 102.94C70.8995 102.94 73.3326 100.851 73.7915 97.9621C73.9444 96.9525 74.8064 96.2233 75.8214 96.2233C76.8364 96.2233 77.6845 96.9665 77.8514 97.9621C78.3102 100.851 80.7433 102.94 83.6353 102.94C86.8749 102.94 89.5027 100.29 89.5027 97.0226C89.5027 95.8868 90.4203 94.9613 91.5465 94.9613C92.6727 94.9613 93.5904 95.8868 93.5904 97.0226C93.5904 102.562 89.1134 107.077 83.6214 107.077H83.6492Z" fill="#F9DB7A"/>
</g>
<path d="M59.6099 16.7149C64.1864 16.7149 67.8965 12.9731 67.8965 8.35745C67.8965 3.74176 64.1864 0 59.6099 0C55.0333 0 51.3232 3.74176 51.3232 8.35745C51.3232 12.9731 55.0333 16.7149 59.6099 16.7149Z" fill="#DF2D4F"/>
<path d="M42.3179 118L32.0469 100.069H39.0137L28.6551 81.9855H33.9419L21.1629 59.654L8.37599 81.9855H13.6627L3.30422 100.069H10.2709L0 118H42.3179Z" fill="#F9DB7A"/>
<mask id="mask2_246_3" style="mask-type:alpha" maskUnits="userSpaceOnUse" x="0" y="59" width="43" height="60">
<path d="M42.3179 118L32.0469 100.069H39.0137L28.6551 81.9855H33.9419L21.1629 59.654L8.37599 81.9855H13.6627L3.30422 100.069H10.2709L0 118H42.3179Z" fill="#E99392"/>
</mask>
<g mask="url(#mask2_246_3)">
<path d="M30.5185 75.5211C29.1968 75.5211 28.0025 74.9108 27.2302 73.9231C26.4579 74.9028 25.2716 75.5211 23.9419 75.5211C22.6123 75.5211 21.4259 74.9108 20.6536 73.9231C19.8813 74.9028 18.695 75.5211 17.3653 75.5211C16.0357 75.5211 14.8493 74.9108 14.077 73.9231C13.3047 74.9028 12.1184 75.5211 10.7887 75.5211C8.4718 75.5211 6.59277 73.626 6.59277 71.2893C6.59277 70.8075 6.98291 70.4221 7.45267 70.4221C7.92242 70.4221 8.31256 70.8155 8.31256 71.2893C8.31256 72.6624 9.41927 73.7786 10.7808 73.7786C11.999 73.7786 13.026 72.8953 13.2171 71.6828C13.2808 71.2572 13.6471 70.952 14.0691 70.952C14.491 70.952 14.8573 71.2652 14.921 71.6828C15.1121 72.8953 16.1392 73.7786 17.3574 73.7786C18.5755 73.7786 19.6026 72.8953 19.7937 71.6828C19.8574 71.2572 20.2237 70.952 20.6457 70.952C21.0676 70.952 21.4339 71.2652 21.4976 71.6828C21.6887 72.8953 22.7158 73.7786 23.9339 73.7786C25.1521 73.7786 26.1792 72.8953 26.3703 71.6828C26.434 71.2572 26.8003 70.952 27.2222 70.952C27.6442 70.952 28.0105 71.2652 28.0742 71.6828C28.2653 72.8953 29.2924 73.7786 30.5105 73.7786C31.872 73.7786 32.9787 72.6624 32.9787 71.2893C32.9787 70.8075 33.3689 70.4221 33.8386 70.4221C34.3084 70.4221 34.6985 70.8155 34.6985 71.2893C34.6985 73.626 32.8195 75.5211 30.5026 75.5211H30.5185Z" fill="#247DA5"/>
<path d="M32.8987 94.2955C31.3142 94.2955 29.8891 93.5648 28.9655 92.3844C28.0419 93.5648 26.6167 94.2955 25.0322 94.2955C23.4478 94.2955 22.0226 93.5567 21.099 92.3844C20.1754 93.5648 18.7503 94.2955 17.1658 94.2955C15.5814 94.2955 14.1562 93.5567 13.2326 92.3844C12.309 93.5648 10.8838 94.2955 9.2994 94.2955C6.52863 94.2955 4.27539 92.023 4.27539 89.2286C4.27539 88.6504 4.73718 88.1847 5.31045 88.1847C5.88371 88.1847 6.3455 88.6504 6.3455 89.2286C6.3455 90.8747 7.67515 92.2077 9.2994 92.2077C10.7564 92.2077 11.9826 91.1558 12.2135 89.7023C12.2931 89.1964 12.723 88.8271 13.2326 88.8271C13.7422 88.8271 14.1721 89.1964 14.2517 89.7023C14.4826 91.1558 15.7088 92.2077 17.1658 92.2077C18.6229 92.2077 19.849 91.1558 20.0799 89.7023C20.1595 89.1964 20.5895 88.8271 21.099 88.8271C21.6086 88.8271 22.0385 89.1964 22.1182 89.7023C22.3491 91.1558 23.5752 92.2077 25.0322 92.2077C26.4893 92.2077 27.7154 91.1558 27.9463 89.7023C28.0259 89.1964 28.4559 88.8271 28.9655 88.8271C29.475 88.8271 29.905 89.1964 29.9846 89.7023C30.2155 91.1558 31.4416 92.2077 32.8987 92.2077C34.5309 92.2077 35.8526 90.8667 35.8526 89.2286C35.8526 88.6504 36.3144 88.1847 36.8876 88.1847C37.4609 88.1847 37.9227 88.6504 37.9227 89.2286C37.9227 92.023 35.6694 94.2955 32.8987 94.2955V94.2955Z" fill="#DF2D4F"/>
<path d="M34.9452 111.745C33.1378 111.745 31.5215 110.91 30.4705 109.577C29.4196 110.91 27.8033 111.745 25.9959 111.745C24.1886 111.745 22.5723 110.91 21.5213 109.568C20.4703 110.91 18.854 111.745 17.0467 111.745C15.2393 111.745 13.623 110.91 12.572 109.577C11.5211 110.91 9.90477 111.745 8.0974 111.745C4.95243 111.745 2.38867 109.159 2.38867 105.987C2.38867 105.337 2.91416 104.807 3.55908 104.807C4.204 104.807 4.72949 105.337 4.72949 105.987C4.72949 107.858 6.2343 109.376 8.08944 109.376C9.74553 109.376 11.1389 108.179 11.4016 106.525C11.4892 105.947 11.9828 105.529 12.5641 105.529C13.1453 105.529 13.631 105.955 13.7265 106.525C13.9893 108.179 15.3826 109.376 17.0387 109.376C18.6948 109.376 20.0881 108.179 20.3509 106.525C20.4385 105.947 20.9321 105.529 21.5133 105.529C22.0946 105.529 22.5802 105.955 22.6758 106.525C22.9385 108.179 24.3319 109.376 25.988 109.376C27.644 109.376 29.0374 108.179 29.3001 106.525C29.3877 105.947 29.8814 105.529 30.4626 105.529C31.0438 105.529 31.5295 105.955 31.625 106.525C31.8878 108.179 33.2811 109.376 34.9372 109.376C36.7923 109.376 38.2972 107.858 38.2972 105.987C38.2972 105.337 38.8227 104.807 39.4676 104.807C40.1125 104.807 40.638 105.337 40.638 105.987C40.638 109.159 38.0742 111.745 34.9293 111.745H34.9452Z" fill="#247DA5"/>
</g>
<path d="M21.1789 59.9991C23.7997 59.9991 25.9243 57.8564 25.9243 55.2132C25.9243 52.5701 23.7997 50.4273 21.1789 50.4273C18.5582 50.4273 16.4336 52.5701 16.4336 55.2132C16.4336 57.8564 18.5582 59.9991 21.1789 59.9991Z" fill="#247DA5"/>
</g>
<defs>
<clipPath id="clip0_246_3">
<rect width="118" height="118" fill="white"/>
</clipPath>
</defs>
</svg>
