<svg width="1921" height="1091" viewBox="0 0 1921 1091" fill="none" xmlns="http://www.w3.org/2000/svg">
<path opacity="0.35" d="M1 99C1 99 407.66 451.427 971.166 403.5C1534.67 355.573 1469.17 175.438 1921 189.233V338.66C1921 338.66 1731.87 180.8 1525.96 293.544C1412.68 355.573 953.739 817.956 497.701 764.384C41.6637 710.811 1 911 1 911" fill="white"/>
<path d="M341 291C341 293.767 338.767 296 336 296C333.233 296 331 293.767 331 291C331 288.233 333.233 286 336 286C338.767 286 341 288.233 341 291Z" fill="white"/>
<path d="M406 932.5C406 935.541 403.317 938 400 938C396.683 938 394 935.541 394 932.5C394 929.459 396.683 927 400 927C403.317 927 406 929.459 406 932.5Z" fill="white"/>
<path d="M337 897C337 898.659 335.659 900 334 900C332.341 900 331 898.659 331 897C331 895.341 332.341 894 334 894C335.659 894 337 895.341 337 897Z" fill="white"/>
<path d="M400 729.5C400 733.653 396.853 737 393 737C389.147 737 386 733.629 386 729.5C386 725.371 389.147 722 393 722C396.853 722 400 725.371 400 729.5Z" fill="white"/>
<path d="M239 585C239 586.659 237.659 588 236 588C234.341 588 233 586.659 233 585C233 583.341 234.341 582 236 582C237.659 582 239 583.341 239 585Z" fill="white"/>
<path d="M298 384C298 387.317 295.317 390 292 390C288.683 390 286 387.317 286 384C286 380.683 288.683 378 292 378C295.317 378 298 380.683 298 384V384Z" fill="white"/>
<path d="M370.744 596.894L360.176 590.949L354.683 602L356.918 589.798L345 587.856L356.964 586.274L355.102 574L360.246 585.219L371 579.586L362.225 588.12L370.744 596.894Z" fill="white"/>
<path d="M303 954.996L315.728 950.7L311.114 938L319.09 948.879L329.662 940.521L321.849 951.541L333 959.082L320.202 954.996L316.516 968L316.423 954.482L303 954.996Z" fill="white"/>
<path d="M233 522.837L212.163 515.898L205.833 537L205.975 514.971L184 515.447L204.956 508.793L197.702 488L210.503 505.894L227.974 492.563L214.936 510.29L233 522.837Z" fill="#DF2D4F"/>
<path d="M300 783.512L312.84 780.33L309.405 767L316.275 778.788L327.34 771.267L318.742 781.729L329 790.407L316.828 785.103L312.103 798L313.163 784.236L300 783.512Z" fill="white"/>
<path d="M451 832.798L440.362 829.234L437.146 840L437.219 828.773L426 829.016L436.687 825.621L432.987 815L439.515 824.142L448.437 817.328L441.788 826.372L451 832.798Z" fill="white"/>
<path d="M956.532 868.185C912.048 911.57 868.536 904.192 830.13 897.699C823.082 896.518 816.16 895.338 809.323 894.452C849.839 843.899 894.618 760.628 879.34 714.544C875.415 702.697 866.974 694.981 854.904 692.156C845.83 690.048 834.604 690.849 824.01 694.348C788.896 705.985 756.483 727.32 725.126 747.979C712.76 756.117 700.858 763.959 689.463 770.747C674.396 751.563 653.421 741.149 632.445 743.004C608.347 745.112 595.812 758.689 593.997 770.789C581.969 778.294 568.21 795.876 564.201 836.816C559.305 886.652 572.389 922.659 600.159 937.079C563.863 958.835 522.63 959.805 485.237 960.69C481.016 960.774 476.923 960.901 472.871 961.027C494.986 934.085 510.897 904.108 523.389 867.005C536.937 826.824 532.843 793.262 512.501 777.156C493.593 762.188 464.261 765.055 432.017 784.998C410.071 798.574 388.969 816.662 368.584 834.16C326.76 869.998 283.501 907.101 228.424 910.348C190.651 912.582 156.972 894.41 142.665 864.053C131.312 839.936 135.448 813.837 153.722 794.147C154.735 793.093 154.651 791.407 153.596 790.395C152.541 789.383 150.853 789.467 149.84 790.521C130.004 811.814 125.53 840.147 137.854 866.245C153.089 898.542 188.752 917.937 228.719 915.576C234.839 915.196 240.832 914.437 246.698 913.341C295.064 904.108 334.103 870.63 372.003 838.123C392.261 820.752 413.194 802.833 434.803 789.467C465.021 770.747 492.158 767.796 509.209 781.288C527.736 795.96 531.155 827.372 518.367 865.318C505.537 903.433 489.035 933.874 465.738 961.28C441.555 962.292 420.622 964.906 404.669 975.7C398.676 979.747 395.553 986.409 396.355 993.45C397.114 1000.03 401.208 1005.55 407.075 1007.83C409.396 1008.71 413.025 1009.51 417.752 1008.59C422.648 1007.66 428.725 1004.92 435.858 998.763C447.928 988.264 458.648 977.597 468.271 966.466C473.799 966.255 479.497 966.129 485.363 966.002C524.571 965.075 567.915 964.063 606.025 939.777C606.236 939.861 606.405 939.946 606.616 939.988C633.711 950.065 667.601 938.681 685.454 913.51C720.947 863.421 714.701 812.741 697.018 782.005C695.625 779.601 694.148 777.282 692.628 775.048C703.981 768.26 715.756 760.502 728.038 752.449C759.1 732 791.218 710.834 825.656 699.45C835.321 696.246 845.534 695.487 853.68 697.384C863.978 699.787 870.941 706.112 874.275 716.273C889.005 760.712 842.833 844.7 802.908 893.82C785.478 892.218 768.934 893.44 753.698 902.758C750.195 904.909 738.631 912.709 736.774 922.996C736.014 927.171 737.027 931.092 739.728 934.549C746.312 942.982 760.746 939.356 771.382 932.357C780.751 926.201 792.695 914.522 805.314 899.343C813.079 900.186 821.056 901.536 829.201 902.927C868.831 909.673 913.779 917.262 960.203 872.022C961.258 871.01 961.258 869.323 960.246 868.269C959.233 867.215 957.544 867.215 956.489 868.227L956.532 868.185ZM432.397 994.757C423.576 1002.43 415.262 1005.3 409.016 1002.89C405.006 1001.33 402.179 997.456 401.63 992.818C401.082 987.758 403.318 982.952 407.665 980.043C415.431 974.772 424.674 971.61 435.098 969.628C443.075 968.111 451.727 967.309 460.927 966.803C452.317 976.417 442.864 985.65 432.355 994.757H432.397ZM632.909 748.274C651.859 746.588 670.935 756.075 684.863 773.446C673.594 779.939 662.79 785.293 652.534 788.751C641.688 773.193 625.059 763.832 608.937 765.519C608.135 765.603 607.249 765.73 606.321 765.898C604.506 766.236 602.48 766.784 600.328 767.627C603.915 758.52 615.184 749.792 632.952 748.232L632.909 748.274ZM599.062 773.867C602.311 772.223 605.814 771.169 609.486 770.789C623.245 769.314 637.467 777.198 647.174 790.395C636.032 793.473 625.524 794.063 615.606 791.323C605.097 788.371 599.019 781.92 599.019 773.909L599.062 773.867ZM569.476 837.364C572.346 807.892 581.04 786.938 594.039 777.072C595.432 786.01 602.776 793.178 614.255 796.382C625.735 799.586 637.721 798.701 650.34 794.991C652.788 799.038 654.813 803.508 656.375 808.23C666.799 840.695 655.995 884.375 630.715 912.034C622.738 920.762 614.297 927.887 605.519 933.748C577.791 921.436 564.707 886.568 569.519 837.322L569.476 837.364ZM681.149 910.432C665.322 932.778 635.906 943.403 611.554 936.025C619.488 930.375 627.212 923.671 634.555 915.618C661.06 886.652 672.328 840.779 661.355 806.628C659.836 801.905 657.852 797.436 655.446 793.304C665.913 789.636 676.76 784.197 688.07 777.704C689.632 779.896 691.067 782.173 692.46 784.576C709.299 813.88 715.208 862.367 681.191 910.39L681.149 910.432ZM768.512 927.887C759.691 933.664 748.043 936.531 743.949 931.218C742.176 928.941 741.543 926.538 742.007 923.84C743.189 917.389 750.533 910.811 756.483 907.186C762.645 903.391 769.145 901.072 775.897 899.765C783.241 898.373 790.88 898.205 798.772 898.711C787.461 912.118 776.826 922.406 768.512 927.845V927.887Z" fill="white"/>
<path d="M995.451 879.653C990.397 880.708 985.174 881.468 979.868 881.932C971.697 882.608 964.242 878.176 962.094 871.381C959.989 864.713 963.4 858.002 971.234 853.486C984.374 845.889 1001.35 846.987 1020.97 848.295C1028.81 848.802 1037.15 849.35 1045.82 849.35C1055.43 841.289 1064.35 831.498 1072.52 820.018C1085.08 802.376 1088.61 778.953 1081.12 763.042C1075.18 750.465 1062.92 743.248 1045.65 742.066C1029.73 741.011 1010.28 746.919 997.388 752.828C996.125 753.419 994.609 752.828 994.019 751.562C993.429 750.296 994.019 748.776 995.24 748.186C1014.32 739.28 1031.33 730.797 1046.29 717.461C1067.64 698.426 1077.87 675.383 1073.03 657.235C1069.83 645.164 1060.48 636.976 1046.79 634.106C1008.84 626.214 966.39 659.809 945.711 695.472C944.995 696.696 943.437 697.076 942.257 696.401C941.036 695.683 940.657 694.121 941.331 692.94C962.895 655.757 1007.54 620.812 1047.8 629.168C1063.26 632.376 1074.25 642.125 1077.92 655.926C1083.31 676.227 1072.74 700.621 1049.66 721.259C1042.07 728.012 1034.03 733.541 1025.52 738.479C1032.47 737.17 1039.46 736.537 1045.95 736.959C1070.21 738.563 1080.95 750.802 1085.67 760.805C1093.92 778.32 1090.21 803.854 1076.65 822.93C1069.53 832.89 1061.91 841.627 1053.74 849.139C1059.3 848.886 1064.94 848.337 1070.63 847.324C1185.52 827.108 1351.89 653.774 1401.12 538.555C1401.67 537.247 1403.14 536.656 1404.45 537.204C1405.75 537.753 1406.34 539.273 1405.8 540.539C1357.32 653.985 1194.33 826.644 1081.37 850.405C1078.08 851.081 1074.8 851.714 1071.51 852.305C1063.43 853.74 1055.43 854.288 1047.68 854.33C1032.01 867.118 1014.57 875.559 995.451 879.569V879.653ZM984.837 853.782C980.836 854.626 977.13 855.934 973.803 857.876C968.117 861.168 965.632 865.557 966.98 869.862C968.201 873.787 972.876 877.459 979.489 876.91C1001.64 875.053 1021.69 867.498 1039.51 854.373C1032.98 854.204 1026.66 853.782 1020.68 853.36C1007.2 852.473 995.03 851.672 984.88 853.782H984.837Z" fill="white"/>
<path d="M181.588 330.51C179.695 323.354 181.953 312.837 187.677 308.196C193.424 303.555 201.931 302.663 208.499 306.024C219.971 311.9 222.548 326.989 223.072 339.907C225.991 410.484 174.381 451.568 179.33 522.008C180.128 533.325 194.77 599.169 135.862 602.393C110.091 603.788 103.044 565.516 130.776 554.473C143.228 549.512 162.727 550.518 174.564 556.828C185.465 562.635 196.708 571.208 203.984 581.268C220.541 604.108 232.24 633.623 230.895 669.952C228.386 737.877 184.963 750.703 148.086 797" stroke="white" stroke-width="5" stroke-miterlimit="10" stroke-linecap="round"/>
<path d="M135.729 211.316C134.814 216.449 132.733 218.695 130.127 222.041C129.349 223.026 127.772 222.499 127.749 221.262C127.589 215.922 126.697 213.447 126.972 206.458C123.519 206.091 119.266 204.281 115.539 203.433C114.899 203.296 114.808 202.448 115.379 202.127C118.26 200.523 120.912 198.117 123.931 197.017C120.867 192.479 121.027 185.009 120.958 179.096C120.958 178.363 121.873 177.996 122.353 178.546C125.828 182.534 130.493 188.652 134.357 190.852C135.591 186.659 139.387 183.519 142.336 178.5C142.794 177.721 143.96 177.882 144.143 178.775C144.943 182.9 145.469 188.698 145.286 191.952C148.03 192.319 150.842 192.158 153.54 191.54C154.477 191.31 155.323 192.227 154.958 193.144C154.02 195.573 152.511 197.773 150.568 199.514C170.711 204.968 177.89 209.506 191.838 217.068C200.686 221.858 211.638 233.201 217.126 241.657C222.613 250.113 226.569 263.221 219.778 277.2C215.365 286.275 193.187 293.264 183.927 289.3C179.079 286.481 179.445 276.535 183.629 272.8C187.814 269.065 194.467 269.225 199.406 271.906C201.029 272.8 202.561 273.946 203.636 275.458C206.974 280.133 205.122 287.008 201.075 291.064C197.028 295.12 191.358 297.022 185.916 298.787C175.581 302.156 165.109 305.547 154.272 305.983C159.85 284.556 159.462 261.594 153.174 240.351C150.911 232.651 145.812 212.531 131.179 199.629C147.778 202.173 163.006 210.743 175.741 221.72C188.477 232.697 198.926 246.034 208.895 259.555C216.966 270.508 225.151 282.906 224.031 296.472C223.093 307.632 215.731 317.486 206.54 323.857C197.348 330.228 187.173 336.415 176.359 339.257C165.475 342.121 152.374 342.969 142.748 343.932C136.026 344.619 129.738 340.059 128.709 333.367C127.497 325.484 131.476 322.299 134.837 319.961C139.753 316.547 145.172 314.805 149.173 313.522C169.225 307.174 190.923 311.162 209.603 301.468C217.949 297.137 225.105 290.766 233.199 285.977C241.293 281.187 251.125 277.979 260.111 280.775C263.632 281.875 267.016 284.029 268.731 287.306C270.72 291.133 270.148 295.831 268.548 299.841C263.426 312.537 249.456 319.572 237.452 324.659C226.02 329.494 214.085 333.115 201.852 335.269C197.302 336.071 192.501 336.553 188.294 334.696C183.858 332.748 181.64 329.769 181.64 325.232" stroke="white" stroke-width="5" stroke-miterlimit="10"/>
<path d="M443.102 253.66C443.102 258.772 438.948 262.925 433.832 262.925C428.717 262.925 424.562 258.772 424.562 253.66C424.562 248.547 428.717 244.395 433.832 244.395C438.948 244.395 443.102 248.547 443.102 253.66Z" fill="white"/>
<path d="M1921 458.399C1921 461.514 1918.48 464.031 1915.37 464.031C1912.25 464.031 1909.73 461.514 1909.73 458.399C1909.73 455.285 1912.25 452.768 1915.37 452.768C1918.48 452.768 1921 455.285 1921 458.399Z" fill="white"/>
<path d="M1317 525C1317 528.877 1313.86 532 1310 532C1306.14 532 1303 528.86 1303 525C1303 521.14 1306.14 518 1310 518C1313.86 518 1317 521.14 1317 525Z" fill="white"/>
<path d="M1294.19 563.589C1294.19 569.454 1289.44 574.177 1283.59 574.177C1277.75 574.177 1273 569.428 1273 563.589C1273 557.749 1277.75 553 1283.59 553C1289.44 553 1294.19 557.749 1294.19 563.589Z" fill="white"/>
<path d="M1282 523C1282 525.77 1279.76 528 1277 528C1274.24 528 1272 525.757 1272 523C1272 520.243 1274.24 518 1277 518C1279.76 518 1282 520.243 1282 523Z" fill="white"/>
<path d="M275.101 1018.87C275.101 1026.19 269.155 1032.11 261.858 1032.11C254.562 1032.11 248.615 1026.16 248.615 1018.87C248.615 1011.58 254.562 1005.63 261.858 1005.63C269.155 1005.63 275.101 1011.58 275.101 1018.87Z" fill="white"/>
<path d="M1014.75 1060.71C1014.75 1063.64 1012.39 1066 1009.45 1066C1006.52 1066 1004.16 1063.64 1004.16 1060.71C1004.16 1057.77 1006.52 1055.41 1009.45 1055.41C1012.39 1055.41 1014.75 1057.77 1014.75 1060.71Z" fill="white"/>
<path d="M19.5663 317.037C19.5663 322.149 15.4117 326.302 10.2963 326.302C5.18097 326.302 1.02637 322.149 1.02637 317.037C1.02637 311.924 5.18097 307.771 10.2963 307.771C15.4117 307.771 19.5663 311.924 19.5663 317.037Z" fill="white"/>
<path d="M1628.54 52.3718C1628.54 58.2371 1623.79 62.9605 1617.95 62.9605C1612.11 62.9605 1607.35 58.2112 1607.35 52.3718C1607.35 46.5325 1612.11 41.7832 1617.95 41.7832C1623.79 41.7832 1628.54 46.5325 1628.54 52.3718Z" fill="white"/>
<path d="M932.697 1026.58L913.066 1015.83L902.913 1035.74L907.068 1013.78L884.971 1010.28L907.146 1007.42L903.666 985.365L913.222 1005.56L933.164 995.435L916.883 1010.75L932.697 1026.58Z" fill="white"/>
<path d="M1726.62 531.041L1750.32 523.125L1741.7 499.664L1756.58 519.751L1776.24 504.31L1761.72 524.656L1782.47 538.567L1758.63 531.067L1751.8 555.099L1751.6 530.106L1726.62 531.041Z" fill="white"/>
<path d="M362.529 41.3424L371.384 24.2656L354.038 15.9349L373.019 19.0492L375.616 0L378.498 18.9973L397.428 15.5715L380.212 24.1878L389.352 41.1088L375.824 27.4318L362.529 41.3424Z" fill="white"/>
<path d="M1054.38 247.794L1037.91 243.382L1033.99 259.94L1033.11 242.941L1016.13 244.317L1032.02 238.218L1025.47 222.517L1036.17 235.752L1049.1 224.671L1039.83 238.919L1054.38 247.794Z" fill="white"/>
<path d="M1323.75 91.8982L1285.79 79.2853L1274.26 117.565L1274.54 77.5984L1234.56 78.4548L1272.67 66.3609L1259.48 28.626L1282.78 61.1445L1314.61 36.9308L1290.88 69.1119L1323.75 91.8982Z" fill="white"/>
<path d="M679.059 993.567L703.077 987.857L696.69 964.007L709.543 985.08L730.238 971.637L714.165 990.375L733.354 1005.89L710.556 996.396L701.727 1019.44L703.727 994.838L679.059 993.567Z" fill="white"/>
<path d="M1164.16 586.164L1145.18 579.857L1139.42 599.01L1139.54 579.027L1119.55 579.468L1138.61 573.421L1132.01 554.554L1143.67 570.8L1159.59 558.68L1147.72 574.771L1164.16 586.164Z" fill="white"/>
<path d="M1317.23 203.597L1334.63 183.043L1313.54 166.277L1338.5 176.451L1347.92 151.251L1345.98 178.086L1372.88 179.28L1346.73 185.69L1353.9 211.643L1339.69 188.778L1317.23 203.597Z" fill="white"/>
<path d="M362.529 1090.34L371.384 1073.27L354.038 1064.93L373.019 1068.05L375.616 1049L378.498 1068L397.428 1064.57L380.212 1073.19L389.352 1090.11L375.824 1076.43L362.529 1090.34Z" fill="white"/>
<path d="M294.741 427.738C267.286 427.738 246 408.314 246 378.81C246 349.306 268.415 329.881 294.741 329.881C314.918 329.881 329.491 338.662 336.204 353.048L316.027 364.631C310.236 355.85 302.958 351.938 294.553 351.938C280.732 351.938 269.9 362.394 269.9 378.828C269.9 395.263 280.355 405.719 294.553 405.719C306.136 405.719 312.116 400.115 317.72 392.274L337.145 402.917C327.799 418.788 314.542 427.757 294.741 427.757V427.738Z" fill="white"/>
<path d="M429.775 294.378V347.049H486.921V294.378H511.573V425.124H486.921V369.84H429.775V425.124H405.122V294.378H429.775Z" fill="white"/>
<path d="M646.588 332.476H689.725C710.654 332.476 722.031 342.555 722.031 355.454C722.031 366.286 716.615 372.077 708.21 376.196C717.913 378.997 725.397 386.087 725.397 398.046C725.397 414.293 710.824 425.124 691.775 425.124H646.569V332.476H646.588ZM687.676 367.959C695.893 367.959 699.823 365.534 699.823 359.178C699.823 352.822 695.893 350.396 687.676 350.396H669.736V367.959H687.676V367.959ZM688.616 407.185C698.319 407.185 702.061 402.898 702.061 396.354C702.061 389.81 698.319 385.899 688.616 385.899H669.755V407.185H688.616Z" fill="white"/>
<path d="M742.227 332.476H765.77V362.732H784.442C806.105 362.732 821.242 372.999 821.242 393.928C821.242 414.857 806.124 425.124 784.442 425.124H742.227V332.476ZM782.75 407.185C794.145 407.185 798.433 401.393 798.433 393.928C798.433 386.463 794.145 380.671 782.75 380.671H765.751V407.185H782.75V407.185ZM854.846 332.476V425.124H831.303V332.476H854.846Z" fill="white"/>
<path d="M875.568 332.476H906.389L931.981 397.482L957.574 332.476H988.394V425.124H965.979V366.474L941.139 425.124H922.842L898.002 366.474V425.124H875.587V332.476H875.568Z" fill="white"/>
<path d="M1061.58 332.476H1124.9V353.762H1085.11V425.106H1061.56V332.457L1061.58 332.476Z" fill="white"/>
<path d="M1184.66 427.738C1159.25 427.738 1134.03 411.304 1134.03 378.81C1134.03 346.316 1159.25 329.881 1184.66 329.881C1210.06 329.881 1235.28 346.316 1235.28 378.81C1235.28 411.304 1210.06 427.738 1184.66 427.738ZM1211.36 378.81C1211.36 361.811 1198.48 351.92 1184.66 351.92C1170.83 351.92 1157.95 361.811 1157.95 378.81C1157.95 395.809 1170.83 405.7 1184.66 405.7C1198.48 405.7 1211.36 395.809 1211.36 378.81Z" fill="white"/>
<path d="M1241.61 403.838H1251.88C1255.81 396.918 1258.8 388.343 1259.72 371.532L1261.96 332.494H1334.62V403.838H1348.63V446.787H1327.34V425.124H1262.9V446.787H1241.61V403.838ZM1311.1 403.838V353.781H1281.59L1280.46 372.265C1279.33 389.64 1277.85 396.918 1274.11 403.838H1311.1V403.838Z" fill="white"/>
<path d="M1474.5 332.476H1505.33L1530.92 397.482L1556.51 332.476H1587.33V425.124H1564.92V366.474L1540.08 425.124H1521.78L1496.94 366.474V425.124H1474.52V332.476H1474.5Z" fill="white"/>
<path d="M1621.35 339.772V294.378H1646V339.772L1643.01 386.275H1624.34L1621.35 339.772ZM1621.35 399.362H1646V425.143H1621.35V399.362Z" fill="white"/>
<path d="M1398.42 327.567C1373.38 327.567 1348.54 343.777 1348.54 375.8C1348.54 378.132 1348.69 380.37 1348.93 382.514L1372.34 372.077C1374.07 357.617 1385.84 349.286 1398.42 349.286C1412.06 349.286 1424.75 359.046 1424.75 375.8C1424.75 392.555 1412.04 402.315 1398.42 402.315C1393.57 402.315 1388.85 401.055 1384.77 398.704L1365.14 412.789C1374.35 420.273 1386.37 424.033 1398.42 424.033C1423.47 424.033 1448.31 407.824 1448.31 375.8C1448.31 343.777 1423.45 327.567 1398.42 327.567V327.567Z" fill="#DF2D4F"/>
<path d="M1448.71 298.007C1446.05 282.87 1443.4 267.77 1440.75 252.651L1441.32 242.911C1444 234.054 1446.62 225.423 1449.23 216.773C1449.98 214.29 1450.85 211.808 1451.39 209.27C1451.56 208.48 1451.15 207.201 1450.55 206.731C1449.95 206.261 1448.78 206.449 1447.86 206.468C1447.5 206.468 1447.16 206.806 1446.82 206.994C1437.14 212.316 1427.48 217.694 1417.75 222.978C1409.14 227.66 1402.5 234.261 1397.75 242.817C1389.83 257.051 1381.87 271.268 1373.94 285.502C1375.41 286.085 1413.6 300.941 1448.71 298.007Z" fill="#C13355"/>
<path d="M1449.51 302.558C1444.61 302.953 1409.69 305.059 1371.76 289.414C1369.6 293.288 1367.43 297.18 1365.27 301.054C1377.96 306.846 1407.96 317.696 1451.9 316.173C1451.09 311.622 1450.3 307.09 1449.51 302.558V302.558Z" fill="#C13355"/>
<path d="M1473.08 329.522C1469.6 326.645 1465.74 324.408 1461.74 322.414C1439.28 324.05 1420.09 322.584 1404.42 319.857C1375.31 314.799 1358.37 305.415 1355.23 303.554C1348.74 304.306 1342.35 305.434 1336.5 308.631C1330.29 312.034 1328.9 318.165 1333.23 323.712C1334.22 324.991 1335.37 326.138 1336.58 327.228C1341.2 331.365 1346.64 334.224 1352.24 336.743C1362.92 341.576 1374.07 344.998 1385.47 347.706C1388.04 348.308 1390.6 348.966 1393.18 349.605C1398.59 350.546 1404.03 351.486 1409.44 352.426C1412.07 352.689 1414.71 352.953 1417.34 353.235C1428.98 354.551 1440.62 355.078 1452.32 354.137C1458.33 353.648 1464.31 352.802 1469.99 350.602C1473.92 349.079 1477.44 347.048 1479.34 343.024L1479.85 340.109C1479.28 335.483 1476.46 332.324 1473.06 329.504L1473.08 329.522Z" fill="#247DA5"/>
<path d="M1422.69 290.436L1402.62 286.945L1399.63 304.137L1419.69 307.628L1422.69 290.436Z" fill="white"/>
<path d="M1456.3 188.396L1458.5 201.296L1471.1 197.78L1463.54 208.461L1474.92 214.873L1462.04 217.092L1465.55 229.672L1454.87 222.131L1448.44 233.508L1446.24 220.627L1433.64 224.125L1441.2 213.463L1429.83 207.032L1442.71 204.831L1439.19 192.233L1449.87 199.792L1456.3 188.396Z" fill="white"/>
<path d="M583.349 434.826C614.62 434.826 639.969 409.477 639.969 378.207C639.969 346.936 614.62 321.587 583.349 321.587C552.079 321.587 526.729 346.936 526.729 378.207C526.729 409.477 552.079 434.826 583.349 434.826Z" fill="#DF2D4F"/>
<path d="M583.35 422.265C607.682 422.265 627.408 402.54 627.408 378.207C627.408 353.874 607.682 334.148 583.35 334.148C559.017 334.148 539.291 353.874 539.291 378.207C539.291 402.54 559.017 422.265 583.35 422.265Z" fill="white"/>
<path d="M624.795 436.331H539.686C535.189 436.331 531.544 439.972 531.544 444.464C531.544 448.956 535.189 452.597 539.686 452.597H624.795C629.291 452.597 632.937 448.956 632.937 444.464C632.937 439.972 629.291 436.331 624.795 436.331Z" fill="#247DA5"/>
<path d="M611.801 420.065H552.699C548.202 420.065 544.557 423.707 544.557 428.198C544.557 432.69 548.202 436.331 552.699 436.331H611.801C616.298 436.331 619.943 432.69 619.943 428.198C619.943 423.707 616.298 420.065 611.801 420.065Z" fill="#247DA5"/>
<path d="M597.076 343.307L600.254 349.757L607.4 350.81L602.229 355.83L603.451 362.938L597.076 359.572L590.702 362.938L591.905 355.83L586.753 350.81L593.88 349.757L597.076 343.307Z" fill="#DF2D4F"/>
<path d="M619.925 348.384L623.122 354.852L630.248 355.887L625.096 360.907L626.3 368.015L619.925 364.65L613.55 368.015L614.772 360.907L609.62 355.887L616.747 354.852L619.925 348.384Z" fill="#DF2D4F"/>
<path d="M539.517 365.587C539.517 365.587 557.671 356.18 569.345 373.248C581.018 390.317 612.327 393.791 625.981 379.032L627.981 376.76C627.981 376.76 630.155 416.999 587.403 423.459C544.652 429.918 533.517 376.741 539.498 365.606" fill="#92BED2"/>
<path d="M1545.79 947.181C1385.01 995.928 1320.33 977.614 1295.82 875.074C1269.36 764.391 1438.57 714.253 1402.77 596.18L1432.21 577.15C1472.65 722.914 1617.42 701.302 1646.59 768.761C1671.69 826.884 1682.5 905.784 1545.79 947.221V947.181Z" fill="white"/>
<path d="M1542.93 935.263C1399.71 978.686 1341.91 961.802 1319.58 868.757C1295.46 768.364 1446.19 723.709 1413.7 616.561L1431.22 602.06C1467.97 734.316 1605.7 712.783 1632.04 774.045C1654.73 826.804 1664.7 898.355 1542.93 935.263Z" fill="#123845"/>
<path d="M1542.93 935.263C1664.7 898.355 1654.73 826.804 1632.04 774.045C1627.48 763.437 1621.87 756.922 1611.74 750.049C1579.88 771.82 1391.09 822.633 1320.02 824.222C1314.81 838.246 1316.44 855.607 1319.58 868.758C1341.91 961.762 1399.71 978.686 1542.93 935.263Z" fill="#C13355"/>
<path d="M1444.8 636.862L1418.27 643.02L1384.34 532.972L1428.91 523L1444.8 636.862Z" fill="#519ACF"/>
<path d="M1440.16 572.456L1397.08 582.07C1387.98 584.101 1382.25 593.125 1384.28 602.226L1385.31 606.879C1387.35 615.981 1396.37 621.712 1405.47 619.681L1448.55 610.068C1457.65 608.037 1463.38 599.012 1461.35 589.911L1460.31 585.258C1458.28 576.157 1449.26 570.425 1440.16 572.456Z" fill="white"/>
<path d="M1404.72 832.286C1410.2 832.286 1414.65 827.839 1414.65 822.354C1414.65 816.869 1410.2 812.422 1404.72 812.422C1399.23 812.422 1394.79 816.869 1394.79 822.354C1394.79 827.839 1399.23 832.286 1404.72 832.286Z" fill="#E99392"/>
<path d="M1465.38 757.676C1470.87 757.676 1475.32 753.229 1475.32 747.744C1475.32 742.259 1470.87 737.812 1465.38 737.812C1459.9 737.812 1455.45 742.259 1455.45 747.744C1455.45 753.229 1459.9 757.676 1465.38 757.676Z" fill="#E99392"/>
<path d="M1431.77 748.976C1435.06 748.976 1437.73 746.308 1437.73 743.016C1437.73 739.725 1435.06 737.057 1431.77 737.057C1428.48 737.057 1425.81 739.725 1425.81 743.016C1425.81 746.308 1428.48 748.976 1431.77 748.976Z" fill="#E99392"/>
<path d="M1442.94 689.502C1446.23 689.502 1448.9 686.834 1448.9 683.543C1448.9 680.252 1446.23 677.583 1442.94 677.583C1439.65 677.583 1436.98 680.252 1436.98 683.543C1436.98 686.834 1439.65 689.502 1442.94 689.502Z" fill="#E99392"/>
<path d="M1520.61 822.672C1526.09 822.672 1530.54 818.225 1530.54 812.74C1530.54 807.254 1526.09 802.808 1520.61 802.808C1515.12 802.808 1510.67 807.254 1510.67 812.74C1510.67 818.225 1515.12 822.672 1520.61 822.672Z" fill="#E99392"/>
<path d="M1445.28 904.632C1450.77 904.632 1455.21 900.185 1455.21 894.7C1455.21 889.214 1450.77 884.768 1445.28 884.768C1439.8 884.768 1435.35 889.214 1435.35 894.7C1435.35 900.185 1439.8 904.632 1445.28 904.632Z" fill="#E99392"/>
<path d="M1480.12 872.134C1492.19 872.134 1501.97 862.351 1501.97 850.283C1501.97 838.215 1492.19 828.433 1480.12 828.433C1468.06 828.433 1458.27 838.215 1458.27 850.283C1458.27 862.351 1468.06 872.134 1480.12 872.134Z" fill="#E99392"/>
<path d="M1570.23 892.713C1582.3 892.713 1592.08 882.93 1592.08 870.862C1592.08 858.795 1582.3 849.012 1570.23 849.012C1558.16 849.012 1548.38 858.795 1548.38 870.862C1548.38 882.93 1558.16 892.713 1570.23 892.713Z" fill="#E99392"/>
<path d="M249.931 797.926L238.31 832.202L259.948 861.196L223.767 860.74L202.872 890.282L192.125 855.719L157.574 844.984L187.116 824.09L186.66 787.909L215.654 809.547L249.931 797.926Z" fill="white"/>
<path d="M227.523 820.333L222.932 833.872L231.488 845.336L217.18 845.154L208.923 856.84L204.672 843.171L191.016 838.932L202.689 830.676L202.506 816.368L213.971 824.924L227.523 820.333Z" fill="#247DA5"/>
<path d="M0.459961 1058L210.333 841.436L206.407 837.523L0.459961 1050.16V1058Z" fill="#247DA5"/>
<path d="M226.114 766L222.88 789.675L226.873 790.22L230.108 766.546L226.114 766Z" fill="#247DA5"/>
<path d="M258.554 820.694L258.009 824.687L281.683 827.922L282.229 823.928L258.554 820.694Z" fill="#247DA5"/>
<path d="M284.583 768.451L258.689 789.159L261.198 792.296L287.092 771.589L284.583 768.451Z" fill="#247DA5"/>
</svg>
