<svg width="352" height="78" viewBox="0 0 352 78" fill="none" xmlns="http://www.w3.org/2000/svg">
<g clip-path="url(#clip0_1_1126)">
<path d="M37.4499 74.94H5.17219C2.5399 74.94 0.912109 72.6438 0.912109 70.5116C0.912109 69.3276 1.37572 68.2154 2.21537 67.3799L16.0362 53.6282L37.455 74.94H37.4499ZM16.031 55.8014L3.30229 68.4665C2.7511 69.015 2.45233 69.7377 2.45233 70.5116C2.45233 71.6802 3.31774 73.4024 5.17219 73.4024H33.7255L16.031 55.8014Z" fill="white"/>
<path d="M5.17169 74.1712C2.87424 74.1712 0.00499439 72.3414 0.00499439 68.7126V28.0263C-0.000156858 22.5266 -0.278324 18.6569 3.66753 14.7358L18.4722 0L44.7281 26.1657L2.76091 67.9233C2.0964 68.5844 1.6843 69.5019 1.6843 70.5116C1.6843 72.2184 2.97726 74.1712 5.17169 74.1712Z" fill="white"/>
<path d="M230.724 41.901L240.898 53.4077H234.289L226.418 44.5406V53.4077H220.937V31.9523H226.418V39.738L234.155 31.9523H240.635L230.724 41.901ZM66.8012 37.7493C70.7985 37.7493 72.6272 35.8477 72.6272 32.9928C72.6272 30.1379 70.7985 28.2364 66.8012 28.2364H58.8889V37.7544H66.8012M66.9763 23.1313C73.8481 23.1313 78.3657 26.6372 78.3657 32.9928C78.3657 39.3485 73.8429 42.8543 66.9763 42.8543H58.8889V53.4077H53.1504V23.1262H66.9763M91.3211 48.9075C94.5406 48.9075 97.5387 46.6164 97.5387 42.68C97.5387 38.7436 94.5406 36.4525 91.3211 36.4525C88.1016 36.4525 85.1036 38.7436 85.1036 42.68C85.1036 46.6164 88.1016 48.9075 91.3211 48.9075ZM91.3211 31.3424C97.2347 31.3424 103.102 35.1507 103.102 42.6749C103.102 50.1992 97.2347 54.0074 91.3211 54.0074C85.4075 54.0074 79.5402 50.1992 79.5402 42.6749C79.5402 35.1507 85.4075 31.3424 91.3211 31.3424ZM117.088 48.9075C113.786 48.9075 111.349 46.5293 111.349 42.68C111.349 38.8308 113.868 36.4525 117.088 36.4525C119.045 36.4525 120.74 37.3598 122.089 39.3946L126.787 36.7139C125.221 33.3824 121.832 31.3475 117.134 31.3475C111.004 31.3475 105.786 35.8477 105.786 42.68C105.786 49.5123 110.741 54.0125 117.134 54.0125C121.744 54.0125 124.83 51.9367 127.004 48.2617L122.481 45.7963C121.178 47.6108 119.787 48.9127 117.088 48.9127M175.415 44.1101C175.152 47.3955 174.503 48.1336 173.37 48.1336C172.597 48.1336 172.232 48.0464 171.706 47.9132L171.732 53.4641C171.732 53.4641 172.412 53.6691 173.674 53.6691C178.326 53.6691 180.067 50.6861 180.499 44.3253L181.02 36.8421H187.191V53.3667H192.672V31.9523H176.322L175.41 44.1101H175.415ZM165.314 39.8251C164.793 37.1445 162.748 35.4992 159.704 35.4992C156.835 35.4992 154.661 37.4008 153.878 39.8251H165.314ZM159.879 31.3475C166.05 31.3475 170.403 35.8016 170.403 42.0752V43.9768H153.795C154.141 47.2622 156.49 49.3432 159.709 49.3432C162.625 49.3432 163.84 48.0875 165.185 46.4012L169.532 48.5641C167.359 52.2391 164.361 54.0125 159.621 54.0125C153.62 54.0125 148.536 49.4713 148.536 42.68C148.536 35.8887 153.62 31.3475 159.884 31.3475M212.53 39.8251C212.01 37.1445 209.965 35.4992 206.92 35.4992C204.051 35.4992 201.877 37.4008 201.094 39.8251H212.53ZM207.095 31.3475C213.267 31.3475 217.619 35.8016 217.619 42.0752V43.9768H201.012C201.357 47.2622 203.706 49.3432 206.925 49.3432C209.841 49.3432 211.057 48.0875 212.401 46.4012L216.749 48.5641C214.575 52.2391 211.577 54.0125 206.838 54.0125C200.837 54.0125 195.752 49.4713 195.752 42.68C195.752 35.8887 200.837 31.3475 207.1 31.3475M128.714 36.7139H135.148V53.4129H140.624V36.7139H147.058V31.9575H128.709V36.7139H128.714ZM251.782 48.9127C255.002 48.9127 258 46.6216 258 42.6852C258 38.7488 255.002 36.4577 251.782 36.4577C248.563 36.4577 245.565 38.7488 245.565 42.6852C245.565 46.6216 248.563 48.9127 251.782 48.9127ZM251.782 31.3475C257.696 31.3475 263.563 35.1558 263.563 42.68C263.563 50.2043 257.696 54.0125 251.782 54.0125C245.869 54.0125 240.001 50.2043 240.001 42.68C240.001 35.1558 245.869 31.3475 251.782 31.3475ZM285.363 31.9472L279.419 46.9752L273.474 31.9472H266.314V53.3667H271.522V39.8098L277.296 53.3667H281.551L287.326 39.8098V53.3667H292.534V31.9472H285.374H285.363Z" fill="white"/>
<path d="M52.2129 59.1125H54.9018V69.8505C55.0255 69.5378 55.5303 68.7024 55.5303 68.7024L61.4748 59.1125H64.2874V73.7407H61.5985V62.9362C61.4748 63.2488 60.97 64.0843 60.97 64.0843L55.0255 73.7356H52.2129V59.1074V59.1125Z" fill="white"/>
<path d="M66.9141 63.377H69.5618V67.2416H73.8889V63.377H76.5366V73.7407H73.8889V69.5429H69.5618V73.7407H66.9141V63.377Z" fill="white"/>
<path d="M86.4433 73.9458V78H83.8832V73.9458C80.6276 73.5511 78.4229 71.5829 78.4229 68.5537C78.4229 65.5246 80.6276 63.5615 83.8832 63.1617V59.1074H86.4433V63.1617C89.6989 63.5564 91.9037 65.5246 91.9037 68.5537C91.9037 71.5829 89.6989 73.546 86.4433 73.9458ZM83.8832 71.4599V65.6527C82.1833 65.9243 81.1118 66.8418 81.1118 68.5589C81.1118 70.2759 82.1833 71.1934 83.8832 71.465V71.4599ZM89.2147 68.5537C89.2147 66.8418 88.1432 65.9192 86.4433 65.6476V71.4548C88.1432 71.1831 89.2147 70.2657 89.2147 68.5486V68.5537Z" fill="white"/>
<path d="M98.9402 74.0328C96.0864 74.0328 93.248 72.1927 93.248 68.5588C93.248 64.9248 96.0812 63.0847 98.9402 63.0847C101.799 63.0847 104.632 64.9248 104.632 68.5588C104.632 72.1927 101.799 74.0328 98.9402 74.0328ZM101.943 68.5588C101.943 66.6572 100.496 65.5501 98.9402 65.5501C97.3845 65.5501 95.937 66.6572 95.937 68.5588C95.937 70.4603 97.3845 71.5674 98.9402 71.5674C100.496 71.5674 101.943 70.4603 101.943 68.5588Z" fill="white"/>
<path d="M109.273 63.3769V64.8581C109.963 63.8535 111.307 63.0796 112.884 63.0796C115.485 63.0796 117.669 65.1042 117.669 68.5536C117.669 72.0031 115.423 74.0277 112.652 74.0277C111.184 74.0277 110.025 73.4024 109.273 72.4593V77.9948H106.625V63.3666H109.273V63.3769ZM109.103 68.5588C109.103 70.2502 110.344 71.5674 112.044 71.5674C113.744 71.5674 114.985 70.2502 114.985 68.5588C114.985 66.8673 113.744 65.5501 112.044 65.5501C110.344 65.5501 109.103 66.8673 109.103 68.5588Z" fill="white"/>
<path d="M119.561 63.377H123.027L125.902 70.65L128.776 63.377H132.243V73.7407H129.724V67.1801L126.932 73.7407H124.877L122.085 67.1801V73.7407H119.566V63.377H119.561Z" fill="white"/>
<path d="M141.149 72.0851C140.412 73.3819 139.155 74.0277 137.661 74.0277C135.606 74.0277 134.153 72.7514 134.153 70.7884C134.153 68.6766 135.75 67.7182 137.873 67.426L140.999 67.0057V66.4829C140.999 65.4783 140.371 64.9145 139.047 64.9145C137.893 64.9145 137.218 65.4373 137.218 66.0831C137.218 66.1651 137.218 66.2933 137.239 66.3753L134.741 66.6469C134.699 66.4573 134.699 66.2523 134.699 66.1036C134.699 64.4942 136.317 63.0745 139.047 63.0745C141.968 63.0745 143.647 64.3046 143.647 66.8366V71.1625C143.647 72.2901 143.75 73.0231 143.982 73.7304H141.355C141.252 73.3101 141.144 72.7463 141.144 72.08L141.149 72.0851ZM140.999 69.0149V68.8253L138.48 69.1789C137.347 69.3481 136.739 69.7633 136.739 70.6397C136.739 71.5162 137.409 71.8955 138.228 71.8955C139.763 71.8955 140.999 71.019 140.999 69.0098V69.0149Z" fill="white"/>
<path d="M154.357 73.7407H145.79V63.377H148.438V71.3574H152.554V63.377H155.201V71.3574H156.757V76.1651H154.362V73.7407H154.357Z" fill="white"/>
<path d="M158.185 63.377H160.704V70.2093L165.242 63.377H167.972V73.7407H165.453V66.9084L160.92 73.7407H158.19V63.377H158.185Z" fill="white"/>
<path d="M175.55 74.0328C172.696 74.0328 169.857 72.1927 169.857 68.5588C169.857 64.9248 172.691 63.0847 175.55 63.0847C178.408 63.0847 181.242 64.9248 181.242 68.5588C181.242 72.1927 178.408 74.0328 175.55 74.0328ZM178.553 68.5588C178.553 66.6572 177.105 65.5501 175.55 65.5501C173.994 65.5501 172.546 66.6572 172.546 68.5588C172.546 70.4603 173.994 71.5674 175.55 71.5674C177.105 71.5674 178.553 70.4603 178.553 68.5588Z" fill="white"/>
<path d="M183.132 63.377H185.78V67.2416H190.107V63.377H192.754V73.7407H190.107V69.5429H185.78V73.7407H183.132V63.377Z" fill="white"/>
<path d="M195.083 63.377H197.731V67.2416H202.058V63.377H204.706V73.7407H202.058V69.5429H197.731V73.7407H195.083V63.377Z" fill="white"/>
<path d="M207.028 63.377H209.676V66.7598H211.778C214.214 66.7598 215.914 67.9079 215.914 70.2503C215.914 72.5926 214.214 73.7407 211.778 73.7407H207.033V63.377H207.028ZM211.587 71.7367C212.87 71.7367 213.349 71.0908 213.349 70.2554C213.349 69.4199 212.865 68.7741 211.587 68.7741H209.676V71.7418H211.587V71.7367ZM219.695 63.377V73.7407H217.047V63.377H219.695Z" fill="white"/>
<path d="M226.979 71.7725C228.386 71.7725 228.973 71.1676 229.627 70.3527L231.729 71.3983C230.678 73.1768 229.23 74.0328 226.943 74.0328C224.043 74.0328 221.586 71.8391 221.586 68.5588C221.586 65.2784 224.043 63.0847 227.067 63.0847C230.091 63.0847 232.151 65.2374 232.151 68.2666V69.1841H224.131C224.301 70.773 225.434 71.7725 226.984 71.7725H226.979ZM224.167 67.1749H229.689C229.436 65.8781 228.447 65.0837 226.979 65.0837C225.594 65.0837 224.543 66.0011 224.167 67.1749Z" fill="white"/>
<path d="M243.401 61.6599H238.909V59.1125H250.669V61.6599H246.178V73.7356H243.406V61.6599H243.401Z" fill="white"/>
<path d="M254.765 71.7725C256.172 71.7725 256.759 71.1676 257.413 70.3527L259.515 71.3983C258.464 73.1768 257.017 74.0328 254.729 74.0328C251.829 74.0328 249.372 71.8391 249.372 68.5588C249.372 65.2784 251.829 63.0847 254.853 63.0847C257.877 63.0847 259.937 65.2374 259.937 68.2666V69.1841H251.917C252.087 70.773 253.22 71.7725 254.771 71.7725H254.765ZM251.953 67.1749H257.475C257.223 65.8781 256.234 65.0837 254.765 65.0837C253.38 65.0837 252.329 66.0011 251.953 67.1749Z" fill="white"/>
<path d="M267.112 63.377H270.177L266.922 68.2052L270.574 73.7407H267.489L265.346 70.3374L263.182 73.7407H260.138L263.939 68.2667L260.581 63.377H263.604L265.346 66.155L267.107 63.377H267.112Z" fill="white"/>
<path d="M271.815 63.377H274.463V67.2416H278.79V63.377H281.438V73.7407H278.79V69.5429H274.463V73.7407H271.815V63.377Z" fill="white"/>
<path d="M289.015 74.0328C286.162 74.0328 283.323 72.1927 283.323 68.5588C283.323 64.9248 286.156 63.0847 289.015 63.0847C291.874 63.0847 294.707 64.9248 294.707 68.5588C294.707 72.1927 291.874 74.0328 289.015 74.0328ZM292.019 68.5588C292.019 66.6572 290.571 65.5501 289.015 65.5501C287.46 65.5501 286.012 66.6572 286.012 68.5588C286.012 70.4603 287.46 71.5674 289.015 71.5674C290.571 71.5674 292.019 70.4603 292.019 68.5588Z" fill="white"/>
<path d="M295.589 73.7407V71.424C295.589 71.424 295.862 71.547 296.325 71.547C296.975 71.547 297.289 71.1062 297.397 69.2508L297.732 63.3821H305.922V73.7459H303.275V65.7654H300.04L299.849 69.3584C299.7 72.3466 298.86 73.8945 296.511 73.8945C296.027 73.8945 295.589 73.7459 295.589 73.7459V73.7407Z" fill="white"/>
<path d="M313.505 74.0328C310.651 74.0328 307.812 72.1927 307.812 68.5588C307.812 64.9248 310.646 63.0847 313.505 63.0847C316.364 63.0847 319.197 64.9248 319.197 68.5588C319.197 72.1927 316.364 74.0328 313.505 74.0328ZM316.508 68.5588C316.508 66.6572 315.06 65.5501 313.505 65.5501C311.949 65.5501 310.501 66.6572 310.501 68.5588C310.501 70.4603 311.949 71.5674 313.505 71.5674C315.06 71.5674 316.508 70.4603 316.508 68.5588Z" fill="white"/>
<path d="M321.087 63.377H328.206V65.7603H323.735V73.7407H321.087V63.377Z" fill="white"/>
<path d="M330.092 63.377H332.611V70.2093L337.149 63.377H339.879V73.7407H337.36V66.9084L332.827 73.7407H330.097V63.377H330.092Z" fill="white"/>
<path d="M342.213 63.377H344.732V70.2093L349.27 63.377H352V73.7407H349.481V66.9084L344.948 73.7407H342.218V63.377H342.213Z" fill="white"/>
</g>
<defs>
<clipPath id="clip0_1_1126">
<rect width="352" height="78" fill="white"/>
</clipPath>
</defs>
</svg>
