<svg viewBox="0 0 1920 1080" fill="none" xmlns="http://www.w3.org/2000/svg">
<g clip-path="url(#clip0_38_11)">
<path opacity="0.35" d="M0 99C0 99 406.66 451.427 970.166 403.5C1533.67 355.573 1468.17 175.438 1920 189.233V338.66C1920 338.66 1730.87 180.8 1524.96 293.544C1411.68 355.573 952.739 817.956 496.701 764.384C40.6637 710.811 0 911 0 911" fill="white"/>
<path d="M340 238C340 240.767 337.767 243 335 243C332.233 243 330 240.767 330 238C330 235.233 332.233 233 335 233C337.767 233 340 235.233 340 238Z" fill="white"/>
<path d="M405 879.5C405 882.541 402.317 885 399 885C395.683 885 393 882.541 393 879.5C393 876.459 395.683 874 399 874C402.317 874 405 876.459 405 879.5Z" fill="white"/>
<path d="M336 844C336 845.659 334.659 847 333 847C331.341 847 330 845.659 330 844C330 842.341 331.341 841 333 841C334.659 841 336 842.341 336 844Z" fill="white"/>
<path d="M399 676.5C399 680.653 395.853 684 392 684C388.147 684 385 680.629 385 676.5C385 672.371 388.147 669 392 669C395.853 669 399 672.371 399 676.5Z" fill="white"/>
<path d="M238 532C238 533.659 236.659 535 235 535C233.341 535 232 533.659 232 532C232 530.341 233.341 529 235 529C236.659 529 238 530.341 238 532Z" fill="white"/>
<path d="M297 317C297 320.317 294.317 323 291 323C287.683 323 285 320.317 285 317C285 313.683 287.683 311 291 311C294.317 311 297 313.683 297 317Z" fill="white"/>
<path d="M369.744 543.894L359.176 537.949L353.683 549L355.918 536.798L344 534.856L355.964 533.274L354.102 521L359.246 532.219L370 526.586L361.225 535.12L369.744 543.894Z" fill="white"/>
<path d="M302 901.996L314.728 897.7L310.114 885L318.09 895.879L328.662 887.521L320.849 898.541L332 906.082L319.202 901.996L315.516 915L315.423 901.482L302 901.996Z" fill="white"/>
<path d="M232 469.837L211.163 462.898L204.833 484L204.975 461.971L183 462.447L203.956 455.793L196.702 435L209.503 452.894L226.974 439.563L213.936 457.29L232 469.837Z" fill="#DF2D4F"/>
<path d="M299 730.512L311.84 727.33L308.405 714L315.275 725.788L326.34 718.267L317.742 728.729L328 737.407L315.828 732.103L311.103 745L312.163 731.236L299 730.512Z" fill="white"/>
<path d="M450 779.798L439.362 776.234L436.146 787L436.219 775.773L425 776.016L435.687 772.621L431.987 762L438.515 771.142L447.437 764.328L440.788 773.372L450 779.798Z" fill="white"/>
<path d="M955.532 792.185C911.048 835.57 867.536 828.192 829.13 821.699C822.082 820.518 815.16 819.338 808.323 818.452C848.839 767.899 893.618 684.628 878.34 638.544C874.415 626.697 865.974 618.981 853.904 616.156C844.83 614.048 833.604 614.849 823.01 618.348C787.896 629.985 755.483 651.32 724.126 671.979C711.76 680.117 699.858 687.959 688.463 694.747C673.396 675.563 652.421 665.149 631.445 667.004C607.347 669.112 594.812 682.689 592.997 694.789C580.969 702.294 567.21 719.876 563.201 760.816C558.305 810.652 571.389 846.659 599.159 861.079C562.863 882.835 521.63 883.805 484.237 884.69C480.016 884.774 475.923 884.901 471.871 885.027C493.986 858.085 509.897 828.108 522.389 791.005C535.937 750.824 531.843 717.262 511.501 701.156C492.593 686.188 463.261 689.055 431.017 708.998C409.071 722.574 387.969 740.662 367.584 758.16C325.76 793.998 282.501 831.101 227.424 834.348C189.651 836.582 155.972 818.41 141.665 788.053C130.312 763.936 134.448 737.837 152.722 718.147C153.735 717.093 153.651 715.407 152.596 714.395C151.541 713.383 149.853 713.467 148.84 714.521C129.004 735.814 124.53 764.147 136.854 790.245C152.089 822.542 187.752 841.937 227.719 839.576C233.839 839.196 239.832 838.437 245.698 837.341C294.064 828.108 333.103 794.63 371.003 762.123C391.261 744.752 412.194 726.833 433.803 713.467C464.021 694.747 491.158 691.796 508.209 705.288C526.736 719.96 530.155 751.372 517.367 789.318C504.537 827.433 488.035 857.874 464.738 885.28C440.555 886.292 419.622 888.906 403.669 899.7C397.676 903.747 394.553 910.409 395.355 917.45C396.114 924.028 400.208 929.551 406.075 931.828C408.396 932.713 412.025 933.514 416.752 932.587C421.648 931.659 427.725 928.919 434.858 922.763C446.928 912.264 457.648 901.597 467.271 890.466C472.799 890.255 478.497 890.129 484.363 890.002C523.571 889.075 566.915 888.063 605.025 863.777C605.236 863.861 605.405 863.946 605.616 863.988C632.711 874.065 666.601 862.681 684.454 837.51C719.948 787.421 713.701 736.741 696.018 706.005C694.625 703.601 693.148 701.282 691.628 699.048C702.981 692.26 714.756 684.502 727.038 676.449C758.1 656 790.218 634.834 824.656 623.45C834.321 620.246 844.534 619.487 852.68 621.384C862.978 623.787 869.941 630.112 873.275 640.273C888.005 684.712 841.833 768.7 801.908 817.82C784.478 816.218 767.934 817.44 752.698 826.758C749.195 828.909 737.631 836.709 735.774 846.997C735.014 851.171 736.027 855.092 738.728 858.549C745.312 866.982 759.746 863.356 770.382 856.357C779.751 850.201 791.695 838.522 804.314 823.343C812.079 824.186 820.056 825.536 828.201 826.927C867.831 833.673 912.779 841.262 959.203 796.022C960.258 795.01 960.258 793.323 959.246 792.269C958.233 791.215 956.544 791.215 955.489 792.227L955.532 792.185ZM431.397 918.757C422.576 926.431 414.262 929.298 408.016 926.895C404.007 925.335 401.179 921.456 400.63 916.818C400.082 911.758 402.318 906.952 406.665 904.043C414.431 898.772 423.674 895.61 434.098 893.628C442.075 892.111 450.727 891.309 459.927 890.803C451.317 900.417 441.864 909.65 431.355 918.757H431.397ZM631.909 672.274C650.859 670.588 669.935 680.075 683.863 697.446C672.594 703.939 661.79 709.293 651.534 712.751C640.688 697.193 624.059 687.832 607.937 689.519C607.135 689.603 606.249 689.73 605.321 689.898C603.506 690.236 601.48 690.784 599.328 691.627C602.915 682.52 614.184 673.792 631.952 672.232L631.909 672.274ZM598.062 697.867C601.311 696.223 604.814 695.169 608.486 694.789C622.245 693.314 636.467 701.198 646.174 714.395C635.033 717.473 624.524 718.063 614.606 715.323C604.097 712.371 598.019 705.92 598.019 697.909L598.062 697.867ZM568.476 761.364C571.346 731.892 580.04 710.938 593.039 701.072C594.432 710.01 601.776 717.178 613.255 720.382C624.735 723.586 636.721 722.701 649.34 718.991C651.788 723.038 653.813 727.508 655.375 732.23C665.799 764.695 654.995 808.375 629.715 836.034C621.738 844.762 613.297 851.887 604.519 857.748C576.791 845.436 563.707 810.568 568.519 761.322L568.476 761.364ZM680.149 834.432C664.322 856.778 634.906 867.403 610.554 860.025C618.488 854.375 626.212 847.671 633.555 839.618C660.06 810.652 671.328 764.779 660.355 730.628C658.836 725.905 656.852 721.436 654.446 717.304C664.913 713.636 675.76 708.197 687.07 701.704C688.632 703.896 690.067 706.173 691.46 708.576C708.299 737.88 714.208 786.367 680.191 834.39L680.149 834.432ZM767.512 851.887C758.691 857.664 747.043 860.531 742.949 855.218C741.176 852.941 740.543 850.538 741.007 847.84C742.189 841.389 749.533 834.811 755.483 831.186C761.645 827.391 768.145 825.072 774.897 823.765C782.241 822.373 789.88 822.205 797.772 822.711C786.461 836.118 775.826 846.406 767.512 851.845V851.887Z" fill="white"/>
<path d="M989.776 814.949C984.722 816.004 979.5 816.764 974.193 817.228C966.022 817.903 958.568 813.472 956.42 806.677C954.314 800.009 957.725 793.298 965.559 788.782C978.699 781.185 995.673 782.283 1015.3 783.591C1023.13 784.097 1031.47 784.646 1040.15 784.646C1049.75 776.585 1058.68 766.794 1066.85 755.314C1079.4 737.672 1082.94 714.249 1075.44 698.338C1069.5 685.761 1057.25 678.544 1039.98 677.362C1024.06 676.307 1004.6 682.215 991.713 688.124C990.45 688.715 988.934 688.124 988.344 686.858C987.755 685.592 988.344 684.072 989.566 683.481C1008.64 674.576 1025.66 666.093 1040.61 652.757C1061.96 633.722 1072.2 610.678 1067.36 592.53C1064.15 580.46 1054.8 572.272 1041.12 569.402C1003.17 561.51 960.715 595.105 940.036 630.768C939.32 631.992 937.762 632.372 936.582 631.696C935.361 630.979 934.982 629.417 935.656 628.236C957.22 591.053 1001.86 556.108 1042.13 564.464C1057.58 567.672 1068.58 577.421 1072.24 591.222C1077.63 611.523 1067.06 635.917 1043.98 656.555C1036.4 663.308 1028.36 668.837 1019.85 673.774C1026.8 672.466 1033.79 671.833 1040.27 672.255C1064.53 673.859 1075.27 686.098 1079.99 696.101C1088.25 713.616 1084.54 739.15 1070.98 758.226C1063.86 768.186 1056.24 776.923 1048.07 784.435C1053.63 784.182 1059.27 783.633 1064.95 782.62C1179.85 762.404 1346.21 589.07 1395.45 473.851C1395.99 472.543 1397.47 471.952 1398.77 472.5C1400.08 473.049 1400.67 474.568 1400.12 475.835C1351.64 589.281 1188.65 761.94 1075.69 785.701C1072.41 786.376 1069.12 787.01 1065.84 787.6C1057.75 789.035 1049.75 789.584 1042 789.626C1026.33 802.414 1008.9 810.855 989.776 814.865V814.949ZM979.163 789.078C975.162 789.922 971.455 791.23 968.128 793.172C962.442 796.463 959.957 800.853 961.305 805.158C962.527 809.083 967.201 812.754 973.814 812.206C995.967 810.349 1016.01 802.794 1033.83 789.668C1027.3 789.5 1020.98 789.078 1015 788.656C1001.53 787.769 989.355 786.967 979.205 789.078H979.163Z" fill="white"/>
<path d="M180.588 254.51C178.695 247.354 180.953 236.837 186.677 232.196C192.424 227.555 200.931 226.663 207.499 230.024C218.971 235.9 221.548 250.989 222.072 263.907C224.991 334.484 173.381 375.568 178.33 446.008C179.128 457.325 193.77 523.169 134.862 526.393C109.091 527.788 102.044 489.516 129.776 478.473C142.228 473.512 161.727 474.518 173.564 480.828C184.465 486.635 195.708 495.208 202.984 505.268C219.541 528.108 231.24 557.623 229.895 593.952C227.386 661.877 183.963 674.703 147.086 721" stroke="white" stroke-width="5" stroke-miterlimit="10" stroke-linecap="round"/>
<path d="M134.729 135.316C133.814 140.449 131.733 142.695 129.127 146.041C128.349 147.026 126.772 146.499 126.749 145.262C126.589 139.922 125.697 137.447 125.972 130.458C122.519 130.091 118.266 128.281 114.539 127.433C113.899 127.296 113.808 126.448 114.379 126.127C117.26 124.523 119.912 122.117 122.931 121.017C119.867 116.479 120.027 109.009 119.958 103.096C119.958 102.363 120.873 101.996 121.353 102.546C124.828 106.534 129.493 112.652 133.357 114.852C134.591 110.659 138.387 107.519 141.336 102.5C141.794 101.721 142.96 101.882 143.143 102.775C143.943 106.9 144.469 112.698 144.286 115.952C147.03 116.319 149.842 116.158 152.54 115.54C153.477 115.31 154.323 116.227 153.958 117.144C153.02 119.573 151.511 121.773 149.568 123.514C169.711 128.968 176.89 133.506 190.838 141.068C199.686 145.858 210.638 157.201 216.126 165.657C221.613 174.113 225.569 187.221 218.778 201.2C214.365 210.275 192.187 217.264 182.927 213.3C178.079 210.481 178.445 200.535 182.629 196.8C186.814 193.065 193.467 193.225 198.406 195.906C200.029 196.8 201.561 197.946 202.636 199.458C205.974 204.133 204.122 211.008 200.075 215.064C196.028 219.12 190.358 221.022 184.916 222.787C174.581 226.156 164.109 229.547 153.272 229.983C158.85 208.556 158.462 185.594 152.174 164.351C149.911 156.651 144.812 136.531 130.179 123.629C146.778 126.173 162.006 134.743 174.741 145.72C187.477 156.697 197.926 170.034 207.895 183.555C215.966 194.508 224.151 206.906 223.031 220.472C222.093 231.632 214.731 241.486 205.54 247.857C196.348 254.228 186.173 260.415 175.359 263.257C164.475 266.121 151.374 266.969 141.748 267.932C135.026 268.619 128.738 264.059 127.709 257.367C126.497 249.484 130.476 246.299 133.837 243.961C138.753 240.547 144.172 238.805 148.173 237.522C168.225 231.174 189.923 235.162 208.603 225.468C216.949 221.137 224.105 214.766 232.199 209.977C240.293 205.187 250.125 201.979 259.111 204.775C262.632 205.875 266.016 208.029 267.731 211.306C269.72 215.133 269.148 219.831 267.548 223.841C262.426 236.537 248.456 243.572 236.452 248.659C225.02 253.494 213.085 257.115 200.852 259.269C196.302 260.071 191.501 260.553 187.294 258.696C182.858 256.748 180.64 253.769 180.64 249.232" stroke="white" stroke-width="5" stroke-miterlimit="10"/>
<path d="M442.102 253.66C442.102 258.773 437.947 262.925 432.832 262.925C427.717 262.925 423.562 258.773 423.562 253.66C423.562 248.547 427.717 244.395 432.832 244.395C437.947 244.395 442.102 248.547 442.102 253.66Z" fill="white"/>
<path d="M1920 458.399C1920 461.514 1917.48 464.031 1914.37 464.031C1911.25 464.031 1908.73 461.514 1908.73 458.399C1908.73 455.285 1911.25 452.768 1914.37 452.768C1917.48 452.768 1920 455.285 1920 458.399Z" fill="white"/>
<path d="M1316 525C1316 528.877 1312.86 532 1309 532C1305.14 532 1302 528.86 1302 525C1302 521.14 1305.14 518 1309 518C1312.86 518 1316 521.14 1316 525Z" fill="white"/>
<path d="M1293.19 563.589C1293.19 569.454 1288.44 574.177 1282.59 574.177C1276.75 574.177 1272 569.428 1272 563.589C1272 557.749 1276.75 553 1282.59 553C1288.44 553 1293.19 557.749 1293.19 563.589Z" fill="white"/>
<path d="M1281 523C1281 525.77 1278.76 528 1276 528C1273.24 528 1271 525.757 1271 523C1271 520.243 1273.24 518 1276 518C1278.76 518 1281 520.243 1281 523Z" fill="white"/>
<path d="M1003.99 332.374C1003.99 335.307 1001.62 337.668 998.69 337.668C995.755 337.668 993.393 335.307 993.393 332.374C993.393 329.441 995.755 327.08 998.69 327.08C1001.62 327.08 1003.99 329.441 1003.99 332.374Z" fill="white"/>
<path d="M274.1 1018.87C274.1 1026.19 268.154 1032.11 260.857 1032.11C253.561 1032.11 247.614 1026.16 247.614 1018.87C247.614 1011.58 253.561 1005.63 260.857 1005.63C268.154 1005.63 274.1 1011.58 274.1 1018.87Z" fill="white"/>
<path d="M1013.75 1060.71C1013.75 1063.64 1011.39 1066 1008.45 1066C1005.52 1066 1003.16 1063.64 1003.16 1060.71C1003.16 1057.77 1005.52 1055.41 1008.45 1055.41C1011.39 1055.41 1013.75 1057.77 1013.75 1060.71Z" fill="white"/>
<path d="M18.5658 317.036C18.5658 322.149 14.4112 326.301 9.29585 326.301C4.18049 326.301 0.0258789 322.149 0.0258789 317.036C0.0258789 311.923 4.18049 307.771 9.29585 307.771C14.4112 307.771 18.5658 311.923 18.5658 317.036Z" fill="white"/>
<path d="M1627.54 52.3723C1627.54 58.2376 1622.79 62.961 1616.95 62.961C1611.1 62.961 1606.35 58.2116 1606.35 52.3723C1606.35 46.533 1611.1 41.7837 1616.95 41.7837C1622.79 41.7837 1627.54 46.533 1627.54 52.3723Z" fill="white"/>
<path d="M931.697 1026.58L912.066 1015.83L901.913 1035.74L906.068 1013.78L883.971 1010.28L906.146 1007.43L902.666 985.365L912.222 1005.56L932.164 995.435L915.883 1010.75L931.697 1026.58Z" fill="white"/>
<path d="M1725.62 531.041L1749.32 523.125L1740.7 499.664L1755.58 519.751L1775.24 504.31L1760.72 524.656L1781.47 538.567L1757.63 531.067L1750.8 555.099L1750.6 530.106L1725.62 531.041Z" fill="white"/>
<path d="M361.529 41.3424L370.383 24.2656L353.038 15.9349L372.019 19.0492L374.616 0L377.498 18.9973L396.427 15.5715L379.212 24.1878L388.352 41.1088L374.823 27.4318L361.529 41.3424Z" fill="white"/>
<path d="M1053.37 247.795L1036.91 243.383L1032.99 259.941L1032.11 242.942L1015.13 244.317L1031.02 238.218L1024.47 222.517L1035.17 235.753L1048.1 224.671L1038.83 238.919L1053.37 247.795Z" fill="white"/>
<path d="M1322.75 91.8977L1284.79 79.2848L1273.26 117.565L1273.54 77.5979L1233.55 78.4543L1271.67 66.3605L1258.48 28.6255L1281.77 61.144L1313.61 36.9303L1289.88 69.1114L1322.75 91.8977Z" fill="white"/>
<path d="M678.058 993.566L702.076 987.857L695.689 964.007L708.542 985.08L729.237 971.637L713.164 990.374L732.353 1005.89L709.555 996.395L700.726 1019.44L702.726 994.838L678.058 993.566Z" fill="white"/>
<path d="M1163.16 586.164L1144.18 579.857L1138.41 599.01L1138.54 579.027L1118.55 579.468L1137.61 573.421L1131.01 554.554L1142.67 570.8L1158.59 558.68L1146.72 574.771L1163.16 586.164Z" fill="white"/>
<path d="M1316.23 203.598L1333.63 183.043L1312.54 166.278L1337.5 176.451L1346.92 151.251L1344.98 178.086L1371.88 179.28L1345.73 185.69L1352.9 211.643L1338.69 188.779L1316.23 203.598Z" fill="white"/>
<path d="M293.741 427.737C266.286 427.737 245 408.312 245 378.808C245 349.304 267.415 329.879 293.741 329.879C313.918 329.879 328.491 338.661 335.204 353.046L315.027 364.63C309.236 355.848 301.958 351.937 293.553 351.937C279.732 351.937 268.9 362.392 268.9 378.827C268.9 395.262 279.355 405.717 293.553 405.717C305.136 405.717 311.116 400.113 316.72 392.272L336.145 402.915C326.799 418.786 313.542 427.756 293.741 427.756V427.737Z" fill="white"/>
<path d="M428.775 294.377V347.048H485.921V294.377H510.573V425.123H485.921V369.839H428.775V425.123H404.122V294.377H428.775Z" fill="white"/>
<path d="M645.588 332.475H688.725C709.654 332.475 721.031 342.554 721.031 355.453C721.031 366.285 715.615 372.076 707.21 376.195C716.913 378.996 724.397 386.086 724.397 398.045C724.397 414.292 709.824 425.123 690.775 425.123H645.569V332.475H645.588ZM686.676 367.958C694.893 367.958 698.823 365.533 698.823 359.177C698.823 352.821 694.893 350.395 686.676 350.395H668.736V367.958H686.676ZM687.616 407.184C697.319 407.184 701.061 402.897 701.061 396.353C701.061 389.809 697.319 385.898 687.616 385.898H668.755V407.184H687.616Z" fill="white"/>
<path d="M741.227 332.475H764.77V362.731H783.443C805.105 362.731 820.243 372.998 820.243 393.927C820.243 414.856 805.124 425.123 783.443 425.123H741.227V332.475ZM781.75 407.184C793.146 407.184 797.433 401.392 797.433 393.927C797.433 386.462 793.146 380.67 781.75 380.67H764.751V407.184H781.75ZM853.846 332.475V425.123H830.303V332.475H853.846Z" fill="white"/>
<path d="M874.568 332.475H905.389L930.981 397.481L956.574 332.475H987.394V425.123H964.979V366.473L940.139 425.123H921.842L897.002 366.473V425.123H874.587V332.475H874.568Z" fill="white"/>
<path d="M1060.58 332.474H1123.89V353.761H1084.1V425.104H1060.56V332.456L1060.58 332.474Z" fill="white"/>
<path d="M1183.65 427.737C1158.25 427.737 1133.03 411.302 1133.03 378.808C1133.03 346.314 1158.25 329.879 1183.65 329.879C1209.06 329.879 1234.28 346.314 1234.28 378.808C1234.28 411.302 1209.06 427.737 1183.65 427.737ZM1210.36 378.808C1210.36 361.809 1197.48 351.918 1183.65 351.918C1169.83 351.918 1156.95 361.809 1156.95 378.808C1156.95 395.807 1169.83 405.698 1183.65 405.698C1197.48 405.698 1210.36 395.807 1210.36 378.808Z" fill="white"/>
<path d="M1240.61 403.837H1250.88C1254.81 396.917 1257.8 388.342 1258.72 371.531L1260.96 332.493H1333.62V403.837H1347.63V446.786H1326.34V425.123H1261.9V446.786H1240.61V403.837ZM1310.09 403.837V353.78H1280.59L1279.46 372.264C1278.33 389.639 1276.85 396.917 1273.11 403.837H1310.09Z" fill="white"/>
<path d="M1473.5 332.475H1504.33L1529.92 397.481L1555.51 332.475H1586.33V425.123H1563.92V366.473L1539.08 425.123H1520.78L1495.94 366.473V425.123H1473.52V332.475H1473.5Z" fill="white"/>
<path d="M1620.35 339.771V294.377H1645V339.771L1642.01 386.274H1623.34L1620.35 339.771ZM1620.35 399.361H1645V425.142H1620.35V399.361Z" fill="white"/>
<path d="M1397.42 327.567C1372.38 327.567 1347.53 343.776 1347.53 375.8C1347.53 378.132 1347.69 380.369 1347.93 382.513L1371.34 372.077C1373.07 357.616 1384.84 349.286 1397.42 349.286C1411.06 349.286 1423.75 359.045 1423.75 375.8C1423.75 392.555 1411.04 402.314 1397.42 402.314C1392.57 402.314 1387.85 401.054 1383.77 398.704L1364.14 412.788C1373.35 420.272 1385.37 424.033 1397.42 424.033C1422.47 424.033 1447.31 407.824 1447.31 375.8C1447.31 343.776 1422.45 327.567 1397.42 327.567Z" fill="#DF2D4F"/>
<path d="M1447.7 298.006C1445.05 282.869 1442.4 267.769 1439.75 252.65L1440.31 242.91C1443 234.053 1445.62 225.422 1448.23 216.772C1448.98 214.29 1449.85 211.807 1450.39 209.269C1450.56 208.479 1450.15 207.2 1449.55 206.73C1448.95 206.26 1447.78 206.448 1446.86 206.467C1446.5 206.467 1446.16 206.805 1445.82 206.993C1436.14 212.315 1426.47 217.693 1416.75 222.977C1408.14 227.659 1401.5 234.26 1396.75 242.816C1388.83 257.051 1380.87 271.267 1372.94 285.501C1374.41 286.084 1412.6 300.94 1447.7 298.006Z" fill="#C13355"/>
<path d="M1448.51 302.557C1443.61 302.952 1408.69 305.058 1370.76 289.413C1368.6 293.286 1366.43 297.179 1364.27 301.052C1376.96 306.844 1406.96 317.694 1450.9 316.171C1450.09 311.62 1449.3 307.089 1448.51 302.557Z" fill="#C13355"/>
<path d="M1472.08 329.522C1468.6 326.645 1464.74 324.408 1460.74 322.414C1438.28 324.05 1419.09 322.584 1403.42 319.857C1374.31 314.799 1357.37 305.415 1354.23 303.554C1347.74 304.306 1341.35 305.434 1335.5 308.631C1329.29 312.034 1327.9 318.165 1332.23 323.712C1333.22 324.991 1334.37 326.138 1335.58 327.228C1340.2 331.365 1345.64 334.224 1351.24 336.743C1361.92 341.576 1373.07 344.998 1384.47 347.706C1387.04 348.308 1389.6 348.966 1392.18 349.605C1397.59 350.546 1403.03 351.486 1408.44 352.426C1411.07 352.689 1413.71 352.953 1416.34 353.235C1427.98 354.551 1439.62 355.078 1451.32 354.137C1457.33 353.648 1463.31 352.802 1468.99 350.602C1472.92 349.079 1476.44 347.048 1478.34 343.024L1478.85 340.109C1478.28 335.483 1475.46 332.324 1472.06 329.504L1472.08 329.522Z" fill="#247DA5"/>
<path d="M1421.69 290.436L1401.62 286.945L1398.63 304.137L1418.69 307.628L1421.69 290.436Z" fill="white"/>
<path d="M1455.3 188.396L1457.5 201.296L1470.1 197.779L1462.54 208.46L1473.92 214.872L1461.04 217.091L1464.55 229.671L1453.87 222.131L1447.44 233.508L1445.24 220.627L1432.64 224.124L1440.2 213.462L1428.83 207.031L1441.71 204.831L1438.19 192.232L1448.87 199.791L1455.3 188.396Z" fill="white"/>
<path d="M582.349 434.826C613.62 434.826 638.969 409.477 638.969 378.207C638.969 346.936 613.62 321.587 582.349 321.587C551.079 321.587 525.729 346.936 525.729 378.207C525.729 409.477 551.079 434.826 582.349 434.826Z" fill="#DF2D4F"/>
<path d="M582.35 422.265C606.683 422.265 626.409 402.54 626.409 378.207C626.409 353.874 606.683 334.148 582.35 334.148C558.017 334.148 538.292 353.874 538.292 378.207C538.292 402.54 558.017 422.265 582.35 422.265Z" fill="white"/>
<path d="M623.795 436.331H538.686C534.189 436.331 530.544 439.972 530.544 444.464C530.544 448.956 534.189 452.597 538.686 452.597H623.795C628.291 452.597 631.937 448.956 631.937 444.464C631.937 439.972 628.291 436.331 623.795 436.331Z" fill="#247DA5"/>
<path d="M610.8 420.065H551.698C547.202 420.065 543.556 423.706 543.556 428.198C543.556 432.689 547.202 436.331 551.698 436.331H610.8C615.297 436.331 618.943 432.689 618.943 428.198C618.943 423.706 615.297 420.065 610.8 420.065Z" fill="#247DA5"/>
<path d="M596.077 343.306L599.255 349.756L606.401 350.809L601.229 355.829L602.452 362.937L596.077 359.571L589.702 362.937L590.906 355.829L585.753 350.809L592.88 349.756L596.077 343.306Z" fill="#DF2D4F"/>
<path d="M618.924 348.383L622.121 354.852L629.247 355.886L624.095 360.906L625.299 368.015L618.924 364.649L612.549 368.015L613.772 360.906L608.619 355.886L615.746 354.852L618.924 348.383Z" fill="#DF2D4F"/>
<path d="M538.516 365.586C538.516 365.586 556.671 356.179 568.344 373.247C580.018 390.316 611.327 393.79 624.981 379.031L626.981 376.759C626.981 376.759 629.154 416.999 586.403 423.458C543.651 429.917 532.516 376.74 538.497 365.605" fill="#92BED2"/>
<path d="M1544.79 885.181C1384.01 933.928 1319.33 915.613 1294.82 813.074C1268.36 702.39 1437.57 652.253 1401.77 534.18L1431.21 515.15C1471.65 660.914 1616.42 639.301 1645.59 706.76C1670.69 764.883 1681.5 843.784 1544.79 885.221V885.181Z" fill="white"/>
<path d="M1541.93 873.262C1398.71 916.686 1340.91 899.801 1318.58 806.757C1294.46 706.363 1445.19 661.708 1412.7 554.56L1430.22 540.06C1466.97 672.316 1604.7 650.783 1631.04 712.044C1653.73 764.804 1663.7 836.355 1541.93 873.262Z" fill="#123845"/>
<path d="M1541.93 873.263C1663.7 836.355 1653.73 764.804 1631.04 712.044C1626.48 701.437 1620.87 694.921 1610.74 688.048C1578.88 709.82 1390.09 760.632 1319.02 762.221C1313.81 776.246 1315.44 793.607 1318.58 806.757C1340.91 899.761 1398.71 916.686 1541.93 873.263Z" fill="#C13355"/>
<path d="M1443.8 574.862L1417.27 581.02L1383.34 470.972L1427.91 461L1443.8 574.862Z" fill="#519ACF"/>
<path d="M1439.16 510.456L1396.08 520.07C1386.98 522.101 1381.25 531.125 1383.28 540.226L1384.31 544.879C1386.35 553.981 1395.37 559.712 1404.47 557.681L1447.55 548.068C1456.65 546.037 1462.38 537.012 1460.35 527.911L1459.31 523.258C1457.28 514.157 1448.26 508.425 1439.16 510.456Z" fill="white"/>
<path d="M1403.72 770.286C1409.2 770.286 1413.65 765.839 1413.65 760.354C1413.65 754.869 1409.2 750.422 1403.72 750.422C1398.23 750.422 1393.79 754.869 1393.79 760.354C1393.79 765.839 1398.23 770.286 1403.72 770.286Z" fill="#E99392"/>
<path d="M1464.38 695.676C1469.87 695.676 1474.32 691.229 1474.32 685.744C1474.32 680.259 1469.87 675.812 1464.38 675.812C1458.9 675.812 1454.45 680.259 1454.45 685.744C1454.45 691.229 1458.9 695.676 1464.38 695.676Z" fill="#E99392"/>
<path d="M1430.77 686.976C1434.06 686.976 1436.73 684.308 1436.73 681.016C1436.73 677.725 1434.06 675.057 1430.77 675.057C1427.48 675.057 1424.81 677.725 1424.81 681.016C1424.81 684.308 1427.48 686.976 1430.77 686.976Z" fill="#E99392"/>
<path d="M1441.94 627.502C1445.23 627.502 1447.9 624.834 1447.9 621.543C1447.9 618.252 1445.23 615.583 1441.94 615.583C1438.65 615.583 1435.98 618.252 1435.98 621.543C1435.98 624.834 1438.65 627.502 1441.94 627.502Z" fill="#E99392"/>
<path d="M1519.61 760.672C1525.09 760.672 1529.54 756.225 1529.54 750.74C1529.54 745.254 1525.09 740.808 1519.61 740.808C1514.12 740.808 1509.67 745.254 1509.67 750.74C1509.67 756.225 1514.12 760.672 1519.61 760.672Z" fill="#E99392"/>
<path d="M1444.28 842.632C1449.77 842.632 1454.21 838.185 1454.21 832.7C1454.21 827.214 1449.77 822.768 1444.28 822.768C1438.8 822.768 1434.35 827.214 1434.35 832.7C1434.35 838.185 1438.8 842.632 1444.28 842.632Z" fill="#E99392"/>
<path d="M1479.12 810.134C1491.19 810.134 1500.97 800.351 1500.97 788.283C1500.97 776.215 1491.19 766.433 1479.12 766.433C1467.05 766.433 1457.27 776.215 1457.27 788.283C1457.27 800.351 1467.05 810.134 1479.12 810.134Z" fill="#E99392"/>
<path d="M1569.23 830.713C1581.29 830.713 1591.08 820.93 1591.08 808.862C1591.08 796.795 1581.29 787.012 1569.23 787.012C1557.16 787.012 1547.38 796.795 1547.38 808.862C1547.38 820.93 1557.16 830.713 1569.23 830.713Z" fill="#E99392"/>
<path d="M248.93 735.926L237.309 770.202L258.947 799.196L222.766 798.74L201.872 828.282L191.124 793.719L156.574 782.984L186.116 762.09L185.659 725.909L214.654 747.547L248.93 735.926Z" fill="white"/>
<path d="M226.523 758.333L221.932 771.872L230.488 783.336L216.18 783.154L207.923 794.84L203.672 781.171L190.016 776.932L201.689 768.676L201.506 754.368L212.971 762.924L226.523 758.333Z" fill="#247DA5"/>
<path d="M-0.540527 996L209.332 779.436L205.406 775.523L-0.540527 988.161V996Z" fill="#247DA5"/>
<path d="M225.114 704L221.88 727.675L225.873 728.22L229.108 704.546L225.114 704Z" fill="#247DA5"/>
<path d="M257.554 758.694L257.008 762.687L280.683 765.922L281.228 761.928L257.554 758.694Z" fill="#247DA5"/>
<path d="M283.583 706.451L257.689 727.159L260.198 730.296L286.092 709.589L283.583 706.451Z" fill="#247DA5"/>
</g>
<defs>
<clipPath id="clip0_38_11">
<rect width="1920" height="1080" fill="white"/>
</clipPath>
</defs>
</svg>
