<svg viewBox="0 0 1552 834" fill="none" xmlns="http://www.w3.org/2000/svg">
<path d="M846.532 693.185C802.048 736.57 758.536 729.192 720.13 722.699C713.082 721.518 706.16 720.338 699.323 719.452C739.839 668.899 784.618 585.628 769.34 539.544C765.415 527.697 756.974 519.981 744.904 517.156C735.83 515.048 724.604 515.849 714.01 519.348C678.896 530.985 646.483 552.32 615.126 572.979C602.76 581.117 590.858 588.959 579.463 595.747C564.396 576.563 543.421 566.149 522.445 568.004C498.347 570.112 485.812 583.689 483.997 595.789C471.969 603.294 458.21 620.876 454.201 661.816C449.305 711.652 462.389 747.659 490.159 762.079C453.863 783.835 412.63 784.805 375.237 785.69C371.016 785.774 366.923 785.901 362.871 786.027C384.986 759.085 400.897 729.108 413.389 692.005C426.937 651.824 422.843 618.262 402.501 602.156C383.593 587.188 354.261 590.055 322.017 609.998C300.071 623.574 278.969 641.662 258.584 659.16C216.76 694.998 173.501 732.101 118.424 735.348C80.6512 737.582 46.9722 719.41 32.6649 689.053C21.312 664.936 25.448 638.837 43.7224 619.147C44.7354 618.093 44.6509 616.407 43.5958 615.395C42.5407 614.383 40.8526 614.467 39.8397 615.521C20.0037 636.814 15.53 665.147 27.8536 691.245C43.0894 723.542 78.752 742.937 118.719 740.576C124.839 740.196 130.832 739.437 136.698 738.341C185.064 729.108 224.103 695.63 262.003 663.123C282.261 645.752 303.194 627.833 324.803 614.467C355.021 595.747 382.158 592.796 399.209 606.288C417.736 620.96 421.155 652.372 408.367 690.318C395.537 728.433 379.035 758.874 355.738 786.28C331.555 787.292 310.622 789.906 294.669 800.7C288.676 804.747 285.553 811.409 286.355 818.45C287.114 825.028 291.208 830.551 297.075 832.828C299.396 833.713 303.025 834.514 307.752 833.587C312.648 832.659 318.725 829.919 325.858 823.763C337.928 813.264 348.648 802.597 358.271 791.466C363.799 791.255 369.497 791.129 375.363 791.002C414.571 790.075 457.915 789.063 496.025 764.777C496.236 764.861 496.405 764.946 496.616 764.988C523.711 775.065 557.601 763.681 575.454 738.51C610.948 688.421 604.701 637.741 587.018 607.005C585.625 604.601 584.148 602.282 582.628 600.048C593.981 593.26 605.756 585.502 618.038 577.449C649.1 557 681.218 535.834 715.656 524.45C725.321 521.246 735.534 520.487 743.68 522.384C753.978 524.787 760.941 531.112 764.275 541.273C779.005 585.712 732.833 669.7 692.908 718.82C675.478 717.218 658.934 718.44 643.698 727.758C640.195 729.909 628.631 737.709 626.774 747.997C626.014 752.171 627.027 756.092 629.728 759.549C636.312 767.982 650.746 764.356 661.382 757.357C670.751 751.201 682.695 739.522 695.314 724.343C703.079 725.186 711.056 726.536 719.201 727.927C758.831 734.673 803.779 742.262 850.203 697.022C851.258 696.01 851.258 694.323 850.246 693.269C849.233 692.215 847.544 692.215 846.489 693.227L846.532 693.185ZM322.397 819.757C313.576 827.431 305.262 830.298 299.016 827.895C295.007 826.335 292.179 822.456 291.63 817.818C291.082 812.758 293.318 807.952 297.665 805.043C305.431 799.772 314.674 796.61 325.098 794.628C333.075 793.111 341.727 792.309 350.927 791.803C342.317 801.417 332.864 810.65 322.355 819.757H322.397ZM522.909 573.274C541.859 571.588 560.935 581.075 574.863 598.446C563.594 604.939 552.79 610.293 542.534 613.751C531.688 598.193 515.059 588.832 498.937 590.519C498.135 590.603 497.249 590.73 496.321 590.898C494.506 591.236 492.48 591.784 490.328 592.627C493.915 583.52 505.184 574.792 522.952 573.232L522.909 573.274ZM489.062 598.867C492.311 597.223 495.814 596.169 499.486 595.789C513.245 594.314 527.467 602.198 537.174 615.395C526.033 618.473 515.524 619.063 505.606 616.323C495.097 613.371 489.019 606.92 489.019 598.909L489.062 598.867ZM459.476 662.364C462.346 632.892 471.04 611.938 484.039 602.072C485.432 611.01 492.776 618.178 504.255 621.382C515.735 624.586 527.721 623.701 540.34 619.991C542.788 624.038 544.813 628.508 546.375 633.23C556.799 665.695 545.995 709.375 520.715 737.034C512.738 745.762 504.297 752.887 495.519 758.748C467.791 746.436 454.707 711.568 459.519 662.322L459.476 662.364ZM571.149 735.432C555.322 757.778 525.906 768.403 501.554 761.025C509.488 755.375 517.212 748.671 524.555 740.618C551.06 711.652 562.328 665.779 551.355 631.628C549.836 626.905 547.852 622.436 545.446 618.304C555.913 614.636 566.76 609.197 578.07 602.704C579.632 604.896 581.067 607.173 582.46 609.576C599.299 638.88 605.208 687.367 571.191 735.39L571.149 735.432ZM658.512 752.887C649.691 758.664 638.043 761.531 633.949 756.218C632.176 753.941 631.543 751.538 632.007 748.84C633.189 742.389 640.533 735.811 646.483 732.186C652.645 728.391 659.145 726.072 665.897 724.765C673.241 723.373 680.88 723.205 688.772 723.711C677.461 737.118 666.826 747.406 658.512 752.845V752.887Z" fill="white"/>
<path d="M885.451 704.653C880.397 705.708 875.174 706.468 869.868 706.932C861.697 707.607 854.242 703.176 852.094 696.381C849.989 689.713 853.4 683.002 861.234 678.486C874.374 670.889 891.347 671.987 910.974 673.295C918.808 673.802 927.147 674.35 935.823 674.35C945.425 666.289 954.354 656.498 962.525 645.018C975.076 627.376 978.614 603.953 971.117 588.042C965.178 575.465 952.922 568.248 935.654 567.066C919.734 566.011 900.276 571.919 887.388 577.828C886.125 578.419 884.609 577.828 884.019 576.562C883.429 575.296 884.019 573.776 885.24 573.186C904.319 564.28 921.335 555.797 936.286 542.461C957.639 523.426 967.874 500.383 963.03 482.235C959.829 470.164 950.479 461.976 936.791 459.106C898.844 451.214 856.39 484.809 835.711 520.472C834.995 521.696 833.437 522.076 832.257 521.401C831.036 520.683 830.657 519.121 831.331 517.94C852.895 480.757 897.538 445.812 937.802 454.168C953.259 457.376 964.252 467.125 967.916 480.926C973.307 501.227 962.735 525.621 939.655 546.259C932.074 553.012 924.03 558.541 915.522 563.479C922.472 562.17 929.463 561.537 935.949 561.959C960.208 563.563 970.948 575.802 975.665 585.805C983.92 603.32 980.214 628.854 966.652 647.93C959.535 657.89 951.911 666.627 943.741 674.139C949.3 673.886 954.944 673.337 960.63 672.324C1075.52 652.108 1241.89 478.774 1291.12 363.555C1291.67 362.247 1293.14 361.656 1294.45 362.204C1295.75 362.753 1296.34 364.273 1295.8 365.539C1247.32 478.985 1084.33 651.644 971.369 675.405C968.084 676.081 964.799 676.714 961.514 677.305C953.428 678.74 945.425 679.288 937.676 679.33C922.008 692.118 904.572 700.559 885.451 704.569V704.653ZM874.837 678.782C870.836 679.626 867.13 680.934 863.803 682.876C858.117 686.168 855.632 690.557 856.98 694.862C858.201 698.787 862.876 702.459 869.489 701.91C891.642 700.053 911.69 692.498 929.505 679.373C922.977 679.204 916.66 678.782 910.679 678.36C897.202 677.473 885.03 676.672 874.88 678.782H874.837Z" fill="white"/>
<path d="M71.5879 155.51C69.695 148.354 71.9528 137.837 77.6772 133.196C83.4243 128.555 91.931 127.663 98.4991 131.024C109.971 136.9 112.548 151.989 113.072 164.907C115.991 235.484 64.3812 276.568 69.3301 347.008C70.1283 358.325 84.7699 424.169 25.8617 427.393C0.0907351 428.788 -6.95635 390.516 20.7759 379.473C33.228 374.512 52.7273 375.518 64.5636 381.828C75.465 387.635 86.7084 396.208 93.9835 406.268C110.541 429.108 122.24 458.623 120.895 494.952C118.386 562.877 74.9632 575.703 38.0857 622" stroke="white" stroke-width="5" stroke-miterlimit="10" stroke-linecap="round"/>
<path d="M25.7286 36.3162C24.814 41.4494 22.7333 43.6952 20.1268 47.0409C19.3494 48.0263 17.7718 47.4993 17.7489 46.2618C17.5889 40.9223 16.6971 38.4474 16.9715 31.458C13.519 31.0914 9.26623 29.281 5.53933 28.4331C4.89913 28.2956 4.80767 27.4477 5.37928 27.1269C8.26019 25.5227 10.9125 23.1166 13.9306 22.0166C10.8667 17.4792 11.0268 10.0086 10.9582 4.09622C10.9582 3.3629 11.8728 2.99625 12.3529 3.54623C15.8283 7.53363 20.4926 13.6522 24.3567 15.8522C25.5914 11.6585 29.3869 8.51902 32.3364 3.5004C32.7937 2.72125 33.9598 2.88167 34.1427 3.77539C34.9429 7.90029 35.4688 13.6981 35.2859 16.9521C38.0296 17.3188 40.8419 17.1584 43.5399 16.5396C44.4774 16.3105 45.3234 17.2271 44.9575 18.1438C44.0201 20.5729 42.511 22.7728 40.5676 24.5144C60.7111 29.9685 67.8905 34.5058 81.8378 42.0682C90.6863 46.8576 101.638 58.2011 107.126 66.6571C112.613 75.1131 116.569 88.2211 109.778 102.2C105.365 111.275 83.1868 118.264 73.9267 114.3C69.0794 111.481 69.4453 101.535 73.6295 97.8001C77.8136 94.0647 84.4672 94.2251 89.4059 96.9063C91.0293 97.8001 92.5612 98.9459 93.6358 100.458C96.974 105.133 95.122 112.008 91.075 116.064C87.028 120.12 81.3576 122.022 75.9159 123.787C65.5812 127.156 55.1093 130.547 44.2716 130.983C49.8505 109.556 49.4618 86.5941 43.1741 65.3509C40.9105 57.6511 35.8118 37.5308 21.1786 24.629C37.7781 27.1727 53.0058 35.7433 65.7412 46.7201C78.4767 57.6969 88.9257 71.0341 98.8946 84.5546C106.966 95.5085 115.151 107.906 114.031 121.472C113.093 132.632 105.731 142.486 96.5396 148.857C87.3481 155.228 77.1734 161.415 66.3586 164.257C55.4751 167.121 42.3738 167.969 32.7479 168.932C26.0258 169.619 19.7381 165.059 18.7092 158.367C17.4974 150.484 21.4758 147.299 24.8369 144.961C29.7527 141.547 35.1716 139.805 39.1728 138.522C59.2249 132.174 80.9232 136.162 99.6034 126.468C107.949 122.137 115.105 115.766 123.199 110.977C131.293 106.187 141.125 102.979 150.111 105.775C153.632 106.875 157.016 109.029 158.731 112.306C160.72 116.133 160.148 120.831 158.548 124.841C153.426 137.537 139.456 144.572 127.452 149.659C116.02 154.494 104.085 158.115 91.8524 160.269C87.3024 161.071 82.5008 161.553 78.2938 159.696C73.8581 157.748 71.6403 154.769 71.6403 150.232" stroke="white" stroke-width="5" stroke-miterlimit="10"/>
<path d="M1435.79 772.181C1275.01 820.928 1210.33 802.614 1185.82 700.074C1159.36 589.391 1328.57 539.253 1292.77 421.18L1322.21 402.15C1362.65 547.914 1507.42 526.302 1536.59 593.761C1561.69 651.884 1572.5 730.784 1435.79 772.221V772.181Z" fill="white"/>
<path d="M1432.93 760.263C1289.71 803.686 1231.91 786.802 1209.58 693.757C1185.46 593.364 1336.19 548.709 1303.7 441.561L1321.22 427.06C1357.97 559.316 1495.7 537.783 1522.04 599.045C1544.73 651.804 1554.7 723.355 1432.93 760.263Z" fill="#123845"/>
<path d="M1432.93 760.263C1554.7 723.355 1544.73 651.804 1522.04 599.045C1517.48 588.437 1511.87 581.922 1501.74 575.049C1469.88 596.82 1281.09 647.633 1210.02 649.222C1204.81 663.246 1206.44 680.607 1209.58 693.758C1231.91 786.762 1289.71 803.686 1432.93 760.263Z" fill="#C13355"/>
<path d="M1334.8 461.862L1308.27 468.02L1274.34 357.972L1318.91 348L1334.8 461.862Z" fill="#519ACF"/>
<path d="M1330.16 397.456L1287.08 407.07C1277.98 409.101 1272.25 418.125 1274.28 427.226L1275.31 431.879C1277.35 440.981 1286.37 446.712 1295.47 444.681L1338.55 435.068C1347.65 433.037 1353.38 424.012 1351.35 414.911L1350.31 410.258C1348.28 401.157 1339.26 395.425 1330.16 397.456Z" fill="white"/>
<path d="M1294.72 657.286C1300.2 657.286 1304.65 652.839 1304.65 647.354C1304.65 641.869 1300.2 637.422 1294.72 637.422C1289.23 637.422 1284.79 641.869 1284.79 647.354C1284.79 652.839 1289.23 657.286 1294.72 657.286Z" fill="#E99392"/>
<path d="M1355.38 582.676C1360.87 582.676 1365.32 578.229 1365.32 572.744C1365.32 567.259 1360.87 562.812 1355.38 562.812C1349.9 562.812 1345.45 567.259 1345.45 572.744C1345.45 578.229 1349.9 582.676 1355.38 582.676Z" fill="#E99392"/>
<path d="M1321.77 573.976C1325.06 573.976 1327.73 571.308 1327.73 568.016C1327.73 564.725 1325.06 562.057 1321.77 562.057C1318.48 562.057 1315.81 564.725 1315.81 568.016C1315.81 571.308 1318.48 573.976 1321.77 573.976Z" fill="#E99392"/>
<path d="M1332.94 514.502C1336.23 514.502 1338.9 511.834 1338.9 508.543C1338.9 505.252 1336.23 502.583 1332.94 502.583C1329.65 502.583 1326.98 505.252 1326.98 508.543C1326.98 511.834 1329.65 514.502 1332.94 514.502Z" fill="#E99392"/>
<path d="M1410.61 647.672C1416.09 647.672 1420.54 643.225 1420.54 637.74C1420.54 632.254 1416.09 627.808 1410.61 627.808C1405.12 627.808 1400.67 632.254 1400.67 637.74C1400.67 643.225 1405.12 647.672 1410.61 647.672Z" fill="#E99392"/>
<path d="M1335.28 729.632C1340.77 729.632 1345.21 725.185 1345.21 719.7C1345.21 714.214 1340.77 709.768 1335.28 709.768C1329.8 709.768 1325.35 714.214 1325.35 719.7C1325.35 725.185 1329.8 729.632 1335.28 729.632Z" fill="#E99392"/>
<path d="M1370.12 697.134C1382.19 697.134 1391.97 687.351 1391.97 675.283C1391.97 663.215 1382.19 653.433 1370.12 653.433C1358.06 653.433 1348.27 663.215 1348.27 675.283C1348.27 687.351 1358.06 697.134 1370.12 697.134Z" fill="#E99392"/>
<path d="M1460.23 717.713C1472.3 717.713 1482.08 707.93 1482.08 695.862C1482.08 683.795 1472.3 674.012 1460.23 674.012C1448.16 674.012 1438.38 683.795 1438.38 695.862C1438.38 707.93 1448.16 717.713 1460.23 717.713Z" fill="#E99392"/>
</svg>
